SplineFontDB: 3.2
FontName: AcinaBoldItalic
FullName: aCina Bold Italic:
FamilyName: aCinaU
Weight: 
Copyright: Copyright  c  1989 Adobe Systems Incorporated.  All Rights Reserved. Adobe Garamond is a trademark of Adobe Systems Incorporated.
Version: p
ItalicAngle: 0
UnderlinePosition: 0
UnderlineWidth: 0
Ascent: 800
Descent: 200
InvalidEm: 0
sfntRevision: 0x00010000
LayerCount: 2
Layer: 0 0 "Back" 1
Layer: 1 0 "Fore" 0
XUID: [1021 1001 -774976532 5726587]
StyleMap: 0x0000
FSType: 0
OS2Version: 3
OS2_WeightWidthSlopeOnly: 0
OS2_UseTypoMetrics: 0
CreationTime: -2082844800
ModificationTime: 1709995007
PfmFamily: 17
TTFWeight: 700
TTFWidth: 5
LineGap: 0
VLineGap: 0
Panose: 2 0 8 3 0 0 0 0 0 0
OS2TypoAscent: 800
OS2TypoAOffset: 0
OS2TypoDescent: -200
OS2TypoDOffset: 0
OS2TypoLinegap: 90
OS2WinAscent: 972
OS2WinAOffset: 0
OS2WinDescent: 347
OS2WinDOffset: 0
HheadAscent: 973
HheadAOffset: 0
HheadDescent: -500
HheadDOffset: 0
OS2SubXSize: 650
OS2SubYSize: 700
OS2SubXOff: 0
OS2SubYOff: 140
OS2SupXSize: 650
OS2SupYSize: 700
OS2SupXOff: 0
OS2SupYOff: 480
OS2StrikeYSize: 49
OS2StrikeYPos: 258
OS2CapHeight: 576
OS2XHeight: 518
OS2Vendor: 'PfEd'
OS2CodePages: 20000000.00000000
OS2UnicodeRanges: 800000af.5000204a.00000000.00000000
DEI: 91125
LangName: 1033 "" "" "" "FontForge 2.0 : aCina Bold Italic: : 1-5-2021"
LangName: 1024 "Copyright  c  1989 Adobe Systems Incorporated.  All Rights Reserved. Adobe Garamond is a trademark of Adobe Systems Incorporated." "aCinaU" "Bold Italic" "aCina Bold Italic" "aCina Bold Italic:" "p"
Encoding: UnicodeBmp
Compacted: 1
UnicodeInterp: none
NameList: AGL For New Fonts
DisplaySize: -48
AntiAlias: 1
FitToEm: 1
WinInfo: 30 15 12
BeginPrivate: 3
BlueValues 17 [-260 -3 431 712]
BlueScale 10 0.00416667
BlueShift 2 14
EndPrivate
BeginChars: 65537 194

StartChar: .notdef
Encoding: 65536 -1 0
Width: 500
GlyphClass: 1
Flags: W
LayerCount: 2
Fore
SplineSet
40 667 m 1
 460 667 l 1
 460 0 l 1
 40 0 l 1
 40 667 l 1
60 647 m 1
 60 20 l 1
 440 20 l 1
 440 647 l 1
 60 647 l 1
EndSplineSet
EndChar

StartChar: numbersign
Encoding: 35 35 3
Width: 440
GlyphClass: 2
Flags: W
LayerCount: 2
Fore
SplineSet
190 578 m 2
 270.999023438 541.999023438 l 2
 288.999023438 534.666015625 302.999023438 535.166015625 312.999023438 543.499023438 c 0
 322.999023438 551.83203125 334.666015625 567.999023438 347.999023438 591.999023438 c 0
 349.999023438 595.999023438 353.166015625 597.666015625 357.499023438 596.999023438 c 0
 361.83203125 596.33203125 364.33203125 593.33203125 364.999023438 587.999023438 c 0
 366.999023438 555.33203125 358.666015625 528.33203125 339.999023438 506.999023438 c 0
 328.666015625 494.33203125 314.666015625 486.999023438 297.999023438 484.999023438 c 0
 281.33203125 482.999023438 265.33203125 484.666015625 249.999023438 489.999023438 c 2
 170.999023438 522.999023438 l 2
 143.666015625 534.999023438 115.333007812 518.666015625 86 473.999023438 c 0
 84 469.999023438 80.8330078125 468.999023438 76.5 470.999023438 c 0
 72.1669921875 472.999023438 69.6669921875 475.666015625 69 478.999023438 c 0
 66.3330078125 500.999023438 79 527.33203125 107 557.999023438 c 0
 115 568.666015625 127.166992188 576.333007812 143.5 581 c 0
 159.833007812 585.666992188 175.333007812 584.666992188 190 578 c 2
197.999023438 -62.0009765625 m 0
 221.999023438 -62.0009765625 243.500976562 -68.6640625 262.500976562 -81.9970703125 c 0
 281.500976562 -95.330078125 291.333984375 -117.330078125 292.000976562 -147.997070312 c 0
 292.66796875 -180.6640625 282.500976562 -208.831054688 261.500976562 -232.498046875 c 0
 240.500976562 -256.165039062 213.66796875 -273.33203125 181.000976562 -283.999023438 c 1
 171.000976562 -276.666015625 168.333984375 -268.999023438 173.000976562 -260.999023438 c 1
 222.333984375 -240.33203125 246.666992188 -211.999023438 246 -175.999023438 c 0
 245.333007812 -157.999023438 238.166015625 -144.83203125 224.499023438 -136.499023438 c 0
 210.83203125 -128.166015625 194.999023438 -126.333007812 176.999023438 -131 c 1
 158.999023438 -129.666992188 149.666015625 -120.666992188 148.999023438 -104 c 0
 148.999023438 -92.6669921875 152.666015625 -82.833984375 159.999023438 -74.5009765625 c 0
 167.33203125 -66.16796875 179.999023438 -62.0009765625 197.999023438 -62.0009765625 c 0
273.000976562 184.002929688 m 0
 281.66796875 178.669921875 293.166992188 166.169921875 307.5 146.502929688 c 0
 321.833007812 126.8359375 329 108.002929688 329 90.0029296875 c 0
 329 59.3359375 317.833007812 34.1689453125 295.5 14.501953125 c 0
 273.166992188 -5.1650390625 248 -14.998046875 220 -14.998046875 c 0
 188 -14.998046875 162.5 -5.498046875 143.5 13.501953125 c 0
 124.5 32.501953125 115 54.001953125 115 78.001953125 c 0
 115 116.001953125 137.333007812 153.001953125 182 189.001953125 c 0
 185.333007812 193.001953125 187.5 195.668945312 188.5 197.001953125 c 0
 189.5 198.334960938 188.333007812 201.66796875 185 207.000976562 c 2
 90 326.000976562 l 2
 74 349.333984375 54 363.666992188 30 369 c 2
 6 371 l 2
 3.3330078125 373.666992188 2.3330078125 378.333984375 3 385.000976562 c 0
 3.6669921875 391.66796875 5.333984375 395.334960938 8.0009765625 396.001953125 c 0
 55.333984375 394.001953125 87.0009765625 393.001953125 103.000976562 393.001953125 c 0
 118.333984375 393.001953125 149.333984375 394.001953125 196.000976562 396.001953125 c 0
 199.333984375 394.668945312 201.333984375 391.168945312 202.000976562 385.501953125 c 0
 202.66796875 379.834960938 201.000976562 375.001953125 197.000976562 371.001953125 c 2
 174.000976562 369.001953125 l 2
 160.66796875 365.668945312 153.66796875 361.8359375 153.000976562 357.502929688 c 0
 152.333984375 353.169921875 156.333984375 342.002929688 165.000976562 324.002929688 c 2
 213.000976562 254.002929688 l 2
 215.66796875 251.3359375 218.334960938 248.002929688 221.001953125 244.002929688 c 2
 229.001953125 232.002929688 l 1
 229.668945312 232.669921875 249.001953125 261.002929688 287.001953125 317.002929688 c 0
 304.334960938 343.669921875 300.66796875 361.002929688 276.000976562 369.002929688 c 1
 256.000976562 371.002929688 l 2
 252.66796875 374.3359375 251.66796875 379.168945312 253.000976562 385.501953125 c 0
 254.333984375 391.834960938 256.666992188 395.334960938 260 396.001953125 c 0
 291.333007812 394.001953125 318.333007812 393.001953125 341 393.001953125 c 0
 368.333007812 393.001953125 395.333007812 394.001953125 422 396.001953125 c 0
 426 394.001953125 428.333007812 390.334960938 429 385.001953125 c 0
 429.666992188 379.668945312 428 375.001953125 424 371.001953125 c 2
 401 369.001953125 l 2
 391 366.334960938 382.333007812 360.834960938 375 352.501953125 c 0
 367.666992188 344.168945312 363 339.3359375 361 338.002929688 c 0
 345 324.669921875 312 284.336914062 262 217.00390625 c 0
 258.666992188 213.00390625 256.333984375 209.50390625 255.000976562 206.50390625 c 0
 253.66796875 203.50390625 254.66796875 200.670898438 258.000976562 198.00390625 c 0
 261.333984375 195.336914062 266.333984375 190.669921875 273.000976562 184.002929688 c 0
225 13.0029296875 m 0
 257 19.0029296875 273 42.3359375 273 83.0029296875 c 0
 273 112.3359375 258 140.3359375 228 167.002929688 c 0
 224.666992188 170.3359375 221.666992188 171.168945312 219 169.501953125 c 0
 216.333007812 167.834960938 211 163.001953125 203 155.001953125 c 0
 178.333007812 134.334960938 166 110.001953125 166 82.001953125 c 0
 166 64.001953125 172.333007812 47.3349609375 185 32.001953125 c 0
 197.666992188 16.6689453125 211 10.3359375 225 13.0029296875 c 0
EndSplineSet
EndChar

StartChar: dollar
Encoding: 36 36 4
Width: 436
GlyphClass: 2
Flags: W
LayerCount: 2
Fore
SplineSet
181 578 m 2
 261.999023438 541.999023438 l 2
 279.999023438 534.666015625 293.999023438 535.166015625 303.999023438 543.499023438 c 0
 313.999023438 551.83203125 325.666015625 567.999023438 338.999023438 591.999023438 c 0
 340.999023438 595.999023438 344.166015625 597.666015625 348.499023438 596.999023438 c 0
 352.83203125 596.33203125 355.33203125 593.33203125 355.999023438 587.999023438 c 0
 357.999023438 555.33203125 349.666015625 528.33203125 330.999023438 506.999023438 c 0
 319.666015625 494.33203125 305.666015625 486.999023438 288.999023438 484.999023438 c 0
 272.33203125 482.999023438 256.33203125 484.666015625 240.999023438 489.999023438 c 2
 161.999023438 522.999023438 l 2
 134.666015625 534.999023438 106.333007812 518.666015625 77 473.999023438 c 0
 75 469.999023438 71.8330078125 468.999023438 67.5 470.999023438 c 0
 63.1669921875 472.999023438 60.6669921875 475.666015625 60 478.999023438 c 0
 57.3330078125 500.999023438 70 527.33203125 98 557.999023438 c 0
 106 568.666015625 118.166992188 576.333007812 134.5 581 c 0
 150.833007812 585.666992188 166.333007812 584.666992188 181 578 c 2
298.999023438 299.999023438 m 0
 300.999023438 314.666015625 295.665039062 328.668945312 282.998046875 342.001953125 c 0
 270.331054688 355.334960938 250.998046875 362.001953125 224.998046875 362.001953125 c 0
 205.665039062 362.001953125 182.998046875 352.001953125 156.998046875 332.001953125 c 0
 150.331054688 327.334960938 145.831054688 322.66796875 143.498046875 318.000976562 c 0
 141.165039062 313.333984375 139.998046875 303.666992188 139.998046875 289 c 2
 139.998046875 216 l 2
 139.998046875 213.333007812 140.331054688 211.166015625 140.998046875 209.499023438 c 0
 141.665039062 207.83203125 143.165039062 206.83203125 145.498046875 206.499023438 c 0
 147.831054688 206.166015625 149.6640625 205.666015625 150.997070312 204.999023438 c 0
 159.6640625 205.666015625 176.331054688 209.999023438 200.998046875 217.999023438 c 0
 261.665039062 241.999023438 294.33203125 269.33203125 298.999023438 299.999023438 c 0
68.998046875 106.001953125 m 2
 69 291.00390625 l 2
 69 328.336914062 65.1669921875 352.00390625 57.5 362.00390625 c 0
 49.8330078125 372.00390625 36.3330078125 371.336914062 17 360.00390625 c 0
 11.6669921875 356.670898438 8.6669921875 357.670898438 8 363.00390625 c 0
 7.3330078125 368.336914062 9.8330078125 375.00390625 15.5 383.00390625 c 0
 21.1669921875 391.00390625 29.333984375 396.670898438 40.0009765625 400.00390625 c 0
 65.333984375 409.336914062 84.333984375 410.336914062 97.0009765625 403.00390625 c 0
 109.66796875 395.670898438 121.334960938 384.670898438 132.001953125 370.00390625 c 0
 137.334960938 363.336914062 143.001953125 360.00390625 149.001953125 360.00390625 c 0
 154.334960938 360.00390625 165.66796875 367.336914062 183.000976562 382.00390625 c 0
 205.000976562 398.670898438 232.333984375 407.00390625 265.000976562 407.00390625 c 0
 297.000976562 407.00390625 322.66796875 399.336914062 342.000976562 384.00390625 c 0
 366.66796875 362.00390625 378.000976562 338.336914062 376.000976562 313.00390625 c 0
 373.333984375 289.00390625 363.166992188 268.670898438 345.5 252.00390625 c 0
 327.833007812 235.336914062 304.166015625 220.836914062 274.499023438 208.50390625 c 0
 244.83203125 196.170898438 207.665039062 185.00390625 162.998046875 175.00390625 c 0
 150.998046875 173.00390625 143.665039062 170.50390625 140.998046875 167.50390625 c 0
 138.331054688 164.50390625 136.998046875 156.336914062 136.998046875 143.00390625 c 2
 136.998046875 108.00390625 l 2
 136.998046875 74.6708984375 141.998046875 52.1708984375 151.998046875 40.50390625 c 0
 161.998046875 28.8369140625 183.665039062 22.669921875 216.998046875 22.0029296875 c 0
 245.665039062 22.0029296875 267.498046875 29.5029296875 282.498046875 44.5029296875 c 0
 297.498046875 59.5029296875 304.331054688 75.669921875 302.998046875 93.0029296875 c 0
 302.998046875 97.0029296875 301.665039062 102.502929688 298.998046875 109.502929688 c 0
 296.331054688 116.502929688 296.331054688 121.3359375 298.998046875 124.002929688 c 0
 316.998046875 136.669921875 336.331054688 143.002929688 356.998046875 143.002929688 c 0
 366.331054688 143.002929688 370.998046875 138.002929688 370.998046875 128.002929688 c 0
 370.998046875 109.3359375 363.498046875 88.5029296875 348.498046875 65.5029296875 c 0
 333.498046875 42.5029296875 311.331054688 23.0029296875 281.998046875 7.0029296875 c 0
 252.665039062 -8.9970703125 218.998046875 -15.9970703125 180.998046875 -13.9970703125 c 0
 142.998046875 -11.9970703125 115.165039062 -1.830078125 97.498046875 16.5029296875 c 0
 79.8310546875 34.8359375 70.3310546875 64.6689453125 68.998046875 106.001953125 c 2
EndSplineSet
EndChar

StartChar: percent
Encoding: 37 37 5
Width: 409
GlyphClass: 2
Flags: W
LayerCount: 2
Fore
SplineSet
158 26 m 0
 167.333007812 23.3330078125 179.001953125 22.666015625 193.001953125 23.9990234375 c 0
 217.001953125 25.9990234375 236.668945312 34.166015625 252.001953125 48.4990234375 c 0
 267.334960938 62.83203125 275.001953125 80.33203125 275.001953125 100.999023438 c 0
 274.334960938 120.33203125 268.001953125 138.499023438 256.001953125 155.499023438 c 0
 244.001953125 172.499023438 231.334960938 180.999023438 218.001953125 180.999023438 c 0
 211.334960938 181.666015625 204.334960938 180.666015625 197.001953125 177.999023438 c 0
 189.668945312 175.33203125 179.3359375 173.999023438 166.002929688 173.999023438 c 0
 155.3359375 173.999023438 148.168945312 178.83203125 144.501953125 188.499023438 c 0
 140.834960938 198.166015625 143.16796875 206.833007812 151.500976562 214.5 c 0
 159.833984375 222.166992188 172.666992188 224 190 220 c 0
 222.666992188 218 246.5 224.666992188 261.5 240 c 0
 276.5 255.333007812 282.333007812 275.333007812 279 300 c 0
 273 328.666992188 258.833007812 349.333984375 236.5 362.000976562 c 0
 214.166992188 374.66796875 188.666992188 379.334960938 160 376.001953125 c 0
 148 375.334960938 136 370.16796875 124 360.500976562 c 0
 112 350.833984375 105.666992188 342.666992188 105 336 c 0
 101.666992188 314 89.333984375 303 68.0009765625 303 c 0
 59.333984375 303 53.0009765625 306 49.0009765625 312 c 0
 45.0009765625 318 43.0009765625 324.666992188 43.0009765625 332 c 0
 43.0009765625 344.666992188 52.66796875 357.666992188 72.0009765625 371 c 0
 91.333984375 384.333007812 110.666992188 393.666015625 130 398.999023438 c 0
 146 404.33203125 167.333007812 407.33203125 194 407.999023438 c 0
 220.666992188 408.666015625 247.333984375 402.999023438 274.000976562 390.999023438 c 0
 296.66796875 377.666015625 312.66796875 364.999023438 322.000976562 352.999023438 c 0
 331.333984375 340.999023438 337.333984375 323.999023438 340.000976562 301.999023438 c 0
 344.000976562 279.33203125 335.16796875 258.999023438 313.500976562 240.999023438 c 0
 291.833984375 222.999023438 266.000976562 211.33203125 236.000976562 205.999023438 c 1
 314.000976562 192.666015625 354.000976562 154.999023438 356.000976562 92.9990234375 c 0
 357.333984375 63.666015625 345.166992188 39.4990234375 319.5 20.4990234375 c 0
 293.833007812 1.4990234375 260.333007812 -9.66796875 219 -13.0009765625 c 0
 177.666992188 -15.66796875 147.333984375 -13.66796875 128.000976562 -7.0009765625 c 0
 70.0009765625 11.666015625 40.0009765625 32.3330078125 38.0009765625 55 c 0
 36.66796875 61 38.16796875 67.8330078125 42.5009765625 75.5 c 0
 46.833984375 83.1669921875 53.0009765625 87 61.0009765625 87 c 0
 78.333984375 89 91.333984375 80 100.000976562 60 c 0
 101.333984375 52 107.666992188 44.8330078125 119 38.5 c 0
 130.333007812 32.1669921875 143.333007812 28 158 26 c 0
171.001953125 578 m 2
 252.000976562 541.999023438 l 2
 270.000976562 534.666015625 284.000976562 535.166015625 294.000976562 543.499023438 c 0
 304.000976562 551.83203125 315.66796875 567.999023438 329.000976562 591.999023438 c 0
 331.000976562 595.999023438 334.16796875 597.666015625 338.500976562 596.999023438 c 0
 342.833984375 596.33203125 345.333984375 593.33203125 346.000976562 587.999023438 c 0
 348.000976562 555.33203125 339.66796875 528.33203125 321.000976562 506.999023438 c 0
 309.66796875 494.33203125 295.66796875 486.999023438 279.000976562 484.999023438 c 0
 262.333984375 482.999023438 246.333984375 484.666015625 231.000976562 489.999023438 c 2
 152.000976562 522.999023438 l 2
 124.66796875 534.999023438 96.3349609375 518.666015625 67.001953125 473.999023438 c 0
 65.001953125 469.999023438 61.8349609375 468.999023438 57.501953125 470.999023438 c 0
 53.1689453125 472.999023438 50.6689453125 475.666015625 50.001953125 478.999023438 c 0
 47.3349609375 500.999023438 60.001953125 527.33203125 88.001953125 557.999023438 c 0
 96.001953125 568.666015625 108.168945312 576.333007812 124.501953125 581 c 0
 140.834960938 585.666992188 156.334960938 584.666992188 171.001953125 578 c 2
EndSplineSet
EndChar

StartChar: ampersand
Encoding: 38 38 6
Width: 290
GlyphClass: 2
Flags: W
LayerCount: 2
Fore
SplineSet
4 572 m 1
 284 572 l 1
 284 523 l 1
 4 523 l 1
 4 572 l 1
4 454 m 1
 284 454 l 1
 284 406 l 1
 4 406 l 1
 4 454 l 1
EndSplineSet
EndChar

StartChar: parenright
Encoding: 41 41 7
Width: 262
GlyphClass: 2
Flags: W
LayerCount: 2
Fore
SplineSet
88 600 m 2
 88 620.666992188 83.83203125 633.5 75.4990234375 638.5 c 0
 67.166015625 643.5 51.3330078125 646.666992188 28 648 c 2
 10 649 l 2
 8 652.333007812 7 656.166015625 7 660.499023438 c 0
 7 664.83203125 8.3330078125 667.665039062 11 668.998046875 c 0
 58.3330078125 685.665039062 104.333007812 705.998046875 149 729.998046875 c 1
 163 727.331054688 170 724.331054688 170 720.998046875 c 2
 162 623.998046875 l 1
 162 110.998046875 l 2
 162 74.998046875 164 52.1650390625 168 42.498046875 c 0
 172 32.8310546875 182.666992188 26.998046875 200 24.998046875 c 2
 232 21.998046875 l 2
 236 19.998046875 237.666992188 15.8310546875 237 9.498046875 c 0
 236.333007812 3.1650390625 234 -1.001953125 230 -3.001953125 c 0
 189.333007812 -1.001953125 154.333007812 -0.001953125 125 -0.001953125 c 0
 93.6669921875 -0.001953125 59 -1.001953125 21 -3.001953125 c 0
 17 -0.3349609375 14.6669921875 3.83203125 14 9.4990234375 c 0
 13.3330078125 15.166015625 15 19.3330078125 19 22 c 2
 50 25 l 2
 68 27 78.8330078125 32.5 82.5 41.5 c 0
 86.1669921875 50.5 88 73.6669921875 88 111 c 2
 88 600 l 2
96.9990234375 -62 m 0
 120.999023438 -62 142.500976562 -68.6630859375 161.500976562 -81.99609375 c 0
 180.500976562 -95.3291015625 190.333984375 -117.329101562 191.000976562 -147.99609375 c 0
 191.66796875 -180.663085938 181.500976562 -208.830078125 160.500976562 -232.497070312 c 0
 139.500976562 -256.1640625 112.66796875 -273.331054688 80.0009765625 -283.998046875 c 1
 70.0009765625 -276.665039062 67.333984375 -268.998046875 72.0009765625 -260.998046875 c 1
 121.333984375 -240.331054688 145.666992188 -211.998046875 145 -175.998046875 c 0
 144.333007812 -157.998046875 137.166015625 -144.831054688 123.499023438 -136.498046875 c 0
 109.83203125 -128.165039062 93.9990234375 -126.33203125 75.9990234375 -130.999023438 c 1
 57.9990234375 -129.666015625 48.666015625 -120.666015625 47.9990234375 -103.999023438 c 0
 47.9990234375 -92.666015625 51.666015625 -82.8330078125 58.9990234375 -74.5 c 0
 66.33203125 -66.1669921875 78.9990234375 -62 96.9990234375 -62 c 0
EndSplineSet
EndChar

StartChar: asterisk
Encoding: 42 42 8
Width: 423
GlyphClass: 2
Flags: W
LayerCount: 2
Fore
SplineSet
84 154 m 2
 282 154 l 2
 294.666992188 154 302.333984375 155.333007812 305.000976562 158 c 0
 307.66796875 160.666992188 309.000976562 168.666992188 309.000976562 182 c 0
 309.000976562 232.666992188 294.500976562 273.333984375 265.500976562 304.000976562 c 0
 236.500976562 334.66796875 195.66796875 350.000976562 143.000976562 350.000976562 c 0
 107.66796875 350.000976562 77.0009765625 333.66796875 51.0009765625 301.000976562 c 1
 40.333984375 297.66796875 34.333984375 301.66796875 33.0009765625 313.000976562 c 1
 49.0009765625 345.000976562 71.66796875 368.66796875 101.000976562 384.000976562 c 0
 130.333984375 399.333984375 160.000976562 407.000976562 190.000976562 407.000976562 c 0
 252.66796875 407.000976562 301.000976562 384.66796875 335.000976562 340.000976562 c 0
 363.000976562 303.333984375 377.000976562 260.000976562 377.000976562 210.000976562 c 0
 377.000976562 147.333984375 358.16796875 94.1669921875 320.500976562 50.5 c 0
 282.833984375 6.8330078125 234.666992188 -15 176 -15 c 0
 132.666992188 -15 98.5 -2.3330078125 73.5 23 c 0
 48.5 48.3330078125 34 81 30 121 c 0
 28.6669921875 135 28.6669921875 144 30 148 c 0
 31.3330078125 152 49.3330078125 154 84 154 c 2
291 125 m 2
 220.001953125 125.001953125 l 2
 155.334960938 125.001953125 118.66796875 121.334960938 110.000976562 114.001953125 c 0
 106.000976562 111.334960938 104.000976562 99.3349609375 104.000976562 78.001953125 c 0
 104.000976562 61.3349609375 111.16796875 46.66796875 125.500976562 34.0009765625 c 0
 139.833984375 21.333984375 160.333984375 15.0009765625 187.000976562 15.0009765625 c 0
 214.333984375 15.0009765625 239.666992188 27.66796875 263 53.0009765625 c 0
 286.333007812 78.333984375 298 100.666992188 298 120 c 0
 298 123.333007812 295.666992188 125 291 125 c 2
172.001953125 578.001953125 m 2
 253.000976562 542.000976562 l 2
 271.000976562 534.66796875 285.000976562 535.16796875 295.000976562 543.500976562 c 0
 305.000976562 551.833984375 316.66796875 568.000976562 330.000976562 592.000976562 c 0
 332.000976562 596.000976562 335.16796875 597.66796875 339.500976562 597.000976562 c 0
 343.833984375 596.333984375 346.333984375 593.333984375 347.000976562 588.000976562 c 0
 349.000976562 555.333984375 340.66796875 528.333984375 322.000976562 507.000976562 c 0
 310.66796875 494.333984375 296.66796875 487.000976562 280.000976562 485.000976562 c 0
 263.333984375 483.000976562 247.333984375 484.66796875 232.000976562 490.000976562 c 2
 153.000976562 523.000976562 l 2
 125.66796875 535.000976562 97.3349609375 518.66796875 68.001953125 474.000976562 c 0
 66.001953125 470.000976562 62.8349609375 469.000976562 58.501953125 471.000976562 c 0
 54.1689453125 473.000976562 51.6689453125 475.66796875 51.001953125 479.000976562 c 0
 48.3349609375 501.000976562 61.001953125 527.333984375 89.001953125 558.000976562 c 0
 97.001953125 568.66796875 109.168945312 576.334960938 125.501953125 581.001953125 c 0
 141.834960938 585.668945312 157.334960938 584.668945312 172.001953125 578.001953125 c 2
EndSplineSet
EndChar

StartChar: comma
Encoding: 44 44 9
Width: 301
GlyphClass: 2
Flags: W
LayerCount: 2
Fore
SplineSet
104 174 m 1
 19 174 l 1
 19 219 l 1
 104 219 l 1
 104 297 l 2
 104 320.333007812 103 336.166015625 101 344.499023438 c 0
 99 352.83203125 95.1669921875 358.665039062 89.5 361.998046875 c 0
 83.8330078125 365.331054688 73.3330078125 367.998046875 58 369.998046875 c 2
 31 372.998046875 l 2
 27.6669921875 374.998046875 26.333984375 378.998046875 27.0009765625 384.998046875 c 0
 27.66796875 390.998046875 29.66796875 394.331054688 33.0009765625 394.998046875 c 0
 95.66796875 393.665039062 131.66796875 392.998046875 141.000976562 392.998046875 c 0
 150.333984375 392.998046875 186.333984375 393.665039062 249.000976562 394.998046875 c 0
 253.000976562 394.331054688 255.000976562 390.998046875 255.000976562 384.998046875 c 0
 255.000976562 378.998046875 253.66796875 374.998046875 251.000976562 372.998046875 c 2
 223.000976562 369.998046875 l 2
 207.66796875 367.998046875 197.16796875 365.331054688 191.500976562 361.998046875 c 0
 185.833984375 358.665039062 182.166992188 352.83203125 180.5 344.499023438 c 0
 178.833007812 336.166015625 178 320.333007812 178 297 c 2
 178 219 l 1
 262 219 l 1
 262 174 l 1
 178 174 l 1
 178 94 l 2
 178 64 180.333007812 45.3330078125 185 38 c 0
 189.666992188 30.6669921875 202.333984375 25.6669921875 223.000976562 23 c 2
 251.000976562 20 l 2
 253.66796875 18 255.000976562 14.1669921875 255.000976562 8.5 c 0
 255.000976562 2.8330078125 253.000976562 -1 249.000976562 -3 c 0
 203.000976562 -1 167.000976562 0 141.000976562 0 c 0
 116.333984375 0 80.333984375 -1 33.0009765625 -3 c 0
 29.66796875 -1 27.66796875 2.8330078125 27.0009765625 8.5 c 0
 26.333984375 14.1669921875 27.6669921875 18 31 20 c 2
 58 23 l 2
 79.3330078125 26.3330078125 92.3330078125 31.5 97 38.5 c 0
 101.666992188 45.5 104 64 104 94 c 2
 104 174 l 1
119 578 m 2
 199.999023438 541.999023438 l 2
 217.999023438 534.666015625 231.999023438 535.166015625 241.999023438 543.499023438 c 0
 251.999023438 551.83203125 263.666015625 567.999023438 276.999023438 591.999023438 c 0
 278.999023438 595.999023438 282.166015625 597.666015625 286.499023438 596.999023438 c 0
 290.83203125 596.33203125 293.33203125 593.33203125 293.999023438 587.999023438 c 0
 295.999023438 555.33203125 287.666015625 528.33203125 268.999023438 506.999023438 c 0
 257.666015625 494.33203125 243.666015625 486.999023438 226.999023438 484.999023438 c 0
 210.33203125 482.999023438 194.33203125 484.666015625 178.999023438 489.999023438 c 2
 99.9990234375 522.999023438 l 2
 72.666015625 534.999023438 44.3330078125 518.666015625 15 473.999023438 c 0
 13 469.999023438 9.8330078125 468.999023438 5.5 470.999023438 c 0
 1.1669921875 472.999023438 -1.3330078125 475.666015625 -2 478.999023438 c 0
 -4.6669921875 500.999023438 8 527.33203125 36 557.999023438 c 0
 44 568.666015625 56.1669921875 576.333007812 72.5 581 c 0
 88.8330078125 585.666992188 104.333007812 584.666992188 119 578 c 2
EndSplineSet
EndChar

StartChar: hyphen
Encoding: 45 45 10
Width: 179
GlyphClass: 2
Flags: W
LayerCount: 2
Fore
SplineSet
166 181 m 1
 10 181 l 1
 10 229 l 1
 166 229 l 1
 166 181 l 1
EndSplineSet
EndChar

StartChar: period
Encoding: 46 46 11
Width: 423
GlyphClass: 2
Flags: W
LayerCount: 2
Fore
SplineSet
84 154 m 2
 282 154 l 2
 294.666992188 154 302.333984375 155.333007812 305.000976562 158 c 0
 307.66796875 160.666992188 309.000976562 168.666992188 309.000976562 182 c 0
 309.000976562 232.666992188 294.500976562 273.333984375 265.500976562 304.000976562 c 0
 236.500976562 334.66796875 195.66796875 350.000976562 143.000976562 350.000976562 c 0
 107.66796875 350.000976562 77.0009765625 333.66796875 51.0009765625 301.000976562 c 1
 40.333984375 297.66796875 34.333984375 301.66796875 33.0009765625 313.000976562 c 1
 49.0009765625 345.000976562 71.66796875 368.66796875 101.000976562 384.000976562 c 0
 130.333984375 399.333984375 160.000976562 407.000976562 190.000976562 407.000976562 c 0
 252.66796875 407.000976562 301.000976562 384.66796875 335.000976562 340.000976562 c 0
 363.000976562 303.333984375 377.000976562 260.000976562 377.000976562 210.000976562 c 0
 377.000976562 147.333984375 358.16796875 94.1669921875 320.500976562 50.5 c 0
 282.833984375 6.8330078125 234.666992188 -15 176 -15 c 0
 132.666992188 -15 98.5 -2.3330078125 73.5 23 c 0
 48.5 48.3330078125 34 81 30 121 c 0
 28.6669921875 135 28.6669921875 144 30 148 c 0
 31.3330078125 152 49.3330078125 154 84 154 c 2
291 125 m 2
 220.001953125 125.001953125 l 2
 155.334960938 125.001953125 118.66796875 121.334960938 110.000976562 114.001953125 c 0
 106.000976562 111.334960938 104.000976562 99.3349609375 104.000976562 78.001953125 c 0
 104.000976562 61.3349609375 111.16796875 46.66796875 125.500976562 34.0009765625 c 0
 139.833984375 21.333984375 160.333984375 15.0009765625 187.000976562 15.0009765625 c 0
 214.333984375 15.0009765625 239.666992188 27.66796875 263 53.0009765625 c 0
 286.333007812 78.333984375 298 100.666992188 298 120 c 0
 298 123.333007812 295.666992188 125 291 125 c 2
204.001953125 -59.998046875 m 1
 334.001953125 -275.998046875 l 1
 70.001953125 -275.998046875 l 1
 204.001953125 -59.998046875 l 1
203.001953125 -133.998046875 m 1
 130.001953125 -242.998046875 l 1
 274.001953125 -242.998046875 l 1
 203.001953125 -133.998046875 l 1
EndSplineSet
EndChar

StartChar: slash
Encoding: 47 47 12
Width: 141
GlyphClass: 2
Flags: W
LayerCount: 2
Fore
SplineSet
22 276 m 1
 120 276 l 1
 120 171 l 1
 22 171 l 1
 22 276 l 1
EndSplineSet
EndChar

StartChar: zero
Encoding: 48 48 13
Width: 440
GlyphClass: 2
Flags: W
LayerCount: 2
Fore
SplineSet
157 209 m 0
 147 216.333007812 135.168945312 229.99609375 121.501953125 249.99609375 c 0
 107.834960938 269.99609375 101.001953125 287.663085938 101.001953125 302.99609375 c 0
 101.001953125 333.663085938 112.168945312 358.830078125 134.501953125 378.497070312 c 0
 156.834960938 398.1640625 182.001953125 407.997070312 210.001953125 407.997070312 c 0
 242.668945312 407.997070312 268.3359375 398.997070312 287.002929688 380.997070312 c 0
 305.669921875 362.997070312 315.002929688 340.997070312 315.002929688 314.997070312 c 0
 315.002929688 276.997070312 292.669921875 239.997070312 248.002929688 203.997070312 c 0
 245.3359375 199.997070312 243.168945312 197.497070312 241.501953125 196.497070312 c 0
 239.834960938 195.497070312 239.501953125 194.330078125 240.501953125 192.997070312 c 0
 241.501953125 191.6640625 243.001953125 189.331054688 245.001953125 185.998046875 c 2
 340.001953125 66.998046875 l 2
 356.001953125 43.6650390625 376.001953125 29.33203125 400.001953125 23.9990234375 c 2
 424.001953125 21.9990234375 l 2
 426.668945312 19.9990234375 428.001953125 15.83203125 428.001953125 9.4990234375 c 0
 428.001953125 3.166015625 426.001953125 -1.0009765625 422.001953125 -3.0009765625 c 0
 375.334960938 -1.0009765625 343.66796875 -0.0009765625 327.000976562 -0.0009765625 c 0
 312.333984375 -0.0009765625 281.333984375 -1.0009765625 234.000976562 -3.0009765625 c 0
 230.66796875 -1.0009765625 229.000976562 3.166015625 229.000976562 9.4990234375 c 0
 229.000976562 15.83203125 230.333984375 19.9990234375 233.000976562 21.9990234375 c 2
 256.000976562 23.9990234375 l 2
 269.333984375 26.666015625 276.333984375 30.8330078125 277.000976562 36.5 c 0
 277.66796875 42.1669921875 273.66796875 53 265.000976562 69 c 2
 217.000976562 139 l 2
 214.333984375 143 211.833984375 146.666992188 209.500976562 150 c 0
 207.16796875 153.333007812 204.334960938 157 201.001953125 161 c 1
 200.334960938 160.333007812 181.001953125 132 143.001953125 76 c 0
 125.668945312 49.3330078125 129.3359375 32 154.002929688 24 c 1
 174.002929688 22 l 2
 177.3359375 18.6669921875 178.668945312 14.333984375 178.001953125 9.0009765625 c 0
 177.334960938 3.66796875 174.66796875 -0.33203125 170.000976562 -2.9990234375 c 0
 139.333984375 -0.9990234375 112.333984375 0.0009765625 89.0009765625 0.0009765625 c 0
 62.333984375 0.0009765625 35.333984375 -0.9990234375 8.0009765625 -2.9990234375 c 0
 4.0009765625 -0.9990234375 2.0009765625 3.16796875 2.0009765625 9.5009765625 c 0
 2.0009765625 15.833984375 3.333984375 20.0009765625 6.0009765625 22.0009765625 c 2
 29.0009765625 24.0009765625 l 2
 39.0009765625 26.66796875 47.0009765625 31.16796875 53.0009765625 37.5009765625 c 0
 59.0009765625 43.833984375 64.333984375 49.6669921875 69.0009765625 55 c 0
 85.0009765625 68.3330078125 118.000976562 108.666015625 168.000976562 175.999023438 c 0
 171.333984375 179.999023438 173.666992188 183.499023438 175 186.499023438 c 0
 176.333007812 189.499023438 175.5 192.33203125 172.5 194.999023438 c 0
 169.5 197.666015625 164.333007812 202.333007812 157 209 c 0
205.001953125 379.99609375 m 0
 173.001953125 373.99609375 157.001953125 350.662109375 157.001953125 309.995117188 c 0
 157.001953125 280.662109375 172.001953125 252.662109375 202.001953125 225.995117188 c 0
 206.001953125 222.662109375 209.168945312 221.829101562 211.501953125 223.49609375 c 0
 213.834960938 225.163085938 219.001953125 229.99609375 227.001953125 237.99609375 c 0
 251.668945312 258.663085938 264.001953125 282.99609375 264.001953125 310.99609375 c 0
 264.001953125 329.663085938 257.834960938 346.49609375 245.501953125 361.49609375 c 0
 233.168945312 376.49609375 219.668945312 382.663085938 205.001953125 379.99609375 c 0
177.001953125 577.995117188 m 2
 258.000976562 541.994140625 l 2
 276.000976562 534.661132812 290.000976562 535.161132812 300.000976562 543.494140625 c 0
 310.000976562 551.827148438 321.66796875 567.994140625 335.000976562 591.994140625 c 0
 337.000976562 595.994140625 340.16796875 597.661132812 344.500976562 596.994140625 c 0
 348.833984375 596.327148438 351.333984375 593.327148438 352.000976562 587.994140625 c 0
 354.000976562 555.327148438 345.66796875 528.327148438 327.000976562 506.994140625 c 0
 315.66796875 494.327148438 301.66796875 486.994140625 285.000976562 484.994140625 c 0
 268.333984375 482.994140625 252.333984375 484.661132812 237.000976562 489.994140625 c 2
 158.000976562 522.994140625 l 2
 130.66796875 534.994140625 102.334960938 518.661132812 73.001953125 473.994140625 c 0
 71.001953125 469.994140625 67.8349609375 468.994140625 63.501953125 470.994140625 c 0
 59.1689453125 472.994140625 56.6689453125 475.661132812 56.001953125 478.994140625 c 0
 53.3349609375 500.994140625 66.001953125 527.327148438 94.001953125 557.994140625 c 0
 102.001953125 568.661132812 114.168945312 576.328125 130.501953125 580.995117188 c 0
 146.834960938 585.662109375 162.334960938 584.662109375 177.001953125 577.995117188 c 2
216.000976562 -216.005859375 m 0
 178.000976562 -216.005859375 148.3359375 -206.005859375 127.002929688 -186.005859375 c 0
 105.669921875 -166.005859375 92.0029296875 -131.672851562 86.0029296875 -83.005859375 c 1
 92.669921875 -77.005859375 99.0029296875 -77.005859375 105.002929688 -83.005859375 c 1
 112.3359375 -110.338867188 124.168945312 -130.505859375 140.501953125 -143.505859375 c 0
 156.834960938 -156.505859375 181.66796875 -163.005859375 215.000976562 -163.005859375 c 0
 247.000976562 -163.005859375 270.833984375 -156.505859375 286.500976562 -143.505859375 c 0
 302.16796875 -130.505859375 315.66796875 -110.338867188 327.000976562 -83.005859375 c 0
 333.66796875 -77.005859375 340.000976562 -77.005859375 346.000976562 -83.005859375 c 1
 338.000976562 -126.338867188 322.66796875 -159.338867188 300.000976562 -182.005859375 c 0
 277.333984375 -204.672851562 249.333984375 -216.005859375 216.000976562 -216.005859375 c 0
EndSplineSet
EndChar

StartChar: three
Encoding: 51 51 14
Width: 290
GlyphClass: 2
Flags: W
LayerCount: 2
Fore
SplineSet
5 44 m 1
 285 44 l 1
 285 -7 l 1
 5 -7 l 1
 5 44 l 1
5 -76 m 1
 285 -76 l 1
 285 -126 l 1
 5 -126 l 1
 5 -76 l 1
EndSplineSet
EndChar

StartChar: four
Encoding: 52 52 15
Width: 273
GlyphClass: 2
Flags: W
LayerCount: 2
Fore
SplineSet
263 369 m 1
 222 343 l 1
 82 599 l 1
 123 624 l 1
 263 369 l 1
164 309 m 1
 123 284 l 1
 -17 539 l 1
 24 564 l 1
 164 309 l 1
EndSplineSet
EndChar

StartChar: five
Encoding: 53 53 16
Width: 172
GlyphClass: 2
Flags: W
LayerCount: 2
Fore
SplineSet
80 486 m 1
 39 462 l 1
 -18 565 l 1
 23 590 l 1
 80 486 l 1
163 335 m 1
 122 311 l 1
 65 414 l 1
 106 439 l 1
 163 335 l 1
EndSplineSet
EndChar

StartChar: six
Encoding: 54 54 17
Width: 226
GlyphClass: 2
Flags: W
LayerCount: 2
Fore
SplineSet
164 297 m 1
 28 297 l 1
 28 345 l 1
 153 345 l 1
 164 297 l 1
171 431 m 1
 200 576 l 1
 236 551 l 1
 208 406 l 1
 171 431 l 1
EndSplineSet
EndChar

StartChar: seven
Encoding: 55 55 18
Width: 175
GlyphClass: 2
Flags: W
LayerCount: 2
Fore
SplineSet
98 486 m 1
 155 590 l 1
 196 565 l 1
 139 462 l 1
 98 486 l 1
15 335 m 1
 72 439 l 1
 113 414 l 1
 56 311 l 1
 15 335 l 1
EndSplineSet
EndChar

StartChar: eight
Encoding: 56 56 19
Width: 409
GlyphClass: 2
Flags: W
LayerCount: 2
Fore
SplineSet
158 26 m 0
 167.333007812 23.3330078125 179.001953125 22.666015625 193.001953125 23.9990234375 c 0
 217.001953125 25.9990234375 236.668945312 34.166015625 252.001953125 48.4990234375 c 0
 267.334960938 62.83203125 275.001953125 80.33203125 275.001953125 100.999023438 c 0
 274.334960938 120.33203125 268.001953125 138.499023438 256.001953125 155.499023438 c 0
 244.001953125 172.499023438 231.334960938 180.999023438 218.001953125 180.999023438 c 0
 211.334960938 181.666015625 204.334960938 180.666015625 197.001953125 177.999023438 c 0
 189.668945312 175.33203125 179.3359375 173.999023438 166.002929688 173.999023438 c 0
 155.3359375 173.999023438 148.168945312 178.83203125 144.501953125 188.499023438 c 0
 140.834960938 198.166015625 143.16796875 206.833007812 151.500976562 214.5 c 0
 159.833984375 222.166992188 172.666992188 224 190 220 c 0
 222.666992188 218 246.5 224.666992188 261.5 240 c 0
 276.5 255.333007812 282.333007812 275.333007812 279 300 c 0
 273 328.666992188 258.833007812 349.333984375 236.5 362.000976562 c 0
 214.166992188 374.66796875 188.666992188 379.334960938 160 376.001953125 c 0
 148 375.334960938 136 370.16796875 124 360.500976562 c 0
 112 350.833984375 105.666992188 342.666992188 105 336 c 0
 101.666992188 314 89.333984375 303 68.0009765625 303 c 0
 59.333984375 303 53.0009765625 306 49.0009765625 312 c 0
 45.0009765625 318 43.0009765625 324.666992188 43.0009765625 332 c 0
 43.0009765625 344.666992188 52.66796875 357.666992188 72.0009765625 371 c 0
 91.333984375 384.333007812 110.666992188 393.666015625 130 398.999023438 c 0
 146 404.33203125 167.333007812 407.33203125 194 407.999023438 c 0
 220.666992188 408.666015625 247.333984375 402.999023438 274.000976562 390.999023438 c 0
 296.66796875 377.666015625 312.66796875 364.999023438 322.000976562 352.999023438 c 0
 331.333984375 340.999023438 337.333984375 323.999023438 340.000976562 301.999023438 c 0
 344.000976562 279.33203125 335.16796875 258.999023438 313.500976562 240.999023438 c 0
 291.833984375 222.999023438 266.000976562 211.33203125 236.000976562 205.999023438 c 1
 314.000976562 192.666015625 354.000976562 154.999023438 356.000976562 92.9990234375 c 0
 357.333984375 63.666015625 345.166992188 39.4990234375 319.5 20.4990234375 c 0
 293.833007812 1.4990234375 260.333007812 -9.66796875 219 -13.0009765625 c 0
 177.666992188 -15.66796875 147.333984375 -13.66796875 128.000976562 -7.0009765625 c 0
 70.0009765625 11.666015625 40.0009765625 32.3330078125 38.0009765625 55 c 0
 36.66796875 61 38.16796875 67.8330078125 42.5009765625 75.5 c 0
 46.833984375 83.1669921875 53.0009765625 87 61.0009765625 87 c 0
 78.333984375 89 91.333984375 80 100.000976562 60 c 0
 101.333984375 52 107.666992188 44.8330078125 119 38.5 c 0
 130.333007812 32.1669921875 143.333007812 28 158 26 c 0
201.001953125 -216 m 0
 163.001953125 -216 133.336914062 -206 112.00390625 -186 c 0
 90.6708984375 -166 77.00390625 -131.666992188 71.00390625 -83 c 1
 77.6708984375 -77 84.00390625 -77 90.00390625 -83 c 1
 97.3369140625 -110.333007812 109.169921875 -130.5 125.502929688 -143.5 c 0
 141.8359375 -156.5 166.668945312 -163 200.001953125 -163 c 0
 232.001953125 -163 255.834960938 -156.5 271.501953125 -143.5 c 0
 287.168945312 -130.5 300.668945312 -110.333007812 312.001953125 -83 c 0
 318.668945312 -77 325.001953125 -77 331.001953125 -83 c 1
 323.001953125 -126.333007812 307.668945312 -159.333007812 285.001953125 -182 c 0
 262.334960938 -204.666992188 234.334960938 -216 201.001953125 -216 c 0
167.00390625 578 m 2
 248.002929688 541.999023438 l 2
 266.002929688 534.666015625 280.002929688 535.166015625 290.002929688 543.499023438 c 0
 300.002929688 551.83203125 311.669921875 567.999023438 325.002929688 591.999023438 c 0
 327.002929688 595.999023438 330.169921875 597.666015625 334.502929688 596.999023438 c 0
 338.8359375 596.33203125 341.3359375 593.33203125 342.002929688 587.999023438 c 0
 344.002929688 555.33203125 335.669921875 528.33203125 317.002929688 506.999023438 c 0
 305.669921875 494.33203125 291.669921875 486.999023438 275.002929688 484.999023438 c 0
 258.3359375 482.999023438 242.3359375 484.666015625 227.002929688 489.999023438 c 2
 148.002929688 522.999023438 l 2
 120.669921875 534.999023438 92.3369140625 518.666015625 63.00390625 473.999023438 c 0
 61.00390625 469.999023438 57.8369140625 468.999023438 53.50390625 470.999023438 c 0
 49.1708984375 472.999023438 46.6708984375 475.666015625 46.00390625 478.999023438 c 0
 43.3369140625 500.999023438 56.00390625 527.33203125 84.00390625 557.999023438 c 0
 92.00390625 568.666015625 104.170898438 576.333007812 120.50390625 581 c 0
 136.836914062 585.666992188 152.336914062 584.666992188 167.00390625 578 c 2
EndSplineSet
EndChar

StartChar: nine
Encoding: 57 57 20
Width: 501
GlyphClass: 2
Flags: W
LayerCount: 2
Fore
SplineSet
248 407 m 0
 285.333007812 407 319.500976562 398.333007812 350.500976562 381 c 0
 381.500976562 363.666992188 406.000976562 339.333984375 424.000976562 308.000976562 c 0
 442.000976562 276.66796875 451.000976562 241.000976562 451.000976562 201.000976562 c 0
 451.000976562 138.333984375 431.333984375 86.6669921875 392.000976562 46 c 0
 352.66796875 5.3330078125 302.000976562 -15 240.000976562 -15 c 0
 182.000976562 -15 133.333984375 4.3330078125 94.0009765625 43 c 0
 54.66796875 81.6669921875 35.0009765625 131 35.0009765625 191 c 0
 35.0009765625 233 44.5009765625 270.166992188 63.5009765625 302.5 c 0
 82.5009765625 334.833007812 108.16796875 360.333007812 140.500976562 379 c 0
 172.833984375 397.666992188 208.666992188 407 248 407 c 0
365.000976562 185 m 0
 365.000976562 214.333007812 360.66796875 244.000976562 352.000976562 274.000976562 c 0
 343.333984375 304.000976562 329.166992188 328.66796875 309.5 348.000976562 c 0
 289.833007812 367.333984375 265.333007812 377.000976562 236 377.000976562 c 0
 202 377.000976562 174.333007812 361.833984375 153 331.500976562 c 0
 131.666992188 301.16796875 121 259.000976562 121 205.000976562 c 0
 121 154.333984375 132.333007812 110.166992188 155 72.5 c 0
 177.666992188 34.8330078125 209.333984375 16 250.000976562 16 c 0
 290.66796875 16 320.000976562 32.6669921875 338.000976562 66 c 0
 356.000976562 99.3330078125 365.000976562 139 365.000976562 185 c 0
222.000976562 578.000976562 m 2
 303 542 l 2
 321 534.666992188 335 535.166992188 345 543.5 c 0
 355 551.833007812 366.666992188 568 380 592 c 0
 382 596 385.166992188 597.666992188 389.5 597 c 0
 393.833007812 596.333007812 396.333007812 593.333007812 397 588 c 0
 399 555.333007812 390.666992188 528.333007812 372 507 c 0
 360.666992188 494.333007812 346.666992188 487 330 485 c 0
 313.333007812 483 297.333007812 484.666992188 282 490 c 2
 203 523 l 2
 175.666992188 535 147.333984375 518.666992188 118.000976562 474 c 0
 116.000976562 470 112.833984375 469 108.500976562 471 c 0
 104.16796875 473 101.66796875 475.666992188 101.000976562 479 c 0
 98.333984375 501 111.000976562 527.333007812 139.000976562 558 c 0
 147.000976562 568.666992188 159.16796875 576.333984375 175.500976562 581.000976562 c 0
 191.833984375 585.66796875 207.333984375 584.66796875 222.000976562 578.000976562 c 2
EndSplineSet
EndChar

StartChar: colon
Encoding: 58 58 21
Width: 532
GlyphClass: 2
Flags: W
LayerCount: 2
Fore
SplineSet
440 138 m 1
 440 -57.00390625 l 2
 440 -125.670898438 441 -169.670898438 443 -189.00390625 c 0
 445 -208.336914062 452.666992188 -220.669921875 466 -226.002929688 c 0
 488.666992188 -233.3359375 503.833984375 -234.002929688 511.500976562 -228.002929688 c 0
 519.16796875 -222.002929688 523.334960938 -210.669921875 524.001953125 -194.002929688 c 0
 524.668945312 -177.3359375 525.668945312 -167.002929688 527.001953125 -163.002929688 c 0
 529.001953125 -157.002929688 534.168945312 -152.8359375 542.501953125 -150.502929688 c 0
 550.834960938 -148.169921875 559.16796875 -148.502929688 567.500976562 -151.502929688 c 0
 575.833984375 -154.502929688 581.333984375 -160.002929688 584.000976562 -168.002929688 c 0
 592.66796875 -192.002929688 589.334960938 -211.669921875 574.001953125 -227.002929688 c 0
 548.001953125 -250.3359375 518.501953125 -263.8359375 485.501953125 -267.502929688 c 0
 452.501953125 -271.169921875 424.334960938 -259.502929688 401.001953125 -232.502929688 c 0
 377.668945312 -205.502929688 366.001953125 -161.669921875 366.001953125 -101.002929688 c 0
 366.668945312 -87.0029296875 367.001953125 -73.169921875 367.001953125 -59.5029296875 c 0
 367.001953125 -45.8359375 366.334960938 -31.0029296875 365.001953125 -15.0029296875 c 1
 355.668945312 -16.3359375 348.001953125 -17.0029296875 342.001953125 -17.0029296875 c 0
 321.334960938 -17.0029296875 309.66796875 -16.669921875 307.000976562 -16.0029296875 c 0
 285.000976562 -10.669921875 267.500976562 -0.169921875 254.500976562 15.4970703125 c 0
 241.500976562 31.1640625 235.000976562 49.6640625 235.000976562 70.9970703125 c 0
 235.000976562 100.330078125 243.500976562 124.830078125 260.500976562 144.497070312 c 0
 277.500976562 164.1640625 299.333984375 173.997070312 326.000976562 173.997070312 c 0
 343.333984375 173.997070312 356.666992188 170.6640625 366 163.997070312 c 1
 366 259.997070312 l 2
 366 325.997070312 334.666992188 358.997070312 272 358.997070312 c 0
 232.666992188 358.997070312 204.333984375 347.330078125 187.000976562 323.997070312 c 0
 177.000976562 311.997070312 172.000976562 292.330078125 172.000976562 264.997070312 c 2
 172.000976562 110.997070312 l 2
 172.000976562 77.6640625 173.000976562 55.6640625 175.000976562 44.9970703125 c 0
 177.000976562 34.330078125 182.000976562 27.6630859375 190.000976562 24.99609375 c 2
 216.000976562 21.99609375 l 2
 220.000976562 19.99609375 221.66796875 15.8291015625 221.000976562 9.49609375 c 0
 220.333984375 3.1630859375 218.000976562 -1.00390625 214.000976562 -3.00390625 c 0
 199.333984375 -1.00390625 173.000976562 -0.00390625 135.000976562 -0.00390625 c 0
 103.000976562 -0.00390625 69.0009765625 -1.00390625 33.0009765625 -3.00390625 c 0
 29.0009765625 -0.3369140625 26.66796875 3.830078125 26.0009765625 9.4970703125 c 0
 25.333984375 15.1640625 27.0009765625 19.3310546875 31.0009765625 21.998046875 c 2
 60.0009765625 24.998046875 l 2
 78.0009765625 26.998046875 88.833984375 32.498046875 92.5009765625 41.498046875 c 0
 96.16796875 50.498046875 98.0009765625 73.6650390625 98.0009765625 110.998046875 c 2
 98.0009765625 286.998046875 l 2
 98.0009765625 312.998046875 95.66796875 329.331054688 91.0009765625 335.998046875 c 0
 86.333984375 342.665039062 73.0009765625 348.665039062 51.0009765625 353.998046875 c 2
 42.0009765625 355.998046875 l 2
 40.0009765625 357.998046875 39.0009765625 360.831054688 39.0009765625 364.498046875 c 0
 39.0009765625 368.165039062 40.333984375 370.665039062 43.0009765625 371.998046875 c 0
 97.0009765625 380.665039062 137.333984375 400.33203125 164.000976562 430.999023438 c 1
 169.333984375 429.666015625 172.000976562 427.333007812 172.000976562 424 c 2
 172.000976562 367 l 2
 172.000976562 359.666992188 175.66796875 356 183.000976562 356 c 0
 209.66796875 372.666992188 233.66796875 385.333984375 255.000976562 394.000976562 c 0
 276.333984375 402.66796875 299.000976562 407.000976562 323.000976562 407.000976562 c 0
 362.333984375 407.000976562 391.666992188 395.66796875 411 373.000976562 c 0
 430.333007812 350.333984375 440 320.666992188 440 284 c 2
 440 139 l 1
 440 138 l 1
325 20.99609375 m 0
 338.333007812 20.99609375 349.669921875 25.328125 359.002929688 33.9951171875 c 0
 368.3359375 42.662109375 372.668945312 54.3291015625 372.001953125 68.99609375 c 0
 370.668945312 107.663085938 355.668945312 126.99609375 327.001953125 126.99609375 c 0
 308.334960938 126.99609375 294.66796875 117.99609375 286.000976562 99.99609375 c 0
 282.000976562 93.3291015625 280.000976562 84.3291015625 280.000976562 72.99609375 c 0
 280.000976562 58.3291015625 284.16796875 45.99609375 292.500976562 35.99609375 c 0
 300.833984375 25.99609375 311.666992188 20.99609375 325 20.99609375 c 0
EndSplineSet
EndChar

StartChar: semicolon
Encoding: 59 59 22
Width: 423
GlyphClass: 2
Flags: W
LayerCount: 2
Fore
SplineSet
84 154 m 2
 282 154 l 2
 294.666992188 154 302.333984375 155.333007812 305.000976562 158 c 0
 307.66796875 160.666992188 309.000976562 168.666992188 309.000976562 182 c 0
 309.000976562 232.666992188 294.500976562 273.333984375 265.500976562 304.000976562 c 0
 236.500976562 334.66796875 195.66796875 350.000976562 143.000976562 350.000976562 c 0
 107.66796875 350.000976562 77.0009765625 333.66796875 51.0009765625 301.000976562 c 1
 40.333984375 297.66796875 34.333984375 301.66796875 33.0009765625 313.000976562 c 1
 49.0009765625 345.000976562 71.66796875 368.66796875 101.000976562 384.000976562 c 0
 130.333984375 399.333984375 160.000976562 407.000976562 190.000976562 407.000976562 c 0
 252.66796875 407.000976562 301.000976562 384.66796875 335.000976562 340.000976562 c 0
 363.000976562 303.333984375 377.000976562 260.000976562 377.000976562 210.000976562 c 0
 377.000976562 147.333984375 358.16796875 94.1669921875 320.500976562 50.5 c 0
 282.833984375 6.8330078125 234.666992188 -15 176 -15 c 0
 132.666992188 -15 98.5 -2.3330078125 73.5 23 c 0
 48.5 48.3330078125 34 81 30 121 c 0
 28.6669921875 135 28.6669921875 144 30 148 c 0
 31.3330078125 152 49.3330078125 154 84 154 c 2
291 125 m 2
 220.001953125 125.001953125 l 2
 155.334960938 125.001953125 118.66796875 121.334960938 110.000976562 114.001953125 c 0
 106.000976562 111.334960938 104.000976562 99.3349609375 104.000976562 78.001953125 c 0
 104.000976562 61.3349609375 111.16796875 46.66796875 125.500976562 34.0009765625 c 0
 139.833984375 21.333984375 160.333984375 15.0009765625 187.000976562 15.0009765625 c 0
 214.333984375 15.0009765625 239.666992188 27.66796875 263 53.0009765625 c 0
 286.333007812 78.333984375 298 100.666992188 298 120 c 0
 298 123.333007812 295.666992188 125 291 125 c 2
202.001953125 -96.998046875 m 0
 226.668945312 -96.998046875 247.33203125 -104.999023438 263.999023438 -120.999023438 c 0
 280.666015625 -136.999023438 288.999023438 -157.999023438 288.999023438 -183.999023438 c 0
 288.999023438 -207.999023438 280.33203125 -228.33203125 262.999023438 -244.999023438 c 0
 245.666015625 -261.666015625 225.333007812 -269.999023438 202 -269.999023438 c 0
 178.666992188 -269.999023438 158.333984375 -261.33203125 141.000976562 -243.999023438 c 0
 123.66796875 -226.666015625 115.000976562 -206.666015625 115.000976562 -183.999023438 c 0
 115.000976562 -159.33203125 123.333984375 -138.665039062 140.000976562 -121.998046875 c 0
 156.66796875 -105.331054688 177.334960938 -96.998046875 202.001953125 -96.998046875 c 0
201.998046875 -124.999023438 m 0
 185.331054688 -124.999023438 171.331054688 -130.666015625 159.998046875 -141.999023438 c 0
 148.665039062 -153.33203125 142.998046875 -167.33203125 142.998046875 -183.999023438 c 0
 142.998046875 -199.33203125 148.998046875 -212.999023438 160.998046875 -224.999023438 c 0
 172.998046875 -236.999023438 186.665039062 -242.999023438 201.998046875 -242.999023438 c 0
 217.331054688 -242.999023438 230.998046875 -237.33203125 242.998046875 -225.999023438 c 0
 254.998046875 -214.666015625 260.998046875 -200.666015625 260.998046875 -183.999023438 c 0
 260.998046875 -165.999023438 255.331054688 -151.666015625 243.998046875 -140.999023438 c 0
 232.665039062 -130.33203125 218.665039062 -124.999023438 201.998046875 -124.999023438 c 0
EndSplineSet
EndChar

StartChar: less
Encoding: 60 60 23
Width: 393
GlyphClass: 2
Flags: W
LayerCount: 2
Fore
SplineSet
343 394 m 0
 347 390.666992188 348.666015625 385.331054688 347.999023438 377.998046875 c 0
 341.33203125 363.331054688 325.499023438 337.998046875 300.499023438 301.998046875 c 0
 275.499023438 265.998046875 251.666015625 231.331054688 228.999023438 197.998046875 c 0
 168.999023438 101.331054688 138.999023438 15.6640625 138.999023438 -59.0029296875 c 0
 138.999023438 -106.3359375 147.166015625 -146.168945312 163.499023438 -178.501953125 c 0
 179.83203125 -210.834960938 202.33203125 -227.001953125 230.999023438 -227.001953125 c 0
 252.999023438 -227.001953125 269.33203125 -218.834960938 279.999023438 -202.501953125 c 0
 290.666015625 -186.168945312 298.999023438 -162.001953125 304.999023438 -130.001953125 c 0
 309.666015625 -117.334960938 318.166015625 -109.334960938 330.499023438 -106.001953125 c 0
 342.83203125 -102.668945312 353.499023438 -104.668945312 362.499023438 -112.001953125 c 0
 371.499023438 -119.334960938 374.999023438 -129.66796875 372.999023438 -143.000976562 c 0
 364.33203125 -181.000976562 345.83203125 -211.16796875 317.499023438 -233.500976562 c 0
 289.166015625 -255.833984375 253.333007812 -267.666992188 210 -269 c 0
 164 -269.666992188 127.166992188 -253.833984375 99.5 -221.500976562 c 0
 71.8330078125 -189.16796875 58 -148.000976562 58 -98.0009765625 c 0
 58 -32.0009765625 84.6669921875 43.666015625 138 128.999023438 c 2
 184 200.999023438 l 2
 196.666992188 220.999023438 207.166992188 237.499023438 215.5 250.499023438 c 0
 223.833007812 263.499023438 231 274.666015625 237 283.999023438 c 0
 248.333007812 303.33203125 255.5 317.83203125 258.5 327.499023438 c 0
 261.5 337.166015625 258.666992188 341.999023438 250 341.999023438 c 2
 130 341.999023438 l 2
 118.666992188 341.999023438 109.166992188 341.666015625 101.5 340.999023438 c 0
 93.8330078125 340.33203125 86.8330078125 337.999023438 80.5 333.999023438 c 0
 74.1669921875 329.999023438 69.333984375 323.666015625 66.0009765625 314.999023438 c 0
 61.333984375 307.666015625 57.0009765625 299.166015625 53.0009765625 289.499023438 c 0
 49.0009765625 279.83203125 44.66796875 273.499023438 40.0009765625 270.499023438 c 0
 35.333984375 267.499023438 28.0009765625 268.33203125 18.0009765625 272.999023438 c 1
 28.66796875 310.999023438 39.66796875 362.999023438 51.0009765625 428.999023438 c 1
 57.66796875 431.666015625 64.66796875 431.666015625 72.0009765625 428.999023438 c 1
 74.0009765625 410.33203125 81.0009765625 399.33203125 93.0009765625 395.999023438 c 1
 129.66796875 404.666015625 159.500976562 420.999023438 182.500976562 444.999023438 c 0
 205.500976562 468.999023438 229.000976562 499.33203125 253.000976562 535.999023438 c 0
 254.333984375 540.666015625 259.166992188 543.333007812 267.5 544 c 0
 275.833007812 544.666992188 280.666015625 541 281.999023438 533 c 1
 254.666015625 486.333007812 233.333007812 455 218 439 c 0
 202.666992188 423 184.666992188 407.666992188 164 393 c 1
 279 393 l 2
 309.666992188 393 331 393.333007812 343 394 c 0
EndSplineSet
EndChar

StartChar: equal
Encoding: 61 61 24
Width: 215
GlyphClass: 2
Flags: W
LayerCount: 2
Fore
SplineSet
89 -95 m 1
 175 -95 l 1
 175 -149 l 1
 34 -149 l 1
 34 268 l 1
 89 268 l 1
 89 -95 l 1
EndSplineSet
EndChar

StartChar: greater
Encoding: 62 62 25
Width: 235
GlyphClass: 2
Flags: W
LayerCount: 2
Fore
SplineSet
50 192 m 0
 50 264.666992188 61 327.83203125 83 381.499023438 c 0
 105 435.166015625 141.666992188 475.666015625 193 502.999023438 c 0
 197.666992188 502.999023438 200 496.666015625 200 483.999023438 c 1
 171.333007812 459.33203125 150.166015625 432.999023438 136.499023438 404.999023438 c 0
 122.83203125 376.999023438 113.999023438 346.83203125 109.999023438 314.499023438 c 0
 105.999023438 282.166015625 103.999023438 241.333007812 103.999023438 192 c 0
 103.999023438 145.333007812 105.999023438 106 109.999023438 74 c 0
 113.999023438 42 122.83203125 12 136.499023438 -16 c 0
 150.166015625 -44 171.333007812 -70.3330078125 200 -95 c 1
 200 -107.666992188 197.666992188 -114 193 -114 c 0
 97.6669921875 -62.6669921875 50 39.3330078125 50 192 c 0
EndSplineSet
EndChar

StartChar: question
Encoding: 63 63 26
Width: 301
GlyphClass: 2
Flags: W
LayerCount: 2
Fore
SplineSet
115 -62 m 0
 139 -62 160.501953125 -68.6630859375 179.501953125 -81.99609375 c 0
 198.501953125 -95.3291015625 208.334960938 -117.329101562 209.001953125 -147.99609375 c 0
 209.668945312 -180.663085938 199.501953125 -208.830078125 178.501953125 -232.497070312 c 0
 157.501953125 -256.1640625 130.668945312 -273.331054688 98.001953125 -283.998046875 c 1
 88.001953125 -276.665039062 85.3349609375 -268.998046875 90.001953125 -260.998046875 c 1
 139.334960938 -240.331054688 163.66796875 -211.998046875 163.000976562 -175.998046875 c 0
 162.333984375 -157.998046875 155.166992188 -144.831054688 141.5 -136.498046875 c 0
 127.833007812 -128.165039062 112 -126.33203125 94 -130.999023438 c 1
 76 -129.666015625 66.6669921875 -120.666015625 66 -103.999023438 c 0
 66 -92.666015625 69.6669921875 -82.8330078125 77 -74.5 c 0
 84.3330078125 -66.1669921875 97 -62 115 -62 c 0
104.001953125 174.00390625 m 1
 19.001953125 174.00390625 l 1
 19.001953125 219.00390625 l 1
 104.001953125 219.00390625 l 1
 104.001953125 297.00390625 l 2
 104.001953125 320.336914062 103.001953125 336.169921875 101.001953125 344.502929688 c 0
 99.001953125 352.8359375 95.1689453125 358.668945312 89.501953125 362.001953125 c 0
 83.8349609375 365.334960938 73.3349609375 368.001953125 58.001953125 370.001953125 c 2
 31.001953125 373.001953125 l 2
 27.6689453125 375.001953125 26.3359375 379.001953125 27.0029296875 385.001953125 c 0
 27.669921875 391.001953125 29.669921875 394.334960938 33.0029296875 395.001953125 c 0
 95.669921875 393.668945312 131.669921875 393.001953125 141.002929688 393.001953125 c 0
 150.3359375 393.001953125 186.3359375 393.668945312 249.002929688 395.001953125 c 0
 253.002929688 394.334960938 255.002929688 391.001953125 255.002929688 385.001953125 c 0
 255.002929688 379.001953125 253.669921875 375.001953125 251.002929688 373.001953125 c 2
 223.002929688 370.001953125 l 2
 207.669921875 368.001953125 197.169921875 365.334960938 191.502929688 362.001953125 c 0
 185.8359375 358.668945312 182.168945312 352.8359375 180.501953125 344.502929688 c 0
 178.834960938 336.169921875 178.001953125 320.336914062 178.001953125 297.00390625 c 2
 178.001953125 219.00390625 l 1
 262.001953125 219.00390625 l 1
 262.001953125 174.00390625 l 1
 178.001953125 174.00390625 l 1
 178.001953125 94.00390625 l 2
 178.001953125 64.00390625 180.334960938 45.3369140625 185.001953125 38.00390625 c 0
 189.668945312 30.6708984375 202.3359375 25.6708984375 223.002929688 23.00390625 c 2
 251.002929688 20.00390625 l 2
 253.669921875 18.00390625 255.002929688 14.1708984375 255.002929688 8.50390625 c 0
 255.002929688 2.8369140625 253.002929688 -0.99609375 249.002929688 -2.99609375 c 0
 203.002929688 -0.99609375 167.002929688 0.00390625 141.002929688 0.00390625 c 0
 116.3359375 0.00390625 80.3359375 -0.99609375 33.0029296875 -2.99609375 c 0
 29.669921875 -0.99609375 27.669921875 2.8369140625 27.0029296875 8.50390625 c 0
 26.3359375 14.1708984375 27.6689453125 18.00390625 31.001953125 20.00390625 c 2
 58.001953125 23.00390625 l 2
 79.3349609375 26.3369140625 92.3349609375 31.50390625 97.001953125 38.50390625 c 0
 101.668945312 45.50390625 104.001953125 64.00390625 104.001953125 94.00390625 c 2
 104.001953125 174.00390625 l 1
119.001953125 578.00390625 m 2
 200.000976562 542.002929688 l 2
 218.000976562 534.669921875 232.000976562 535.169921875 242.000976562 543.502929688 c 0
 252.000976562 551.8359375 263.66796875 568.002929688 277.000976562 592.002929688 c 0
 279.000976562 596.002929688 282.16796875 597.669921875 286.500976562 597.002929688 c 0
 290.833984375 596.3359375 293.333984375 593.3359375 294.000976562 588.002929688 c 0
 296.000976562 555.3359375 287.66796875 528.3359375 269.000976562 507.002929688 c 0
 257.66796875 494.3359375 243.66796875 487.002929688 227.000976562 485.002929688 c 0
 210.333984375 483.002929688 194.333984375 484.669921875 179.000976562 490.002929688 c 2
 100.000976562 523.002929688 l 2
 72.66796875 535.002929688 44.3349609375 518.669921875 15.001953125 474.002929688 c 0
 13.001953125 470.002929688 9.8349609375 469.002929688 5.501953125 471.002929688 c 0
 1.1689453125 473.002929688 -1.3310546875 475.669921875 -1.998046875 479.002929688 c 0
 -4.6650390625 501.002929688 8.001953125 527.3359375 36.001953125 558.002929688 c 0
 44.001953125 568.669921875 56.1689453125 576.336914062 72.501953125 581.00390625 c 0
 88.8349609375 585.670898438 104.334960938 584.670898438 119.001953125 578.00390625 c 2
EndSplineSet
EndChar

StartChar: at
Encoding: 64 64 27
Width: 440
GlyphClass: 2
Flags: W
LayerCount: 2
Fore
SplineSet
157 209 m 0
 147 216.333007812 135.168945312 229.99609375 121.501953125 249.99609375 c 0
 107.834960938 269.99609375 101.001953125 287.663085938 101.001953125 302.99609375 c 0
 101.001953125 333.663085938 112.168945312 358.830078125 134.501953125 378.497070312 c 0
 156.834960938 398.1640625 182.001953125 407.997070312 210.001953125 407.997070312 c 0
 242.668945312 407.997070312 268.3359375 398.997070312 287.002929688 380.997070312 c 0
 305.669921875 362.997070312 315.002929688 340.997070312 315.002929688 314.997070312 c 0
 315.002929688 276.997070312 292.669921875 239.997070312 248.002929688 203.997070312 c 0
 245.3359375 199.997070312 243.168945312 197.497070312 241.501953125 196.497070312 c 0
 239.834960938 195.497070312 239.501953125 194.330078125 240.501953125 192.997070312 c 0
 241.501953125 191.6640625 243.001953125 189.331054688 245.001953125 185.998046875 c 2
 340.001953125 66.998046875 l 2
 356.001953125 43.6650390625 376.001953125 29.33203125 400.001953125 23.9990234375 c 2
 424.001953125 21.9990234375 l 2
 426.668945312 19.9990234375 428.001953125 15.83203125 428.001953125 9.4990234375 c 0
 428.001953125 3.166015625 426.001953125 -1.0009765625 422.001953125 -3.0009765625 c 0
 375.334960938 -1.0009765625 343.66796875 -0.0009765625 327.000976562 -0.0009765625 c 0
 312.333984375 -0.0009765625 281.333984375 -1.0009765625 234.000976562 -3.0009765625 c 0
 230.66796875 -1.0009765625 229.000976562 3.166015625 229.000976562 9.4990234375 c 0
 229.000976562 15.83203125 230.333984375 19.9990234375 233.000976562 21.9990234375 c 2
 256.000976562 23.9990234375 l 2
 269.333984375 26.666015625 276.333984375 30.8330078125 277.000976562 36.5 c 0
 277.66796875 42.1669921875 273.66796875 53 265.000976562 69 c 2
 217.000976562 139 l 2
 214.333984375 143 211.833984375 146.666992188 209.500976562 150 c 0
 207.16796875 153.333007812 204.334960938 157 201.001953125 161 c 1
 200.334960938 160.333007812 181.001953125 132 143.001953125 76 c 0
 125.668945312 49.3330078125 129.3359375 32 154.002929688 24 c 1
 174.002929688 22 l 2
 177.3359375 18.6669921875 178.668945312 14.333984375 178.001953125 9.0009765625 c 0
 177.334960938 3.66796875 174.66796875 -0.33203125 170.000976562 -2.9990234375 c 0
 139.333984375 -0.9990234375 112.333984375 0.0009765625 89.0009765625 0.0009765625 c 0
 62.333984375 0.0009765625 35.333984375 -0.9990234375 8.0009765625 -2.9990234375 c 0
 4.0009765625 -0.9990234375 2.0009765625 3.16796875 2.0009765625 9.5009765625 c 0
 2.0009765625 15.833984375 3.333984375 20.0009765625 6.0009765625 22.0009765625 c 2
 29.0009765625 24.0009765625 l 2
 39.0009765625 26.66796875 47.0009765625 31.16796875 53.0009765625 37.5009765625 c 0
 59.0009765625 43.833984375 64.333984375 49.6669921875 69.0009765625 55 c 0
 85.0009765625 68.3330078125 118.000976562 108.666015625 168.000976562 175.999023438 c 0
 171.333984375 179.999023438 173.666992188 183.499023438 175 186.499023438 c 0
 176.333007812 189.499023438 175.5 192.33203125 172.5 194.999023438 c 0
 169.5 197.666015625 164.333007812 202.333007812 157 209 c 0
205.001953125 379.99609375 m 0
 173.001953125 373.99609375 157.001953125 350.662109375 157.001953125 309.995117188 c 0
 157.001953125 280.662109375 172.001953125 252.662109375 202.001953125 225.995117188 c 0
 206.001953125 222.662109375 209.168945312 221.829101562 211.501953125 223.49609375 c 0
 213.834960938 225.163085938 219.001953125 229.99609375 227.001953125 237.99609375 c 0
 251.668945312 258.663085938 264.001953125 282.99609375 264.001953125 310.99609375 c 0
 264.001953125 329.663085938 257.834960938 346.49609375 245.501953125 361.49609375 c 0
 233.168945312 376.49609375 219.668945312 382.663085938 205.001953125 379.99609375 c 0
177.001953125 577.995117188 m 2
 258.000976562 541.994140625 l 2
 276.000976562 534.661132812 290.000976562 535.161132812 300.000976562 543.494140625 c 0
 310.000976562 551.827148438 321.66796875 567.994140625 335.000976562 591.994140625 c 0
 337.000976562 595.994140625 340.16796875 597.661132812 344.500976562 596.994140625 c 0
 348.833984375 596.327148438 351.333984375 593.327148438 352.000976562 587.994140625 c 0
 354.000976562 555.327148438 345.66796875 528.327148438 327.000976562 506.994140625 c 0
 315.66796875 494.327148438 301.66796875 486.994140625 285.000976562 484.994140625 c 0
 268.333984375 482.994140625 252.333984375 484.661132812 237.000976562 489.994140625 c 2
 158.000976562 522.994140625 l 2
 130.66796875 534.994140625 102.334960938 518.661132812 73.001953125 473.994140625 c 0
 71.001953125 469.994140625 67.8349609375 468.994140625 63.501953125 470.994140625 c 0
 59.1689453125 472.994140625 56.6689453125 475.661132812 56.001953125 478.994140625 c 0
 53.3349609375 500.994140625 66.001953125 527.327148438 94.001953125 557.994140625 c 0
 102.001953125 568.661132812 114.168945312 576.328125 130.501953125 580.995117188 c 0
 146.834960938 585.662109375 162.334960938 584.662109375 177.001953125 577.995117188 c 2
194.000976562 -62.005859375 m 0
 218.000976562 -62.005859375 239.502929688 -68.6689453125 258.502929688 -82.001953125 c 0
 277.502929688 -95.3349609375 287.3359375 -117.334960938 288.002929688 -148.001953125 c 0
 288.669921875 -180.668945312 278.502929688 -208.8359375 257.502929688 -232.502929688 c 0
 236.502929688 -256.169921875 209.669921875 -273.336914062 177.002929688 -284.00390625 c 1
 167.002929688 -276.670898438 164.3359375 -269.00390625 169.002929688 -261.00390625 c 1
 218.3359375 -240.336914062 242.668945312 -212.00390625 242.001953125 -176.00390625 c 0
 241.334960938 -158.00390625 234.16796875 -144.836914062 220.500976562 -136.50390625 c 0
 206.833984375 -128.170898438 191.000976562 -126.337890625 173.000976562 -131.004882812 c 1
 155.000976562 -129.671875 145.66796875 -120.671875 145.000976562 -104.004882812 c 0
 145.000976562 -92.671875 148.66796875 -82.8388671875 156.000976562 -74.505859375 c 0
 163.333984375 -66.1728515625 176.000976562 -62.005859375 194.000976562 -62.005859375 c 0
EndSplineSet
EndChar

StartChar: A
Encoding: 65 65 28
Width: 267
GlyphClass: 2
Flags: W
LayerCount: 2
Fore
SplineSet
-17 576 m 1
 100 576 l 1
 100 526 l 1
 -17 526 l 1
 -17 576 l 1
168 576 m 1
 283 576 l 1
 283 526 l 1
 168 526 l 1
 168 576 l 1
EndSplineSet
EndChar

StartChar: B
Encoding: 66 66 29
Width: 534
GlyphClass: 2
Flags: W
LayerCount: 2
Fore
SplineSet
186 -10 m 1
 173.001953125 -27.0009765625 l 2
 167.668945312 -36.333984375 170.668945312 -44.0009765625 182.001953125 -50.0009765625 c 0
 212.668945312 -71.333984375 228.001953125 -95.0009765625 228.001953125 -121.000976562 c 0
 228.001953125 -146.333984375 217.501953125 -167.333984375 196.501953125 -184.000976562 c 0
 175.501953125 -200.66796875 151.334960938 -209.000976562 124.001953125 -209.000976562 c 0
 85.3349609375 -209.000976562 66.001953125 -197.66796875 66.001953125 -175.000976562 c 0
 66.001953125 -168.333984375 68.3349609375 -162.333984375 73.001953125 -157.000976562 c 0
 77.6689453125 -151.66796875 83.6689453125 -149.000976562 91.001953125 -149.000976562 c 0
 99.001953125 -149.000976562 108.834960938 -153.833984375 120.501953125 -163.500976562 c 0
 132.168945312 -173.16796875 140.001953125 -178.000976562 144.001953125 -178.000976562 c 0
 162.001953125 -178.000976562 171.001953125 -167.66796875 171.001953125 -147.000976562 c 0
 171.001953125 -133.66796875 164.668945312 -120.66796875 152.001953125 -108.000976562 c 0
 139.334960938 -95.333984375 124.66796875 -85.6669921875 108.000976562 -79 c 1
 108.000976562 -74 l 1
 157.000976562 0 l 1
 139.000976562 6.6669921875 123.333984375 10.6669921875 110.000976562 12 c 0
 104.66796875 12.6669921875 96.3349609375 5 85.001953125 -11 c 0
 84.3349609375 -11.6669921875 83.3349609375 -12 82.001953125 -12 c 0
 77.3349609375 -12 74.001953125 -10 72.001953125 -6 c 0
 76.001953125 11.3330078125 78.001953125 42.3330078125 78.001953125 87 c 2
 78.001953125 600 l 2
 78.001953125 620.666992188 74.001953125 633.333984375 66.001953125 638.000976562 c 0
 58.001953125 642.66796875 42.3349609375 645.66796875 19.001953125 647.000976562 c 2
 1.001953125 649.000976562 l 2
 -0.998046875 652.333984375 -1.998046875 656.166992188 -1.998046875 660.5 c 0
 -1.998046875 664.833007812 -0.6650390625 667.666015625 2.001953125 668.999023438 c 0
 45.3349609375 683.666015625 91.001953125 703.999023438 139.001953125 729.999023438 c 0
 141.001953125 731.33203125 145.001953125 730.665039062 151.001953125 727.998046875 c 0
 157.001953125 725.331054688 160.001953125 722.998046875 160.001953125 720.998046875 c 2
 152.001953125 603.998046875 l 1
 152.001953125 394.998046875 l 2
 152.001953125 380.998046875 155.334960938 373.998046875 162.001953125 373.998046875 c 0
 202.668945312 395.998046875 241.001953125 406.998046875 277.001953125 406.998046875 c 0
 315.001953125 406.998046875 348.334960938 398.331054688 377.001953125 380.998046875 c 0
 405.668945312 363.665039062 428.001953125 340.33203125 444.001953125 310.999023438 c 0
 460.001953125 281.666015625 468.001953125 248.333007812 468.001953125 211 c 0
 468.001953125 169 458.168945312 130.5 438.501953125 95.5 c 0
 418.834960938 60.5 391.66796875 33.5 357.000976562 14.5 c 0
 322.333984375 -4.5 282.666992188 -14 238 -14 c 0
 223.333007812 -14 206 -12.6669921875 186 -10 c 1
150.001953125 290.999023438 m 2
 150.001953125 134.998046875 l 2
 150.001953125 98.998046875 159.001953125 70.3310546875 177.001953125 48.998046875 c 0
 195.001953125 26.998046875 220.334960938 15.998046875 253.001953125 15.998046875 c 0
 297.001953125 15.998046875 329.834960938 31.8310546875 351.501953125 63.498046875 c 0
 373.168945312 95.1650390625 384.001953125 134.665039062 384.001953125 181.998046875 c 0
 384.001953125 235.998046875 370.668945312 279.831054688 344.001953125 313.498046875 c 0
 317.334960938 347.165039062 280.001953125 363.998046875 232.001953125 363.998046875 c 0
 204.001953125 363.998046875 181.334960938 358.998046875 164.001953125 348.998046875 c 0
 154.668945312 341.665039062 150.001953125 322.33203125 150.001953125 290.999023438 c 2
177.001953125 -323.001953125 m 0
 163.668945312 -323.001953125 152.501953125 -319.169921875 143.501953125 -311.502929688 c 0
 134.501953125 -303.8359375 130.001953125 -292.668945312 130.001953125 -278.001953125 c 0
 129.334960938 -264.001953125 133.501953125 -252.501953125 142.501953125 -243.501953125 c 0
 151.501953125 -234.501953125 163.001953125 -230.001953125 177.001953125 -230.001953125 c 0
 191.001953125 -230.001953125 202.168945312 -234.501953125 210.501953125 -243.501953125 c 0
 218.834960938 -252.501953125 223.001953125 -263.001953125 223.001953125 -275.001953125 c 0
 223.001953125 -289.001953125 218.834960938 -300.501953125 210.501953125 -309.501953125 c 0
 202.168945312 -318.501953125 191.001953125 -323.001953125 177.001953125 -323.001953125 c 0
353.001953125 -323.002929688 m 0
 339.668945312 -323.002929688 328.334960938 -319.168945312 319.001953125 -311.501953125 c 0
 309.668945312 -303.834960938 305.001953125 -292.66796875 305.001953125 -278.000976562 c 0
 305.001953125 -264.000976562 309.501953125 -252.500976562 318.501953125 -243.500976562 c 0
 327.501953125 -234.500976562 339.001953125 -230.000976562 353.001953125 -230.000976562 c 0
 367.001953125 -230.000976562 378.001953125 -234.333984375 386.001953125 -243.000976562 c 0
 394.001953125 -251.66796875 398.001953125 -262.334960938 398.001953125 -275.001953125 c 0
 398.001953125 -289.668945312 394.001953125 -301.3359375 386.001953125 -310.002929688 c 0
 378.001953125 -318.669921875 367.001953125 -323.002929688 353.001953125 -323.002929688 c 0
EndSplineSet
EndChar

StartChar: C
Encoding: 67 67 30
Width: 621
GlyphClass: 2
Flags: W
LayerCount: 2
Fore
SplineSet
45 326 m 0
 45 378.666992188 54.66796875 428.333984375 74.0009765625 475.000976562 c 0
 93.333984375 521.66796875 119.333984375 559.66796875 152.000976562 589.000976562 c 0
 213.333984375 645.66796875 290.000976562 674.000976562 382.000976562 674.000976562 c 0
 436.000976562 674.000976562 486.000976562 666.000976562 532.000976562 650.000976562 c 0
 545.333984375 647.333984375 553.333984375 646.333984375 556.000976562 647.000976562 c 1
 558.000976562 601.66796875 562.000976562 552.66796875 568.000976562 500.000976562 c 0
 566.000976562 496.66796875 562.500976562 494.66796875 557.500976562 494.000976562 c 0
 552.500976562 493.333984375 548.333984375 494.666992188 545.000976562 498 c 0
 526.333984375 595.333007812 468.333984375 644 371.000976562 644 c 0
 301.66796875 644 244.16796875 618 198.500976562 566 c 0
 152.833984375 514 130.000976562 438.666992188 130.000976562 340 c 0
 130.000976562 238 154.000976562 158.333007812 202.000976562 101 c 0
 250.000976562 43.6669921875 310.333984375 15 383.000976562 15 c 0
 431.66796875 15 470.334960938 29.3330078125 499.001953125 58 c 0
 527.668945312 86.6669921875 548.001953125 120 560.001953125 158 c 0
 562.668945312 160.666992188 566.668945312 161.666992188 572.001953125 161 c 0
 577.334960938 160.333007812 581.001953125 157.666015625 583.001953125 152.999023438 c 0
 579.668945312 127.666015625 573.501953125 100.833007812 564.501953125 72.5 c 0
 555.501953125 44.1669921875 548.001953125 25.6669921875 542.001953125 17 c 1
 532.668945312 15 522.668945312 11.6669921875 512.001953125 7 c 0
 475.334960938 -8.3330078125 430.66796875 -16 378.000976562 -16 c 0
 293.333984375 -16 222.666992188 6 166 50 c 0
 85.3330078125 116.666992188 45 208.666992188 45 326 c 0
358.000976562 -97 m 0
 382.66796875 -97 403.331054688 -105.000976562 419.998046875 -121.000976562 c 0
 436.665039062 -137.000976562 444.998046875 -158.000976562 444.998046875 -184.000976562 c 0
 444.998046875 -208.000976562 436.331054688 -228.333984375 418.998046875 -245.000976562 c 0
 401.665039062 -261.66796875 381.33203125 -270.000976562 357.999023438 -270.000976562 c 0
 334.666015625 -270.000976562 314.333007812 -261.333984375 297 -244.000976562 c 0
 279.666992188 -226.66796875 271 -206.66796875 271 -184.000976562 c 0
 271 -159.333984375 279.333007812 -138.666992188 296 -122 c 0
 312.666992188 -105.333007812 333.333984375 -97 358.000976562 -97 c 0
357.997070312 -125.000976562 m 0
 341.330078125 -125.000976562 327.330078125 -130.66796875 315.997070312 -142.000976562 c 0
 304.6640625 -153.333984375 298.997070312 -167.333984375 298.997070312 -184.000976562 c 0
 298.997070312 -199.333984375 304.997070312 -213.000976562 316.997070312 -225.000976562 c 0
 328.997070312 -237.000976562 342.6640625 -243.000976562 357.997070312 -243.000976562 c 0
 373.330078125 -243.000976562 386.997070312 -237.333984375 398.997070312 -226.000976562 c 0
 410.997070312 -214.66796875 416.997070312 -200.66796875 416.997070312 -184.000976562 c 0
 416.997070312 -166.000976562 411.330078125 -151.66796875 399.997070312 -141.000976562 c 0
 388.6640625 -130.333984375 374.6640625 -125.000976562 357.997070312 -125.000976562 c 0
EndSplineSet
EndChar

StartChar: D
Encoding: 68 68 31
Width: 527
GlyphClass: 2
Flags: W
LayerCount: 2
Fore
SplineSet
80 -237 m 0
 82 -179.666992188 83.6728515625 -83.005859375 85.005859375 52.994140625 c 0
 86.3388671875 188.994140625 86.3388671875 263.661132812 85.005859375 276.994140625 c 0
 85.005859375 303.661132812 84.6728515625 321.994140625 84.005859375 331.994140625 c 0
 83.3388671875 341.994140625 81.171875 349.161132812 77.5048828125 353.494140625 c 0
 73.837890625 357.827148438 66.337890625 360.994140625 55.0048828125 362.994140625 c 2
 35.0048828125 366.994140625 l 2
 32.337890625 369.661132812 31.337890625 373.661132812 32.0048828125 378.994140625 c 0
 32.671875 384.327148438 34.3388671875 387.327148438 37.005859375 387.994140625 c 0
 87.005859375 389.994140625 125.338867188 396.994140625 152.005859375 408.994140625 c 0
 158.005859375 408.327148438 161.338867188 405.994140625 162.005859375 401.994140625 c 0
 160.005859375 383.327148438 159.005859375 353.66015625 159.005859375 312.993164062 c 2
 159.005859375 146.993164062 l 2
 159.005859375 108.993164062 165.672851562 80.16015625 179.005859375 60.4931640625 c 0
 192.338867188 40.826171875 216.671875 30.9931640625 252.004882812 30.9931640625 c 0
 282.004882812 30.9931640625 309.004882812 41.326171875 333.004882812 61.9931640625 c 0
 346.337890625 73.9931640625 353.004882812 91.326171875 353.004882812 113.993164062 c 2
 353.004882812 283.993164062 l 2
 353.004882812 317.993164062 351.004882812 338.826171875 347.004882812 346.493164062 c 0
 343.004882812 354.16015625 332.671875 359.66015625 316.004882812 362.993164062 c 2
 295.004882812 366.993164062 l 2
 291.671875 368.993164062 290.004882812 372.826171875 290.004882812 378.493164062 c 0
 290.004882812 384.16015625 292.004882812 387.327148438 296.004882812 387.994140625 c 0
 358.671875 390.661132812 400.338867188 397.661132812 421.005859375 408.994140625 c 0
 426.338867188 407.661132812 429.338867188 405.328125 430.005859375 401.995117188 c 0
 428.005859375 381.328125 427.005859375 351.661132812 427.005859375 312.994140625 c 2
 427.005859375 145.994140625 l 2
 427.005859375 103.994140625 428.838867188 75.3271484375 432.505859375 59.994140625 c 0
 436.172851562 44.6611328125 444.672851562 36.994140625 458.005859375 36.994140625 c 0
 468.672851562 36.994140625 481.672851562 38.6611328125 497.005859375 41.994140625 c 0
 498.338867188 40.6611328125 499.671875 37.828125 501.004882812 33.4951171875 c 0
 502.337890625 29.162109375 502.337890625 24.8291015625 501.004882812 20.49609375 c 0
 499.671875 16.1630859375 498.004882812 13.6630859375 496.004882812 12.99609375 c 0
 499.337890625 -53.00390625 510.337890625 -108.670898438 529.004882812 -154.00390625 c 1
 534.337890625 -182.00390625 532.670898438 -196.670898438 524.00390625 -198.00390625 c 0
 515.336914062 -199.336914062 496.336914062 -197.169921875 467.00390625 -191.502929688 c 0
 437.670898438 -185.8359375 418.00390625 -188.668945312 408.00390625 -200.001953125 c 1
 395.336914062 -204.668945312 384.669921875 -204.668945312 376.002929688 -200.001953125 c 0
 367.3359375 -195.334960938 362.668945312 -187.66796875 362.001953125 -177.000976562 c 0
 361.334960938 -166.333984375 364.334960938 -156.666992188 371.001953125 -148 c 0
 379.001953125 -138 387.668945312 -133.333007812 397.001953125 -134 c 0
 406.334960938 -134.666992188 418.16796875 -137.166992188 432.500976562 -141.5 c 0
 446.833984375 -145.833007812 456.333984375 -147.333007812 461.000976562 -146 c 0
 465.66796875 -144.666992188 467.000976562 -137.666992188 465.000976562 -125 c 0
 459.000976562 -101 453.66796875 -58.3330078125 449.000976562 3 c 1
 425.000976562 -2.3330078125 407.000976562 -7 395.000976562 -11 c 0
 382.333984375 -15.6669921875 372.333984375 -20 365.000976562 -24 c 0
 359.66796875 -24 355.66796875 -21.6669921875 353.000976562 -17 c 2
 353.000976562 24 l 2
 353.000976562 33.3330078125 350.000976562 38 344.000976562 38 c 0
 288.000976562 2.6669921875 239.333984375 -15 198.000976562 -15 c 0
 183.333984375 -15 164.666992188 -10 142 -0 c 0
 135.333007812 1.3330078125 132 -4 132 -16 c 2
 132 -72 l 2
 132 -94.6669921875 136.833007812 -121.833984375 146.5 -153.500976562 c 0
 156.166992188 -185.16796875 161 -202.66796875 161 -206.000976562 c 0
 161 -217.333984375 153.666992188 -230.666992188 139 -246 c 0
 124.333007812 -261.333007812 111.333007812 -269 100 -269 c 0
 86.6669921875 -269 80 -258.333007812 80 -237 c 0
EndSplineSet
EndChar

StartChar: E
Encoding: 69 69 32
Width: 447
GlyphClass: 2
Flags: W
LayerCount: 2
Fore
SplineSet
186 578 m 2
 266.999023438 541.999023438 l 2
 284.999023438 534.666015625 298.999023438 535.166015625 308.999023438 543.499023438 c 0
 318.999023438 551.83203125 330.666015625 567.999023438 343.999023438 591.999023438 c 0
 345.999023438 595.999023438 349.166015625 597.666015625 353.499023438 596.999023438 c 0
 357.83203125 596.33203125 360.33203125 593.33203125 360.999023438 587.999023438 c 0
 362.999023438 555.33203125 354.666015625 528.33203125 335.999023438 506.999023438 c 0
 324.666015625 494.33203125 310.666015625 486.999023438 293.999023438 484.999023438 c 0
 277.33203125 482.999023438 261.33203125 484.666015625 245.999023438 489.999023438 c 2
 166.999023438 522.999023438 l 2
 139.666015625 534.999023438 111.333007812 518.666015625 82 473.999023438 c 0
 80 469.999023438 76.8330078125 468.999023438 72.5 470.999023438 c 0
 68.1669921875 472.999023438 65.6669921875 475.666015625 65 478.999023438 c 0
 62.3330078125 500.999023438 75 527.33203125 103 557.999023438 c 0
 111 568.666015625 123.166992188 576.333007812 139.5 581 c 0
 155.833007812 585.666992188 171.333007812 584.666992188 186 578 c 2
340.999023438 297.999023438 m 2
 340.999023438 94.99609375 l 2
 340.999023438 71.6630859375 341.83203125 55.99609375 343.499023438 47.99609375 c 0
 345.166015625 39.99609375 348.666015625 34.1630859375 353.999023438 30.49609375 c 0
 359.33203125 26.8291015625 368.665039062 23.99609375 381.998046875 21.99609375 c 2
 402.998046875 18.99609375 l 2
 406.331054688 18.3291015625 407.998046875 14.99609375 407.998046875 8.99609375 c 0
 407.998046875 2.99609375 405.998046875 -1.00390625 401.998046875 -3.00390625 c 0
 352.665039062 -1.6708984375 319.665039062 -1.00390625 302.998046875 -1.00390625 c 2
 143.998046875 -1.00390625 l 2
 95.3310546875 -1.00390625 64.998046875 -1.6708984375 52.998046875 -3.00390625 c 1
 50.3310546875 28.99609375 46.998046875 59.6630859375 42.998046875 88.99609375 c 0
 44.998046875 92.99609375 48.998046875 94.99609375 54.998046875 94.99609375 c 0
 60.998046875 94.99609375 65.3310546875 93.6630859375 67.998046875 90.99609375 c 0
 71.3310546875 77.6630859375 76.998046875 63.6630859375 84.998046875 48.99609375 c 0
 95.6650390625 34.99609375 123.33203125 27.99609375 167.999023438 27.99609375 c 2
 232.999023438 27.99609375 l 2
 249.666015625 27.99609375 259.499023438 29.3291015625 262.499023438 31.99609375 c 0
 265.499023438 34.6630859375 266.999023438 42.99609375 266.999023438 56.99609375 c 2
 266.999023438 152.99609375 l 2
 266.999023438 161.663085938 266.166015625 166.99609375 264.499023438 168.99609375 c 0
 262.83203125 170.99609375 257.665039062 171.99609375 248.998046875 171.99609375 c 2
 202.998046875 171.99609375 l 2
 178.331054688 171.99609375 162.6640625 169.829101562 155.997070312 165.49609375 c 0
 149.330078125 161.163085938 143.663085938 151.663085938 138.99609375 136.99609375 c 2
 134.99609375 121.99609375 l 2
 132.99609375 118.663085938 128.99609375 117.330078125 122.99609375 117.997070312 c 0
 116.99609375 118.6640625 112.663085938 120.331054688 109.99609375 122.998046875 c 0
 111.329101562 140.331054688 111.99609375 161.331054688 111.99609375 185.998046875 c 0
 111.99609375 211.998046875 111.329101562 233.665039062 109.99609375 250.998046875 c 0
 112.663085938 255.665039062 116.99609375 258.33203125 122.99609375 258.999023438 c 0
 128.99609375 259.666015625 132.99609375 257.666015625 134.99609375 252.999023438 c 2
 138.99609375 239.999023438 l 2
 142.99609375 224.666015625 148.829101562 214.999023438 156.49609375 210.999023438 c 0
 164.163085938 206.999023438 179.663085938 204.999023438 202.99609375 204.999023438 c 2
 248.99609375 204.999023438 l 2
 257.663085938 204.999023438 262.830078125 205.999023438 264.497070312 207.999023438 c 0
 266.1640625 209.999023438 266.997070312 215.666015625 266.997070312 224.999023438 c 2
 266.997070312 285.999023438 l 2
 266.997070312 321.999023438 263.6640625 343.666015625 256.997070312 350.999023438 c 0
 248.997070312 359.666015625 221.6640625 363.999023438 174.997070312 363.999023438 c 0
 138.330078125 363.999023438 111.330078125 359.999023438 93.9970703125 351.999023438 c 0
 76.6640625 343.999023438 61.6640625 322.999023438 48.9970703125 288.999023438 c 0
 44.9970703125 286.33203125 40.330078125 285.665039062 34.9970703125 286.998046875 c 0
 29.6640625 288.331054688 25.9970703125 290.6640625 23.9970703125 293.997070312 c 0
 29.9970703125 339.330078125 39.6640625 372.997070312 52.9970703125 394.997070312 c 1
 114.330078125 392.997070312 169.330078125 391.997070312 217.997070312 391.997070312 c 2
 302.997070312 391.997070312 l 2
 325.6640625 391.997070312 364.331054688 392.997070312 418.998046875 394.997070312 c 0
 422.331054688 394.330078125 424.331054688 390.997070312 424.998046875 384.997070312 c 0
 425.665039062 378.997070312 424.33203125 374.6640625 420.999023438 371.997070312 c 2
 386.999023438 368.997070312 l 2
 372.999023438 367.6640625 362.83203125 365.331054688 356.499023438 361.998046875 c 0
 350.166015625 358.665039062 345.999023438 352.83203125 343.999023438 344.499023438 c 0
 341.999023438 336.166015625 340.999023438 320.666015625 340.999023438 297.999023438 c 2
EndSplineSet
EndChar

StartChar: F
Encoding: 70 70 33
Width: 357
GlyphClass: 2
Flags: W
LayerCount: 2
Fore
SplineSet
202 378 m 1
 202.001953125 -100 l 1
 143.001953125 -100 l 1
 143.001953125 378 l 1
 58.001953125 316 l 1
 48.001953125 316 42.001953125 319.666992188 40.001953125 327 c 1
 152.001953125 498 l 2
 157.334960938 507.333007812 164.16796875 512 172.500976562 512 c 0
 180.833984375 512 187.666992188 507.333007812 193 498 c 2
 305 327 l 1
 303 319.666992188 297.333007812 316 288 316 c 1
 202 378 l 1
EndSplineSet
EndChar

StartChar: G
Encoding: 71 71 34
Width: 440
GlyphClass: 2
Flags: W
LayerCount: 2
Fore
SplineSet
428 9 m 0
 434.666992188 -58.3330078125 446.337890625 -112.67578125 463.004882812 -154.008789062 c 1
 468.337890625 -182.008789062 466.670898438 -196.67578125 458.00390625 -198.008789062 c 0
 449.336914062 -199.341796875 430.336914062 -197.174804688 401.00390625 -191.5078125 c 0
 371.670898438 -185.840820312 352.00390625 -188.673828125 342.00390625 -200.006835938 c 1
 329.336914062 -204.673828125 318.669921875 -204.673828125 310.002929688 -200.006835938 c 0
 301.3359375 -195.33984375 296.668945312 -187.672851562 296.001953125 -177.005859375 c 0
 295.334960938 -166.338867188 298.334960938 -156.671875 305.001953125 -148.004882812 c 0
 313.001953125 -138.004882812 321.668945312 -133.337890625 331.001953125 -134.004882812 c 0
 340.334960938 -134.671875 352.16796875 -137.171875 366.500976562 -141.504882812 c 0
 380.833984375 -145.837890625 390.333984375 -147.337890625 395.000976562 -146.004882812 c 0
 399.66796875 -144.671875 401.000976562 -137.671875 399.000976562 -125.004882812 c 0
 393.000976562 -102.337890625 387.66796875 -61.337890625 383.000976562 -2.0048828125 c 1
 353.66796875 -0.671875 335.000976562 -0.0048828125 327.000976562 -0.0048828125 c 0
 312.333984375 -0.0048828125 281.333984375 -1.0048828125 234.000976562 -3.0048828125 c 0
 230.66796875 -1.0048828125 229.000976562 3.162109375 229.000976562 9.4951171875 c 0
 229.000976562 15.828125 230.333984375 19.9951171875 233.000976562 21.9951171875 c 2
 256.000976562 23.9951171875 l 2
 269.333984375 26.662109375 276.333984375 30.8291015625 277.000976562 36.49609375 c 0
 277.66796875 42.1630859375 273.66796875 52.99609375 265.000976562 68.99609375 c 2
 217.000976562 138.99609375 l 2
 214.333984375 142.99609375 211.833984375 146.663085938 209.500976562 149.99609375 c 0
 207.16796875 153.329101562 204.334960938 156.99609375 201.001953125 160.99609375 c 1
 200.334960938 160.329101562 181.001953125 131.99609375 143.001953125 75.99609375 c 0
 125.668945312 49.3291015625 129.3359375 31.99609375 154.002929688 23.99609375 c 1
 174.002929688 21.99609375 l 2
 177.3359375 18.6630859375 178.668945312 14.330078125 178.001953125 8.9970703125 c 0
 177.334960938 3.6640625 174.66796875 -0.3359375 170.000976562 -3.0029296875 c 0
 139.333984375 -1.0029296875 112.333984375 -0.0029296875 89.0009765625 -0.0029296875 c 0
 62.333984375 -0.0029296875 35.333984375 -1.0029296875 8.0009765625 -3.0029296875 c 0
 4.0009765625 -1.0029296875 2.0009765625 3.1640625 2.0009765625 9.4970703125 c 0
 2.0009765625 15.830078125 3.333984375 19.9970703125 6.0009765625 21.9970703125 c 2
 29.0009765625 23.9970703125 l 2
 39.0009765625 26.6640625 47.0009765625 31.1640625 53.0009765625 37.4970703125 c 0
 59.0009765625 43.830078125 64.333984375 49.6630859375 69.0009765625 54.99609375 c 0
 85.0009765625 68.3291015625 118.000976562 108.662109375 168.000976562 175.995117188 c 0
 171.333984375 179.995117188 173.666992188 183.495117188 175 186.495117188 c 0
 176.333007812 189.495117188 175.5 192.328125 172.5 194.995117188 c 0
 169.5 197.662109375 164.333007812 202.329101562 157 208.99609375 c 0
 147 216.329101562 135.166992188 229.99609375 121.5 249.99609375 c 0
 107.833007812 269.99609375 101 287.663085938 101 302.99609375 c 0
 101 333.663085938 112.166992188 358.830078125 134.5 378.497070312 c 0
 156.833007812 398.1640625 182 407.997070312 210 407.997070312 c 0
 242.666992188 407.997070312 268.333984375 398.997070312 287.000976562 380.997070312 c 0
 305.66796875 362.997070312 315.000976562 340.997070312 315.000976562 314.997070312 c 0
 315.000976562 276.997070312 292.66796875 239.997070312 248.000976562 203.997070312 c 0
 245.333984375 199.997070312 243.166992188 197.497070312 241.5 196.497070312 c 0
 239.833007812 195.497070312 239.5 194.330078125 240.5 192.997070312 c 0
 241.5 191.6640625 243 189.331054688 245 185.998046875 c 2
 340 66.998046875 l 2
 356 43.6650390625 376 29.33203125 400 23.9990234375 c 2
 424 21.9990234375 l 2
 426.666992188 18.666015625 428 14.3330078125 428 9 c 0
205.00390625 379.990234375 m 0
 173.00390625 373.990234375 157.00390625 350.65625 157.00390625 309.989257812 c 0
 157.00390625 280.65625 172.00390625 252.65625 202.00390625 225.989257812 c 0
 206.00390625 222.65625 209.170898438 221.823242188 211.50390625 223.490234375 c 0
 213.836914062 225.157226562 219.00390625 229.990234375 227.00390625 237.990234375 c 0
 251.670898438 258.657226562 264.00390625 282.990234375 264.00390625 310.990234375 c 0
 264.00390625 329.657226562 257.836914062 346.490234375 245.50390625 361.490234375 c 0
 233.170898438 376.490234375 219.670898438 382.657226562 205.00390625 379.990234375 c 0
182.00390625 577.989257812 m 2
 263.002929688 541.98828125 l 2
 281.002929688 534.655273438 295.002929688 535.155273438 305.002929688 543.48828125 c 0
 315.002929688 551.821289062 326.669921875 567.98828125 340.002929688 591.98828125 c 0
 342.002929688 595.98828125 345.169921875 597.655273438 349.502929688 596.98828125 c 0
 353.8359375 596.321289062 356.3359375 593.321289062 357.002929688 587.98828125 c 0
 359.002929688 555.321289062 350.669921875 528.321289062 332.002929688 506.98828125 c 0
 320.669921875 494.321289062 306.669921875 486.98828125 290.002929688 484.98828125 c 0
 273.3359375 482.98828125 257.3359375 484.655273438 242.002929688 489.98828125 c 2
 163.002929688 522.98828125 l 2
 135.669921875 534.98828125 107.336914062 518.655273438 78.00390625 473.98828125 c 0
 76.00390625 469.98828125 72.8369140625 468.98828125 68.50390625 470.98828125 c 0
 64.1708984375 472.98828125 61.6708984375 475.655273438 61.00390625 478.98828125 c 0
 58.3369140625 500.98828125 71.00390625 527.321289062 99.00390625 557.98828125 c 0
 107.00390625 568.655273438 119.170898438 576.322265625 135.50390625 580.989257812 c 0
 151.836914062 585.65625 167.336914062 584.65625 182.00390625 577.989257812 c 2
EndSplineSet
EndChar

StartChar: H
Encoding: 72 72 35
Width: 564
GlyphClass: 2
Flags: W
LayerCount: 2
Fore
SplineSet
506 198 m 0
 506 166.666992188 502.006835938 138.327148438 494.006835938 112.994140625 c 1
 494.006835938 78.3271484375 497.673828125 32.8271484375 505.006835938 -23.505859375 c 0
 512.33984375 -79.8388671875 522.006835938 -123.005859375 534.006835938 -153.005859375 c 1
 539.33984375 -181.005859375 537.672851562 -195.672851562 529.005859375 -197.005859375 c 0
 520.338867188 -198.338867188 501.338867188 -196.171875 472.005859375 -190.504882812 c 0
 442.672851562 -184.837890625 423.005859375 -187.670898438 413.005859375 -199.00390625 c 1
 400.338867188 -203.670898438 389.671875 -203.670898438 381.004882812 -199.00390625 c 0
 372.337890625 -194.336914062 367.670898438 -186.669921875 367.00390625 -176.002929688 c 0
 366.336914062 -165.3359375 369.336914062 -155.668945312 376.00390625 -147.001953125 c 0
 384.00390625 -137.001953125 392.670898438 -132.334960938 402.00390625 -133.001953125 c 0
 411.336914062 -133.668945312 423.169921875 -136.168945312 437.502929688 -140.501953125 c 0
 451.8359375 -144.834960938 461.3359375 -146.334960938 466.002929688 -145.001953125 c 0
 470.669921875 -143.668945312 472.002929688 -136.668945312 470.002929688 -124.001953125 c 0
 460.002929688 -81.3349609375 453.3359375 -25.001953125 450.002929688 44.998046875 c 1
 417.3359375 5.6650390625 364.668945312 -13.66796875 292.001953125 -13.0009765625 c 0
 288.001953125 -13.0009765625 282.001953125 -12.333984375 274.001953125 -11.0009765625 c 2
 39.001953125 -11.0009765625 l 1
 34.001953125 42.9990234375 l 1
 184.001953125 26.9990234375 l 1
 128.668945312 66.9990234375 98.001953125 121.999023438 92.001953125 191.999023438 c 0
 87.3349609375 254.666015625 105.66796875 306.333007812 147.000976562 347 c 0
 188.333984375 387.666992188 240.000976562 408 302.000976562 408 c 0
 342.66796875 408 379.16796875 398.666992188 411.500976562 380 c 0
 443.833984375 361.333007812 468.666992188 335.833007812 486 303.5 c 0
 503.333007812 271.166992188 510 236 506 198 c 0
178.006835938 213.993164062 m 0
 176.673828125 183.993164062 180.005859375 153.9921875 188.005859375 123.9921875 c 0
 196.005859375 93.9921875 209.505859375 68.9921875 228.505859375 48.9921875 c 0
 247.505859375 28.9921875 271.672851562 17.9921875 301.005859375 15.9921875 c 0
 335.005859375 13.9921875 363.005859375 27.9921875 385.005859375 57.9921875 c 0
 407.005859375 87.9921875 419.005859375 129.659179688 421.005859375 182.9921875 c 0
 423.005859375 232.325195312 413.338867188 276.4921875 392.005859375 315.4921875 c 0
 370.672851562 354.4921875 339.33984375 374.9921875 298.006835938 376.9921875 c 0
 258.673828125 379.659179688 229.506835938 364.826171875 210.506835938 332.493164062 c 0
 191.506835938 300.16015625 180.673828125 260.66015625 178.006835938 213.993164062 c 0
EndSplineSet
EndChar

StartChar: I
Encoding: 73 73 36
Width: 291
GlyphClass: 2
Flags: W
LayerCount: 2
Fore
SplineSet
97 94 m 2
 97 297 l 2
 97 320.333007812 96 336.166015625 94 344.499023438 c 0
 92 352.83203125 88.1669921875 358.665039062 82.5 361.998046875 c 0
 76.8330078125 365.331054688 66.3330078125 367.998046875 51 369.998046875 c 2
 23 372.998046875 l 2
 19.6669921875 374.998046875 18.333984375 378.998046875 19.0009765625 384.998046875 c 0
 19.66796875 390.998046875 21.66796875 394.331054688 25.0009765625 394.998046875 c 0
 89.0009765625 393.665039062 125.333984375 392.998046875 134.000976562 392.998046875 c 0
 142.66796875 392.998046875 179.000976562 393.665039062 243.000976562 394.998046875 c 0
 247.000976562 394.331054688 249.000976562 390.998046875 249.000976562 384.998046875 c 0
 249.000976562 378.998046875 247.66796875 374.998046875 245.000976562 372.998046875 c 2
 216.000976562 369.998046875 l 2
 200.66796875 367.998046875 190.16796875 365.331054688 184.500976562 361.998046875 c 0
 178.833984375 358.665039062 175.166992188 352.83203125 173.5 344.499023438 c 0
 171.833007812 336.166015625 171 320.333007812 171 297 c 2
 171 94 l 2
 171 64 173.333007812 45.3330078125 178 38 c 0
 182.666992188 30.6669921875 195.333984375 25.6669921875 216.000976562 23 c 2
 245.000976562 20 l 2
 247.66796875 18 249.000976562 14.1669921875 249.000976562 8.5 c 0
 249.000976562 2.8330078125 247.000976562 -1 243.000976562 -3 c 0
 196.333984375 -1 160.000976562 0 134.000976562 0 c 0
 109.333984375 0 73.0009765625 -1 25.0009765625 -3 c 0
 21.66796875 -1 19.66796875 2.8330078125 19.0009765625 8.5 c 0
 18.333984375 14.1669921875 19.6669921875 18 23 20 c 2
 51 23 l 2
 72.3330078125 26.3330078125 85.3330078125 31.5 90 38.5 c 0
 94.6669921875 45.5 97 64 97 94 c 2
119 578 m 2
 199.999023438 541.999023438 l 2
 217.999023438 534.666015625 231.999023438 535.166015625 241.999023438 543.499023438 c 0
 251.999023438 551.83203125 263.666015625 567.999023438 276.999023438 591.999023438 c 0
 278.999023438 595.999023438 282.166015625 597.666015625 286.499023438 596.999023438 c 0
 290.83203125 596.33203125 293.33203125 593.33203125 293.999023438 587.999023438 c 0
 295.999023438 555.33203125 287.666015625 528.33203125 268.999023438 506.999023438 c 0
 257.666015625 494.33203125 243.666015625 486.999023438 226.999023438 484.999023438 c 0
 210.33203125 482.999023438 194.33203125 484.666015625 178.999023438 489.999023438 c 2
 99.9990234375 522.999023438 l 2
 72.666015625 534.999023438 44.3330078125 518.666015625 15 473.999023438 c 0
 13 469.999023438 9.8330078125 468.999023438 5.5 470.999023438 c 0
 1.1669921875 472.999023438 -1.3330078125 475.666015625 -2 478.999023438 c 0
 -4.6669921875 500.999023438 8 527.33203125 36 557.999023438 c 0
 44 568.666015625 56.1669921875 576.333007812 72.5 581 c 0
 88.8330078125 585.666992188 104.333007812 584.666992188 119 578 c 2
EndSplineSet
EndChar

StartChar: J
Encoding: 74 74 37
Width: 535
GlyphClass: 2
Flags: W
LayerCount: 2
Fore
SplineSet
475 112 m 1
 475 77.3330078125 478.669921875 31.828125 486.002929688 -24.5048828125 c 0
 493.3359375 -80.837890625 503.002929688 -124.004882812 515.002929688 -154.004882812 c 1
 520.3359375 -182.004882812 518.668945312 -196.671875 510.001953125 -198.004882812 c 0
 501.334960938 -199.337890625 482.334960938 -197.170898438 453.001953125 -191.50390625 c 0
 423.668945312 -185.836914062 404.001953125 -188.669921875 394.001953125 -200.002929688 c 1
 381.334960938 -204.669921875 370.66796875 -204.669921875 362.000976562 -200.002929688 c 0
 353.333984375 -195.3359375 348.666992188 -187.668945312 348 -177.001953125 c 0
 347.333007812 -166.334960938 350.333007812 -156.66796875 357 -148.000976562 c 0
 365 -138.000976562 373.666992188 -133.333984375 383 -134.000976562 c 0
 392.333007812 -134.66796875 404.166015625 -137.16796875 418.499023438 -141.500976562 c 0
 432.83203125 -145.833984375 442.33203125 -147.333984375 446.999023438 -146.000976562 c 0
 451.666015625 -144.66796875 452.999023438 -137.66796875 450.999023438 -125.000976562 c 0
 440.999023438 -82.333984375 434.33203125 -26.0009765625 430.999023438 43.9990234375 c 1
 398.999023438 4.666015625 346.33203125 -15.0009765625 272.999023438 -15.0009765625 c 0
 198.999023438 -15.0009765625 142.166015625 3.83203125 102.499023438 41.4990234375 c 0
 62.83203125 79.166015625 42.33203125 129.333007812 40.9990234375 192 c 0
 42.33203125 258.666992188 57.83203125 312.333984375 87.4990234375 353.000976562 c 0
 117.166015625 393.66796875 158.333007812 411.66796875 211 407.000976562 c 0
 225 406.333984375 237 401.666992188 247 393 c 0
 257 384.333007812 264 374.666015625 268 363.999023438 c 0
 270 360.666015625 272.666992188 360.666015625 276 363.999023438 c 0
 290.666992188 386.666015625 306 399.999023438 322 403.999023438 c 0
 354 410.666015625 382.5 405.499023438 407.5 388.499023438 c 0
 432.5 371.499023438 452 346.166015625 466 312.499023438 c 0
 480 278.83203125 487 240.33203125 487 196.999023438 c 0
 487 165.666015625 483 137.333007812 475 112 c 1
344.002929688 369.995117188 m 0
 336.669921875 370.662109375 327.836914062 367.328125 317.50390625 359.995117188 c 0
 307.170898438 352.662109375 299.00390625 344.662109375 293.00390625 335.995117188 c 0
 286.336914062 323.328125 283.336914062 300.995117188 284.00390625 268.995117188 c 0
 287.336914062 255.662109375 284.836914062 245.662109375 276.50390625 238.995117188 c 0
 268.170898438 232.328125 259.670898438 231.495117188 251.00390625 236.495117188 c 0
 242.336914062 241.495117188 239.00390625 251.995117188 241.00390625 267.995117188 c 0
 245.670898438 299.995117188 243.670898438 325.495117188 235.00390625 344.495117188 c 0
 226.336914062 363.495117188 212.669921875 371.995117188 194.002929688 369.995117188 c 0
 173.3359375 367.328125 157.502929688 349.495117188 146.502929688 316.495117188 c 0
 135.502929688 283.495117188 129.3359375 246.328125 128.002929688 204.995117188 c 0
 128.002929688 78.328125 175.002929688 14.6611328125 269.002929688 13.994140625 c 0
 360.3359375 14.6611328125 406.002929688 73.328125 406.002929688 189.995117188 c 0
 407.3359375 231.995117188 403.002929688 271.495117188 393.002929688 308.495117188 c 0
 383.002929688 345.495117188 366.669921875 365.995117188 344.002929688 369.995117188 c 0
235.002929688 577.994140625 m 2
 316.001953125 541.993164062 l 2
 334.001953125 534.66015625 348.001953125 535.16015625 358.001953125 543.493164062 c 0
 368.001953125 551.826171875 379.668945312 567.993164062 393.001953125 591.993164062 c 0
 395.001953125 595.993164062 398.168945312 597.66015625 402.501953125 596.993164062 c 0
 406.834960938 596.326171875 409.334960938 593.326171875 410.001953125 587.993164062 c 0
 412.001953125 555.326171875 403.668945312 528.326171875 385.001953125 506.993164062 c 0
 373.668945312 494.326171875 359.668945312 486.993164062 343.001953125 484.993164062 c 0
 326.334960938 482.993164062 310.334960938 484.66015625 295.001953125 489.993164062 c 2
 216.001953125 522.993164062 l 2
 188.668945312 534.993164062 160.3359375 518.66015625 131.002929688 473.993164062 c 0
 129.002929688 469.993164062 125.8359375 468.993164062 121.502929688 470.993164062 c 0
 117.169921875 472.993164062 114.669921875 475.66015625 114.002929688 478.993164062 c 0
 111.3359375 500.993164062 124.002929688 527.326171875 152.002929688 557.993164062 c 0
 160.002929688 568.66015625 172.169921875 576.327148438 188.502929688 580.994140625 c 0
 204.8359375 585.661132812 220.3359375 584.661132812 235.002929688 577.994140625 c 2
EndSplineSet
EndChar

StartChar: K
Encoding: 75 75 38
Width: 402
GlyphClass: 2
Flags: W
LayerCount: 2
Fore
SplineSet
58 -16 m 2
 56.6669921875 2.6669921875 50.6650390625 31.3359375 39.998046875 70.0029296875 c 0
 29.3310546875 108.669921875 23.6640625 139.002929688 22.9970703125 161.002929688 c 0
 24.9970703125 165.002929688 28.6640625 167.3359375 33.9970703125 168.002929688 c 0
 39.330078125 168.669921875 42.6630859375 167.336914062 43.99609375 164.00390625 c 0
 72.6630859375 64.6708984375 125.330078125 15.00390625 201.997070312 15.00390625 c 0
 237.330078125 15.00390625 264.163085938 26.1708984375 282.49609375 48.50390625 c 0
 300.829101562 70.8369140625 308.99609375 98.00390625 306.99609375 130.00390625 c 0
 305.663085938 187.336914062 279.330078125 233.669921875 227.997070312 269.002929688 c 2
 142.997070312 331.002929688 l 2
 113.6640625 352.3359375 89.6640625 376.668945312 70.9970703125 404.001953125 c 0
 52.330078125 431.334960938 41.9970703125 464.334960938 39.9970703125 503.001953125 c 0
 38.6640625 552.334960938 53.1640625 593.16796875 83.4970703125 625.500976562 c 0
 113.830078125 657.833984375 156.663085938 674.000976562 211.99609375 674.000976562 c 0
 240.663085938 674.000976562 267.99609375 670.000976562 293.99609375 662.000976562 c 0
 307.99609375 657.333984375 318.663085938 655.000976562 325.99609375 655.000976562 c 1
 337.329101562 624.333984375 344.329101562 583.666992188 346.99609375 533 c 0
 344.99609375 531 341.49609375 529.333007812 336.49609375 528 c 0
 331.49609375 526.666992188 327.663085938 527.333984375 324.99609375 530.000976562 c 0
 315.663085938 562.66796875 301.99609375 589.834960938 283.99609375 611.501953125 c 0
 265.99609375 633.168945312 237.99609375 644.001953125 199.99609375 644.001953125 c 0
 161.99609375 644.001953125 135.49609375 632.668945312 120.49609375 610.001953125 c 0
 105.49609375 587.334960938 98.6630859375 561.334960938 99.99609375 532.001953125 c 0
 101.99609375 488.668945312 128.663085938 447.668945312 179.99609375 409.001953125 c 2
 252.99609375 360.001953125 l 2
 328.99609375 308.001953125 368.663085938 244.334960938 371.99609375 169.001953125 c 0
 374.663085938 115.001953125 359.663085938 70.6689453125 326.99609375 36.001953125 c 0
 294.329101562 1.3349609375 249.329101562 -15.998046875 191.99609375 -15.998046875 c 0
 168.663085938 -15.998046875 144.99609375 -12.998046875 120.99609375 -6.998046875 c 1
 120.99609375 -45.998046875 l 2
 120.99609375 -73.998046875 120.829101562 -101.831054688 120.49609375 -129.498046875 c 0
 120.163085938 -157.165039062 121.830078125 -177.33203125 125.497070312 -189.999023438 c 0
 129.1640625 -202.666015625 136.331054688 -210.999023438 146.998046875 -214.999023438 c 0
 169.665039062 -222.33203125 184.83203125 -222.999023438 192.499023438 -216.999023438 c 0
 200.166015625 -210.999023438 204.333007812 -199.666015625 205 -182.999023438 c 0
 205.666992188 -166.33203125 206.666992188 -155.999023438 208 -151.999023438 c 0
 210 -145.999023438 215.166992188 -141.83203125 223.5 -139.499023438 c 0
 231.833007812 -137.166015625 240.166015625 -137.499023438 248.499023438 -140.499023438 c 0
 256.83203125 -143.499023438 262.33203125 -148.999023438 264.999023438 -156.999023438 c 0
 273.666015625 -180.999023438 270.333007812 -200.666015625 255 -215.999023438 c 0
 236.333007812 -233.999023438 215 -246.83203125 191 -254.499023438 c 0
 167 -262.166015625 144.833007812 -261.833007812 124.5 -253.5 c 0
 104.166992188 -245.166992188 88 -227.5 76 -200.5 c 0
 64 -173.5 58 -136.666992188 58 -90 c 2
 58 -16 l 2
EndSplineSet
EndChar

StartChar: L
Encoding: 76 76 39
Width: 533
GlyphClass: 2
Flags: W
LayerCount: 2
Fore
SplineSet
386 217 m 1
 379.333007812 271.666992188 361.666015625 320.66796875 332.999023438 364.000976562 c 0
 330.33203125 369.333984375 328.999023438 375.500976562 328.999023438 382.500976562 c 0
 328.999023438 389.500976562 330.666015625 394.000976562 333.999023438 396.000976562 c 0
 373.33203125 394.000976562 401.665039062 393.000976562 418.998046875 393.000976562 c 2
 429.998046875 393.000976562 l 2
 432.665039062 393.000976562 435.33203125 393.16796875 437.999023438 393.500976562 c 0
 440.666015625 393.833984375 451.333007812 394.666992188 470 396 c 0
 474 395.333007812 476 390.5 476 381.5 c 0
 476 372.5 474.333007812 366.333007812 471 363 c 0
 449.666992188 364.333007812 432.333984375 365 419.000976562 365 c 0
 405.66796875 365 396.000976562 362.166992188 390.000976562 356.5 c 0
 384.000976562 350.833007812 384.333984375 341.333007812 391.000976562 328 c 0
 395.66796875 319.333007812 406.834960938 303.333007812 424.501953125 280 c 0
 442.168945312 256.666992188 454.001953125 235.666992188 460.001953125 217 c 1
 506.001953125 217 l 1
 506.001953125 180 l 1
 468.001953125 180 l 1
 472.001953125 122 456.668945312 74.8330078125 422.001953125 38.5 c 0
 387.334960938 2.1669921875 334.001953125 -16 262.001953125 -16 c 0
 188.668945312 -16 134.668945312 2.1669921875 100.001953125 38.5 c 0
 65.3349609375 74.8330078125 49.66796875 122 53.0009765625 180 c 1
 18.0009765625 180 l 1
 18.0009765625 217 l 1
 61.0009765625 217 l 1
 68.333984375 236.333007812 80.6669921875 257.666015625 98 280.999023438 c 0
 115.333007812 304.33203125 126.333007812 319.665039062 131 326.998046875 c 0
 140.333007812 346.998046875 137 358.165039062 121 360.498046875 c 0
 105 362.831054688 80.6669921875 363.331054688 48 361.998046875 c 0
 46 365.331054688 45.3330078125 371.6640625 46 380.997070312 c 0
 46.6669921875 390.330078125 48.333984375 395.330078125 51.0009765625 395.997070312 c 0
 69.0009765625 394.6640625 79.5009765625 393.831054688 82.5009765625 393.498046875 c 0
 85.5009765625 393.165039062 88.333984375 392.998046875 91.0009765625 392.998046875 c 2
 102.000976562 392.998046875 l 2
 120.000976562 392.998046875 148.333984375 393.998046875 187.000976562 395.998046875 c 0
 190.333984375 394.665039062 192.166992188 390.83203125 192.5 384.499023438 c 0
 192.833007812 378.166015625 191.333007812 371.333007812 188 364 c 0
 158.666992188 322.666992188 140.666992188 273.666992188 134 217 c 1
 386 217 l 1
388 180.000976562 m 1
 132.998046875 180.001953125 l 1
 131.665039062 170.001953125 131.33203125 161.334960938 131.999023438 154.001953125 c 0
 137.33203125 114.001953125 150.499023438 81.6689453125 171.499023438 57.001953125 c 0
 192.499023438 32.3349609375 223.999023438 19.66796875 265.999023438 19.0009765625 c 1
 337.33203125 26.333984375 378.33203125 71.333984375 388.999023438 154.000976562 c 0
 389.666015625 158.000976562 389.333007812 166.66796875 388 180.000976562 c 1
EndSplineSet
EndChar

StartChar: M
Encoding: 77 77 40
Width: 802
GlyphClass: 2
Flags: W
LayerCount: 2
Fore
SplineSet
376 -270 m 1
 376 -65 l 1
 426 -65 l 1
 426 -270 l 1
 376 -270 l 1
172 367 m 2
 172 359.666992188 175.666992188 355.991210938 183 355.991210938 c 1
 231 389.991210938 275.333007812 406.991210938 316 406.991210938 c 0
 358.666992188 406.991210938 394 387.658203125 422 348.991210938 c 1
 428.666992188 346.991210938 437 349.32421875 447 355.991210938 c 0
 495.666992188 389.991210938 541 406.991210938 583 406.991210938 c 0
 621.666992188 406.991210938 651.166992188 395.491210938 671.5 372.491210938 c 0
 691.833007812 349.491210938 702 319.991210938 702 283.991210938 c 2
 702 110.991210938 l 2
 702 74.9912109375 704 52.158203125 708 42.4912109375 c 0
 712 32.82421875 722.666992188 26.9912109375 740 24.9912109375 c 2
 772 21.9912109375 l 2
 776 19.9912109375 777.666992188 15.82421875 777 9.4912109375 c 0
 776.333007812 3.158203125 774 -1.0087890625 770 -3.0087890625 c 0
 729.333007812 -1.0087890625 694.333007812 -0.0087890625 665 -0.0087890625 c 0
 635 -0.0087890625 602 -1.0087890625 566 -3.0087890625 c 0
 562 -0.341796875 559.666992188 3.8251953125 559 9.4921875 c 0
 558.333007812 15.1591796875 560 19.326171875 564 21.9931640625 c 2
 590 24.9931640625 l 2
 608 27.66015625 618.833007812 33.3271484375 622.5 41.994140625 c 0
 626.166992188 50.6611328125 628 73.6611328125 628 110.994140625 c 2
 628 255.994140625 l 2
 628 324.661132812 597 358.994140625 535 358.994140625 c 0
 497.666992188 358.994140625 470 347.327148438 452 323.994140625 c 0
 442 311.327148438 437 291.66015625 437 264.993164062 c 2
 437 110.993164062 l 2
 437 74.9931640625 439 52.16015625 443 42.4931640625 c 0
 447 32.826171875 457.666992188 26.9931640625 475 24.9931640625 c 2
 504 21.9931640625 l 2
 508 19.9931640625 509.666992188 15.826171875 509 9.4931640625 c 0
 508.333007812 3.16015625 506 -1.0068359375 502 -3.0068359375 c 0
 464 -1.0068359375 430 -0.0068359375 400 -0.0068359375 c 0
 370 -0.0068359375 337 -1.0068359375 301 -3.0068359375 c 0
 297 -0.33984375 294.666992188 3.8271484375 294 9.494140625 c 0
 293.333007812 15.1611328125 295 19.328125 299 21.9951171875 c 2
 325 24.9951171875 l 2
 343 27.662109375 353.833007812 33.3291015625 357.5 41.99609375 c 0
 361.166992188 50.6630859375 363 73.6630859375 363 110.99609375 c 2
 363 255.99609375 l 2
 363 324.663085938 332.333007812 358.99609375 271 358.99609375 c 0
 235 358.99609375 207 346.99609375 187 322.99609375 c 0
 177 310.99609375 172 292.329101562 172 266.99609375 c 2
 172 110.99609375 l 2
 172 84.3291015625 172.666992188 65.8291015625 174 55.49609375 c 0
 175.333007812 45.1630859375 178.5 37.99609375 183.5 33.99609375 c 0
 188.5 29.99609375 197.333007812 26.99609375 210 24.99609375 c 2
 236 21.99609375 l 2
 240 19.99609375 241.666992188 15.8291015625 241 9.49609375 c 0
 240.333007812 3.1630859375 238 -1.00390625 234 -3.00390625 c 0
 199.333007812 -1.00390625 166.333007812 -0.00390625 135 -0.00390625 c 0
 104.333007812 -0.00390625 69.3330078125 -1.00390625 30 -3.00390625 c 0
 26 -0.3369140625 23.6669921875 3.830078125 23 9.4970703125 c 0
 22.3330078125 15.1640625 24 19.3310546875 28 21.998046875 c 2
 60 24.998046875 l 2
 78 26.998046875 88.8330078125 32.498046875 92.5 41.498046875 c 0
 96.1669921875 50.498046875 98 73.6650390625 98 110.998046875 c 2
 98 286.998046875 l 2
 98 312.998046875 95.6669921875 329.331054688 91 335.998046875 c 0
 86.3330078125 342.665039062 73 348.665039062 51 353.998046875 c 2
 42 355.998046875 l 2
 40 357.998046875 39 360.831054688 39 364.498046875 c 0
 39 368.165039062 40.3330078125 370.665039062 43 371.998046875 c 0
 97 380.665039062 137.333007812 400.33203125 164 430.999023438 c 1
 169.333007812 429.666015625 172 427.333007812 172 424 c 2
 172 367 l 2
EndSplineSet
EndChar

StartChar: N
Encoding: 78 78 41
Width: 540
GlyphClass: 2
Flags: W
LayerCount: 2
Fore
SplineSet
183 356 m 0
 209.666992188 372.666992188 233.665039062 385.329101562 254.998046875 393.99609375 c 0
 276.331054688 402.663085938 298.998046875 406.99609375 322.998046875 406.99609375 c 0
 362.331054688 406.99609375 391.6640625 395.663085938 410.997070312 372.99609375 c 0
 430.330078125 350.329101562 439.997070312 320.662109375 439.997070312 283.995117188 c 2
 439.997070312 -57.0048828125 l 2
 439.997070312 -125.671875 440.997070312 -169.671875 442.997070312 -189.004882812 c 0
 444.997070312 -208.337890625 452.6640625 -220.670898438 465.997070312 -226.00390625 c 0
 488.6640625 -233.336914062 503.831054688 -234.00390625 511.498046875 -228.00390625 c 0
 519.165039062 -222.00390625 523.33203125 -210.670898438 523.999023438 -194.00390625 c 0
 524.666015625 -177.336914062 525.666015625 -167.00390625 526.999023438 -163.00390625 c 0
 528.999023438 -157.00390625 534.166015625 -152.836914062 542.499023438 -150.50390625 c 0
 550.83203125 -148.170898438 559.165039062 -148.50390625 567.498046875 -151.50390625 c 0
 575.831054688 -154.50390625 581.331054688 -160.00390625 583.998046875 -168.00390625 c 0
 592.665039062 -192.00390625 589.33203125 -211.670898438 573.999023438 -227.00390625 c 0
 547.999023438 -250.336914062 518.499023438 -263.836914062 485.499023438 -267.50390625 c 0
 452.499023438 -271.170898438 424.33203125 -259.50390625 400.999023438 -232.50390625 c 0
 377.666015625 -205.50390625 365.999023438 -161.670898438 365.999023438 -101.00390625 c 2
 365.999023438 5.99609375 l 1
 365.999023438 259.99609375 l 2
 365.999023438 325.99609375 334.666015625 358.99609375 271.999023438 358.99609375 c 0
 232.666015625 358.99609375 204.333007812 347.329101562 187 323.99609375 c 0
 177 311.99609375 172 292.329101562 172 264.99609375 c 2
 172 110.99609375 l 2
 172 84.3291015625 172.666992188 65.8291015625 174 55.49609375 c 0
 175.333007812 45.1630859375 178.5 37.99609375 183.5 33.99609375 c 0
 188.5 29.99609375 197.333007812 26.99609375 210 24.99609375 c 2
 236 21.99609375 l 2
 240 19.99609375 241.666992188 15.8291015625 241 9.49609375 c 0
 240.333007812 3.1630859375 238 -1.00390625 234 -3.00390625 c 0
 199.333007812 -1.00390625 166.333007812 -0.00390625 135 -0.00390625 c 0
 103 -0.00390625 69 -1.00390625 33 -3.00390625 c 0
 29 -0.3369140625 26.6669921875 3.830078125 26 9.4970703125 c 0
 25.3330078125 15.1640625 27 19.3310546875 31 21.998046875 c 2
 60 24.998046875 l 2
 78 26.998046875 88.8330078125 32.498046875 92.5 41.498046875 c 0
 96.1669921875 50.498046875 98 73.6650390625 98 110.998046875 c 2
 98 286.998046875 l 2
 98 312.998046875 95.6669921875 329.331054688 91 335.998046875 c 0
 86.3330078125 342.665039062 73 348.665039062 51 353.998046875 c 2
 42 355.998046875 l 2
 40 357.998046875 39 360.831054688 39 364.498046875 c 0
 39 368.165039062 40.3330078125 370.665039062 43 371.998046875 c 0
 97 380.665039062 137.333007812 400.33203125 164 430.999023438 c 1
 169.333007812 429.666015625 172 427.333007812 172 424 c 2
 172 367 l 2
 172 359.666992188 175.666992188 356 183 356 c 0
EndSplineSet
EndChar

StartChar: O
Encoding: 79 79 42
Width: 535
GlyphClass: 2
Flags: W
LayerCount: 2
Fore
SplineSet
322 404 m 0
 354 410.666992188 382.499023438 405.499023438 407.499023438 388.499023438 c 0
 432.499023438 371.499023438 451.999023438 346.166015625 465.999023438 312.499023438 c 0
 479.999023438 278.83203125 486.999023438 240.33203125 486.999023438 196.999023438 c 0
 486.999023438 153.666015625 479.499023438 116.333007812 464.499023438 85 c 0
 449.499023438 53.6669921875 425.666015625 29.1669921875 392.999023438 11.5 c 0
 360.33203125 -6.1669921875 320.33203125 -15 272.999023438 -15 c 0
 198.999023438 -15 142.166015625 3.8330078125 102.499023438 41.5 c 0
 62.83203125 79.1669921875 42.33203125 129.333984375 40.9990234375 192.000976562 c 0
 42.33203125 258.66796875 57.83203125 312.334960938 87.4990234375 353.001953125 c 0
 117.166015625 393.668945312 158.333007812 411.668945312 211 407.001953125 c 0
 225 406.334960938 237 401.66796875 247 393.000976562 c 0
 257 384.333984375 264 374.666992188 268 364 c 0
 270 360.666992188 272.666992188 360.666992188 276 364 c 0
 290.666992188 386.666992188 306 400 322 404 c 0
343.999023438 369.999023438 m 0
 336.666015625 370.666015625 327.833007812 367.33203125 317.5 359.999023438 c 0
 307.166992188 352.666015625 299 344.666015625 293 335.999023438 c 0
 286.333007812 323.33203125 283.333007812 300.999023438 284 268.999023438 c 0
 287.333007812 255.666015625 284.833007812 245.666015625 276.5 238.999023438 c 0
 268.166992188 232.33203125 259.666992188 231.499023438 251 236.499023438 c 0
 242.333007812 241.499023438 239 251.999023438 241 267.999023438 c 0
 245.666992188 299.999023438 243.666992188 325.499023438 235 344.499023438 c 0
 226.333007812 363.499023438 212.666015625 371.999023438 193.999023438 369.999023438 c 0
 173.33203125 367.33203125 157.499023438 349.499023438 146.499023438 316.499023438 c 0
 135.499023438 283.499023438 129.33203125 246.33203125 127.999023438 204.999023438 c 0
 127.999023438 78.33203125 174.999023438 14.6650390625 268.999023438 13.998046875 c 0
 360.33203125 14.6650390625 405.999023438 73.33203125 405.999023438 189.999023438 c 0
 407.33203125 231.999023438 402.999023438 271.499023438 392.999023438 308.499023438 c 0
 382.999023438 345.499023438 366.666015625 365.999023438 343.999023438 369.999023438 c 0
239.999023438 577.998046875 m 2
 320.998046875 541.997070312 l 2
 338.998046875 534.6640625 352.998046875 535.1640625 362.998046875 543.497070312 c 0
 372.998046875 551.830078125 384.665039062 567.997070312 397.998046875 591.997070312 c 0
 399.998046875 595.997070312 403.165039062 597.6640625 407.498046875 596.997070312 c 0
 411.831054688 596.330078125 414.331054688 593.330078125 414.998046875 587.997070312 c 0
 416.998046875 555.330078125 408.665039062 528.330078125 389.998046875 506.997070312 c 0
 378.665039062 494.330078125 364.665039062 486.997070312 347.998046875 484.997070312 c 0
 331.331054688 482.997070312 315.331054688 484.6640625 299.998046875 489.997070312 c 2
 220.998046875 522.997070312 l 2
 193.665039062 534.997070312 165.33203125 518.6640625 135.999023438 473.997070312 c 0
 133.999023438 469.997070312 130.83203125 468.997070312 126.499023438 470.997070312 c 0
 122.166015625 472.997070312 119.666015625 475.6640625 118.999023438 478.997070312 c 0
 116.33203125 500.997070312 128.999023438 527.330078125 156.999023438 557.997070312 c 0
 164.999023438 568.6640625 177.166015625 576.331054688 193.499023438 580.998046875 c 0
 209.83203125 585.665039062 225.33203125 584.665039062 239.999023438 577.998046875 c 2
EndSplineSet
EndChar

StartChar: P
Encoding: 80 80 43
Width: 522
GlyphClass: 2
Flags: W
LayerCount: 2
Fore
SplineSet
157 373 m 2
 157 364.333007812 160 359.997070312 166 359.997070312 c 0
 170 361.997070312 180 367.1640625 196 375.497070312 c 0
 212 383.830078125 230.166992188 391.163085938 250.5 397.49609375 c 0
 270.833007812 403.829101562 289.333007812 406.99609375 306 406.99609375 c 0
 355.333007812 406.99609375 395.333007812 389.663085938 426 354.99609375 c 0
 456.666992188 320.329101562 472 276.99609375 472 224.99609375 c 0
 472 138.99609375 440 73.6630859375 376 28.99609375 c 1
 353 -2.00390625 l 2
 347.666992188 -11.3369140625 350.666992188 -19.00390625 362 -25.00390625 c 0
 392.666992188 -46.3369140625 408 -70.3369140625 408 -97.00390625 c 0
 408 -121.00390625 397.5 -141.670898438 376.5 -159.00390625 c 0
 355.5 -176.336914062 331.333007812 -185.00390625 304 -185.00390625 c 0
 265.333007812 -185.00390625 246 -173.00390625 246 -149.00390625 c 0
 246 -143.670898438 248.5 -138.170898438 253.5 -132.50390625 c 0
 258.5 -126.836914062 264.333007812 -124.00390625 271 -124.00390625 c 0
 278.333007812 -124.00390625 288 -128.670898438 300 -138.00390625 c 0
 312 -147.336914062 320 -152.00390625 324 -152.00390625 c 0
 342 -152.00390625 351 -142.00390625 351 -122.00390625 c 0
 351 -110.00390625 344.833007812 -97.50390625 332.5 -84.50390625 c 0
 320.166992188 -71.50390625 305.333984375 -61.6708984375 288.000976562 -55.00390625 c 1
 288.000976562 -49.00390625 l 1
 321.000976562 0.99609375 l 1
 292.333984375 -9.6708984375 261.666992188 -15.00390625 229 -15.00390625 c 0
 215.666992188 -15.00390625 197 -13.6708984375 173 -11.00390625 c 0
 163.666992188 -12.3369140625 159 -21.3369140625 159 -38.00390625 c 2
 159 -143.00390625 l 2
 159 -169.670898438 159.666992188 -188.00390625 161 -198.00390625 c 0
 162.333007812 -208.00390625 165.5 -215.00390625 170.5 -219.00390625 c 0
 175.5 -223.00390625 184.333007812 -226.00390625 197 -228.00390625 c 2
 244 -232.00390625 l 2
 248 -234.00390625 249.666992188 -238.170898438 249 -244.50390625 c 0
 248.333007812 -250.836914062 246 -255.00390625 242 -257.00390625 c 0
 186 -255.00390625 146 -254.00390625 122 -254.00390625 c 0
 90 -254.00390625 56 -255.00390625 20 -257.00390625 c 0
 16 -254.336914062 13.6669921875 -250.169921875 13 -244.502929688 c 0
 12.3330078125 -238.8359375 14 -234.668945312 18 -232.001953125 c 2
 47 -229.001953125 l 2
 65 -227.001953125 75.8330078125 -221.501953125 79.5 -212.501953125 c 0
 83.1669921875 -203.501953125 85 -180.334960938 85 -143.001953125 c 2
 85 286.998046875 l 2
 85 312.998046875 82.6669921875 329.331054688 78 335.998046875 c 0
 73.3330078125 342.665039062 60 348.665039062 38 353.998046875 c 2
 29 355.998046875 l 2
 27 357.998046875 26 360.831054688 26 364.498046875 c 0
 26 368.165039062 27.3330078125 370.665039062 30 371.998046875 c 0
 84 380.665039062 124.333007812 400.33203125 151 430.999023438 c 1
 156.333007812 429.666015625 159 427.333007812 159 424 c 2
 157 373 l 2
157 271.997070312 m 2
 156.998046875 100.997070312 l 2
 156.998046875 86.330078125 159.498046875 74.9970703125 164.498046875 66.9970703125 c 0
 169.498046875 58.9970703125 177.665039062 50.330078125 188.998046875 40.9970703125 c 0
 208.331054688 26.330078125 232.331054688 18.9970703125 260.998046875 18.9970703125 c 0
 301.665039062 18.9970703125 333.498046875 35.4970703125 356.498046875 68.4970703125 c 0
 379.498046875 101.497070312 390.998046875 144.6640625 390.998046875 197.997070312 c 0
 390.998046875 241.997070312 379.331054688 279.830078125 355.998046875 311.497070312 c 0
 332.665039062 343.1640625 299.33203125 358.997070312 255.999023438 358.997070312 c 0
 216.666015625 358.997070312 188.333007812 349.6640625 171 330.997070312 c 0
 161.666992188 319.6640625 157 299.997070312 157 271.997070312 c 2
268.998046875 497.997070312 m 0
 252.331054688 497.997070312 238.997070312 503.6640625 228.997070312 514.997070312 c 0
 218.997070312 526.330078125 213.997070312 539.997070312 213.997070312 555.997070312 c 0
 213.997070312 573.997070312 219.497070312 587.830078125 230.497070312 597.497070312 c 0
 241.497070312 607.1640625 255.330078125 611.997070312 271.997070312 611.997070312 c 0
 288.6640625 611.997070312 302.331054688 606.6640625 312.998046875 595.997070312 c 0
 323.665039062 585.330078125 328.998046875 572.663085938 328.998046875 557.99609375 c 0
 328.998046875 540.663085938 322.998046875 526.330078125 310.998046875 514.997070312 c 0
 298.998046875 503.6640625 284.998046875 497.997070312 268.998046875 497.997070312 c 0
EndSplineSet
EndChar

StartChar: Q
Encoding: 81 81 44
Width: 552
GlyphClass: 2
Flags: W
LayerCount: 2
Fore
SplineSet
293 -9 m 0
 291.666992188 -10.3330078125 290.674804688 -11.6689453125 290.0078125 -13.001953125 c 0
 288.0078125 -15.001953125 285.0078125 -16.001953125 281.0078125 -16.001953125 c 0
 276.340820312 -16.001953125 272.0078125 -15.001953125 268.0078125 -13.001953125 c 0
 259.340820312 26.998046875 246.340820312 71.3310546875 229.0078125 119.998046875 c 2
 80.0078125 551.998046875 l 2
 69.3408203125 581.998046875 59.3408203125 602.665039062 50.0078125 613.998046875 c 0
 40.6748046875 625.331054688 27.6748046875 631.998046875 11.0078125 633.998046875 c 2
 -4.9921875 635.998046875 l 1
 -12.9921875 645.331054688 -12.3251953125 653.998046875 -2.9921875 661.998046875 c 1
 19.0078125 659.331054688 48.3408203125 657.998046875 85.0078125 657.998046875 c 0
 122.340820312 657.998046875 156.673828125 659.331054688 188.006835938 661.998046875 c 0
 190.673828125 659.998046875 192.340820312 655.998046875 193.0078125 649.998046875 c 0
 193.674804688 643.998046875 192.674804688 639.331054688 190.0078125 635.998046875 c 2
 177.0078125 633.998046875 l 2
 151.0078125 629.998046875 137.674804688 623.665039062 137.0078125 614.998046875 c 0
 144.340820312 580.998046875 158.673828125 534.665039062 180.006835938 475.998046875 c 0
 188.673828125 449.998046875 200.673828125 414.665039062 216.006835938 369.998046875 c 0
 231.33984375 325.331054688 245.506835938 283.831054688 258.506835938 245.498046875 c 0
 271.506835938 207.165039062 284.33984375 168.998046875 297.006835938 130.998046875 c 1
 310.33984375 162.998046875 337.672851562 236.998046875 379.005859375 352.998046875 c 0
 407.672851562 428.331054688 434.005859375 502.6640625 458.005859375 575.997070312 c 0
 463.338867188 591.997070312 466.005859375 604.997070312 466.005859375 614.997070312 c 0
 466.005859375 624.330078125 453.338867188 630.663085938 428.005859375 633.99609375 c 2
 412.005859375 635.99609375 l 1
 404.005859375 645.329101562 404.672851562 653.99609375 414.005859375 661.99609375 c 1
 435.338867188 659.329101562 464.671875 657.99609375 502.004882812 657.99609375 c 0
 534.671875 657.99609375 563.338867188 659.329101562 588.005859375 661.99609375 c 0
 591.338867188 659.99609375 593.005859375 655.99609375 593.005859375 649.99609375 c 0
 593.005859375 643.99609375 592.005859375 639.329101562 590.005859375 635.99609375 c 2
 564.005859375 633.99609375 l 2
 545.338867188 631.99609375 530.671875 620.663085938 520.004882812 599.99609375 c 0
 497.337890625 554.663085938 465.670898438 477.99609375 425.00390625 369.99609375 c 2
 379.00390625 247.99609375 l 2
 368.336914062 219.329101562 359.169921875 193.49609375 351.502929688 170.49609375 c 0
 343.8359375 147.49609375 334.668945312 120.49609375 324.001953125 89.49609375 c 0
 313.334960938 58.49609375 306.66796875 39.6630859375 304.000976562 32.99609375 c 0
 306.66796875 31.6630859375 310.334960938 30.99609375 315.001953125 30.99609375 c 0
 325.001953125 30.99609375 339.001953125 33.99609375 357.001953125 39.99609375 c 0
 361.001953125 39.3291015625 363.001953125 34.49609375 363.001953125 25.49609375 c 0
 363.001953125 16.49609375 360.668945312 10.6630859375 356.001953125 7.99609375 c 1
 362.001953125 -56.00390625 374.001953125 -110.00390625 392.001953125 -154.00390625 c 1
 397.334960938 -182.00390625 395.66796875 -196.670898438 387.000976562 -198.00390625 c 0
 378.333984375 -199.336914062 359.333984375 -197.169921875 330.000976562 -191.502929688 c 0
 300.66796875 -185.8359375 281.000976562 -188.668945312 271.000976562 -200.001953125 c 1
 258.333984375 -204.668945312 247.666992188 -204.668945312 239 -200.001953125 c 0
 230.333007812 -195.334960938 225.666015625 -187.66796875 224.999023438 -177.000976562 c 0
 224.33203125 -166.333984375 227.33203125 -156.666992188 233.999023438 -148 c 0
 241.999023438 -138 250.666015625 -133.333007812 259.999023438 -134 c 0
 269.33203125 -134.666992188 281.165039062 -137.166992188 295.498046875 -141.5 c 0
 309.831054688 -145.833007812 319.331054688 -147.333007812 323.998046875 -146 c 0
 328.665039062 -144.666992188 329.998046875 -137.666992188 327.998046875 -125 c 0
 322.665039062 -103.666992188 317.33203125 -63.6669921875 311.999023438 -5 c 0
 309.33203125 -5 306.33203125 -5.5 302.999023438 -6.5 c 0
 299.666015625 -7.5 296.333007812 -8.3330078125 293 -9 c 0
272.0078125 820.997070312 m 2
 353.0078125 785.998046875 l 2
 371.0078125 778.665039062 385.0078125 779.165039062 395.0078125 787.498046875 c 0
 405.0078125 795.831054688 416.674804688 811.998046875 430.0078125 835.998046875 c 0
 432.0078125 839.331054688 435.174804688 840.6640625 439.5078125 839.997070312 c 0
 443.840820312 839.330078125 446.340820312 836.663085938 447.0078125 831.99609375 c 0
 449.0078125 800.663085938 440.674804688 773.663085938 422.0078125 750.99609375 c 0
 400.0078125 725.663085938 370.0078125 719.99609375 332.0078125 733.99609375 c 2
 253.0078125 767.99609375 l 2
 225.0078125 778.663085938 196.674804688 761.663085938 168.0078125 716.99609375 c 0
 166.0078125 713.663085938 162.840820312 712.99609375 158.5078125 714.99609375 c 0
 154.174804688 716.99609375 151.674804688 719.329101562 151.0078125 721.99609375 c 0
 148.340820312 743.99609375 161.0078125 770.329101562 189.0078125 800.99609375 c 0
 197.0078125 811.663085938 209.174804688 819.330078125 225.5078125 823.997070312 c 0
 241.840820312 828.6640625 257.340820312 827.6640625 272.0078125 820.997070312 c 2
EndSplineSet
EndChar

StartChar: R
Encoding: 82 82 45
Width: 465
GlyphClass: 2
Flags: W
LayerCount: 2
Fore
SplineSet
102 645 m 1
 112.666992188 647.666992188 125.830078125 649.6640625 141.497070312 650.997070312 c 0
 157.1640625 652.330078125 169.6640625 653.663085938 178.997070312 654.99609375 c 0
 183.6640625 656.329101562 194.831054688 656.329101562 212.498046875 654.99609375 c 0
 230.165039062 653.663085938 249.33203125 650.99609375 269.999023438 646.99609375 c 0
 290.666015625 642.99609375 310.333007812 635.99609375 329 625.99609375 c 0
 345 617.99609375 358.166992188 602.99609375 368.5 580.99609375 c 0
 378.833007812 558.99609375 376.666015625 533.663085938 361.999023438 504.99609375 c 0
 347.33203125 479.663085938 335.665039062 462.330078125 326.998046875 452.997070312 c 2
 237.998046875 364.997070312 l 1
 243.998046875 362.997070312 257.498046875 358.330078125 278.498046875 350.997070312 c 0
 299.498046875 343.6640625 320.498046875 332.831054688 341.498046875 318.498046875 c 0
 362.498046875 304.165039062 379.665039062 286.33203125 392.998046875 264.999023438 c 0
 430.331054688 208.33203125 434.6640625 149.665039062 405.997070312 88.998046875 c 0
 396.6640625 71.6650390625 384.497070312 55.83203125 369.497070312 41.4990234375 c 0
 354.497070312 27.166015625 330.997070312 13.666015625 298.997070312 0.9990234375 c 0
 265.6640625 -15.0009765625 223.6640625 -17.66796875 172.997070312 -7.0009765625 c 0
 139.6640625 -1.0009765625 111.331054688 15.666015625 87.998046875 42.9990234375 c 0
 52.6650390625 83.666015625 36.6650390625 128.999023438 39.998046875 178.999023438 c 0
 43.3310546875 228.999023438 58.998046875 269.33203125 86.998046875 299.999023438 c 0
 136.331054688 353.33203125 173.6640625 386.33203125 198.997070312 398.999023438 c 0
 199.6640625 402.33203125 213.331054688 413.499023438 239.998046875 432.499023438 c 0
 266.665039062 451.499023438 286.665039062 468.666015625 299.998046875 483.999023438 c 0
 312.665039062 498.666015625 321.33203125 516.166015625 325.999023438 536.499023438 c 0
 330.666015625 556.83203125 328.666015625 572.33203125 319.999023438 582.999023438 c 0
 313.33203125 592.33203125 304.33203125 597.999023438 292.999023438 599.999023438 c 0
 281.666015625 601.999023438 263.333007812 603.666015625 238 604.999023438 c 0
 208 606.33203125 183.333007812 602.999023438 164 594.999023438 c 0
 144.666992188 587.666015625 129 584.166015625 117 584.499023438 c 0
 105 584.83203125 96.8330078125 588.499023438 92.5 595.499023438 c 0
 88.1669921875 602.499023438 87.1669921875 610.83203125 89.5 620.499023438 c 0
 91.8330078125 630.166015625 96 638.333007812 102 645 c 1
126.99609375 231.997070312 m 1
 118.99609375 199.330078125 117.163085938 168.497070312 121.49609375 139.497070312 c 0
 125.829101562 110.497070312 134.662109375 86.9970703125 147.995117188 68.9970703125 c 0
 172.662109375 39.6640625 197.995117188 24.9970703125 223.995117188 24.9970703125 c 0
 266.662109375 24.9970703125 296.662109375 38.6640625 313.995117188 65.9970703125 c 0
 341.995117188 111.997070312 351.328125 162.997070312 341.995117188 218.997070312 c 0
 338.662109375 252.330078125 324.495117188 279.497070312 299.495117188 300.497070312 c 0
 274.495117188 321.497070312 245.328125 334.6640625 211.995117188 339.997070312 c 1
 172.662109375 313.997070312 144.329101562 277.997070312 126.99609375 231.997070312 c 1
209.99609375 -270.002929688 m 1
 209.99609375 -65.0029296875 l 1
 259.99609375 -65.0029296875 l 1
 259.99609375 -270.002929688 l 1
 209.99609375 -270.002929688 l 1
EndSplineSet
EndChar

StartChar: S
Encoding: 83 83 46
Width: 652
GlyphClass: 2
Flags: W
LayerCount: 2
Fore
SplineSet
453 37 m 1
 454.00390625 36.998046875 l 1
 436.670898438 2.3310546875 409.670898438 -15.001953125 373.00390625 -15.001953125 c 0
 342.336914062 -15.001953125 318.669921875 3.6650390625 302.002929688 40.998046875 c 0
 299.3359375 44.3310546875 296.668945312 44.3310546875 294.001953125 40.998046875 c 0
 260.001953125 3.6650390625 225.668945312 -15.001953125 191.001953125 -15.001953125 c 0
 156.334960938 -15.001953125 129.834960938 -3.1689453125 111.501953125 20.498046875 c 0
 93.1689453125 44.1650390625 84.001953125 73.6650390625 84.001953125 108.998046875 c 2
 84.001953125 280.998046875 l 2
 84.001953125 318.998046875 82.3349609375 342.331054688 79.001953125 350.998046875 c 0
 75.6689453125 359.665039062 66.001953125 365.665039062 50.001953125 368.998046875 c 2
 12.001953125 370.998046875 l 2
 8.6689453125 374.331054688 7.3359375 378.998046875 8.0029296875 384.998046875 c 0
 8.669921875 390.998046875 10.669921875 394.665039062 14.0029296875 395.998046875 c 0
 60.0029296875 393.998046875 94.3359375 392.998046875 117.002929688 392.998046875 c 0
 146.3359375 392.998046875 181.3359375 393.998046875 222.002929688 395.998046875 c 0
 224.669921875 395.331054688 226.336914062 391.6640625 227.00390625 384.997070312 c 0
 227.670898438 378.330078125 226.670898438 373.663085938 224.00390625 370.99609375 c 2
 192.00390625 368.99609375 l 2
 176.00390625 366.329101562 166.336914062 360.329101562 163.00390625 350.99609375 c 0
 159.670898438 341.663085938 158.00390625 318.330078125 158.00390625 280.997070312 c 2
 158.00390625 136.997070312 l 2
 156.670898438 68.330078125 177.670898438 33.9970703125 221.00390625 33.9970703125 c 0
 249.00390625 33.9970703125 269.00390625 45.6640625 281.00390625 68.9970703125 c 0
 291.670898438 85.6640625 292.00390625 120.997070312 282.00390625 174.997070312 c 0
 279.336914062 188.997070312 283.50390625 199.1640625 294.50390625 205.497070312 c 0
 305.50390625 211.830078125 316.50390625 212.330078125 327.50390625 206.997070312 c 0
 338.50390625 201.6640625 343.00390625 191.331054688 341.00390625 175.998046875 c 0
 334.336914062 124.665039062 335.669921875 88.1650390625 345.002929688 66.498046875 c 0
 354.3359375 44.8310546875 371.3359375 33.998046875 396.002929688 33.998046875 c 0
 418.669921875 33.998046875 437.002929688 45.6650390625 451.002929688 68.998046875 c 0
 459.669921875 81.6650390625 464.002929688 100.998046875 464.002929688 126.998046875 c 2
 464.002929688 280.998046875 l 2
 464.002929688 318.331054688 462.3359375 341.6640625 459.002929688 350.997070312 c 0
 455.669921875 360.330078125 446.002929688 366.330078125 430.002929688 368.997070312 c 2
 398.002929688 370.997070312 l 2
 394.669921875 374.330078125 393.336914062 378.997070312 394.00390625 384.997070312 c 0
 394.670898438 390.997070312 396.670898438 394.6640625 400.00390625 395.997070312 c 0
 440.00390625 393.997070312 475.00390625 392.997070312 505.00390625 392.997070312 c 0
 529.670898438 392.997070312 564.00390625 393.997070312 608.00390625 395.997070312 c 0
 610.670898438 395.330078125 612.337890625 391.663085938 613.004882812 384.99609375 c 0
 613.671875 378.329101562 612.671875 373.662109375 610.004882812 370.995117188 c 2
 572.004882812 368.995117188 l 2
 556.004882812 365.662109375 546.337890625 359.662109375 543.004882812 350.995117188 c 0
 539.671875 342.328125 538.004882812 318.995117188 538.004882812 280.995117188 c 2
 538.004882812 145.995117188 l 2
 538.004882812 103.995117188 539.837890625 75.328125 543.504882812 59.9951171875 c 0
 547.171875 44.662109375 555.671875 36.9951171875 569.004882812 36.9951171875 c 0
 579.671875 36.9951171875 592.671875 38.662109375 608.004882812 41.9951171875 c 0
 609.337890625 40.662109375 610.670898438 37.8291015625 612.00390625 33.49609375 c 0
 613.336914062 29.1630859375 613.336914062 24.830078125 612.00390625 20.4970703125 c 0
 610.670898438 16.1640625 609.00390625 13.6640625 607.00390625 12.9970703125 c 0
 610.336914062 -53.0029296875 621.336914062 -108.669921875 640.00390625 -154.002929688 c 1
 645.336914062 -182.002929688 643.669921875 -196.669921875 635.002929688 -198.002929688 c 0
 626.3359375 -199.3359375 607.3359375 -197.168945312 578.002929688 -191.501953125 c 0
 548.669921875 -185.834960938 529.002929688 -188.66796875 519.002929688 -200.000976562 c 1
 506.3359375 -204.66796875 495.668945312 -204.66796875 487.001953125 -200.000976562 c 0
 478.334960938 -195.333984375 473.66796875 -187.666992188 473.000976562 -177 c 0
 472.333984375 -166.333007812 475.333984375 -156.666015625 482.000976562 -147.999023438 c 0
 490.000976562 -137.999023438 498.66796875 -133.33203125 508.000976562 -133.999023438 c 0
 517.333984375 -134.666015625 529.166992188 -137.166015625 543.5 -141.499023438 c 0
 557.833007812 -145.83203125 567.333007812 -147.33203125 572 -145.999023438 c 0
 576.666992188 -144.666015625 578 -137.666015625 576 -124.999023438 c 0
 570 -100.999023438 564.666992188 -58.33203125 560 3.0009765625 c 1
 536 -2.33203125 518 -6.9990234375 506 -10.9990234375 c 0
 493.333007812 -15.666015625 483.333007812 -19.9990234375 476 -23.9990234375 c 0
 470.666992188 -23.9990234375 466.666992188 -21.666015625 464 -16.9990234375 c 2
 464 24.0009765625 l 2
 464 33.333984375 460.333007812 37.6669921875 453 37 c 1
EndSplineSet
EndChar

StartChar: T
Encoding: 84 84 47
Width: 309
GlyphClass: 2
Flags: W
LayerCount: 2
Fore
SplineSet
210 0 m 1
 149.00390625 -0.0107421875 l 2
 117.00390625 -0.0107421875 83.00390625 -1.0107421875 47.00390625 -3.0107421875 c 0
 43.00390625 -0.34375 40.6708984375 3.8232421875 40.00390625 9.490234375 c 0
 39.3369140625 15.1572265625 41.00390625 19.32421875 45.00390625 21.9912109375 c 2
 74.00390625 24.9912109375 l 2
 92.00390625 26.9912109375 102.836914062 32.4912109375 106.50390625 41.4912109375 c 0
 110.170898438 50.4912109375 112.00390625 73.658203125 112.00390625 110.991210938 c 2
 112.00390625 173.991210938 l 1
 29.00390625 173.991210938 l 1
 29.00390625 219.991210938 l 1
 112.00390625 219.991210938 l 1
 112.00390625 286.991210938 l 2
 112.00390625 312.991210938 109.670898438 329.32421875 105.00390625 335.991210938 c 0
 100.336914062 342.658203125 87.00390625 348.658203125 65.00390625 353.991210938 c 2
 56.00390625 355.991210938 l 2
 54.00390625 357.991210938 53.00390625 360.82421875 53.00390625 364.491210938 c 0
 53.00390625 368.158203125 54.3369140625 370.658203125 57.00390625 371.991210938 c 0
 111.00390625 380.658203125 151.336914062 400.325195312 178.00390625 430.9921875 c 1
 186.00390625 429.659179688 190.00390625 427.326171875 190.00390625 423.993164062 c 2
 186.00390625 355.993164062 l 1
 186.00390625 219.993164062 l 1
 265.00390625 219.993164062 l 1
 265.00390625 173.993164062 l 1
 186.00390625 173.993164062 l 1
 186.00390625 110.993164062 l 2
 186.00390625 73.66015625 187.836914062 50.9931640625 191.50390625 42.9931640625 c 0
 195.170898438 34.9931640625 205.337890625 30.9931640625 222.004882812 30.9931640625 c 0
 226.671875 30.9931640625 232.671875 32.66015625 240.004882812 35.9931640625 c 0
 247.337890625 39.326171875 253.337890625 41.326171875 258.004882812 41.9931640625 c 0
 259.337890625 40.66015625 260.670898438 37.8271484375 262.00390625 33.494140625 c 0
 263.336914062 29.1611328125 263.336914062 24.828125 262.00390625 20.4951171875 c 0
 260.670898438 16.162109375 259.00390625 13.662109375 257.00390625 12.9951171875 c 0
 260.336914062 -53.0048828125 271.336914062 -108.671875 290.00390625 -154.004882812 c 1
 295.336914062 -182.004882812 293.669921875 -196.671875 285.002929688 -198.004882812 c 0
 276.3359375 -199.337890625 257.3359375 -197.170898438 228.002929688 -191.50390625 c 0
 198.669921875 -185.836914062 179.002929688 -188.669921875 169.002929688 -200.002929688 c 1
 156.3359375 -204.669921875 145.668945312 -204.669921875 137.001953125 -200.002929688 c 0
 128.334960938 -195.3359375 123.66796875 -187.668945312 123.000976562 -177.001953125 c 0
 122.333984375 -166.334960938 125.333984375 -156.66796875 132.000976562 -148.000976562 c 0
 140.000976562 -138.000976562 148.66796875 -133.333984375 158.000976562 -134.000976562 c 0
 167.333984375 -134.66796875 179.166992188 -137.16796875 193.5 -141.500976562 c 0
 207.833007812 -145.833984375 217.333007812 -147.333984375 222 -146.000976562 c 0
 226.666992188 -144.66796875 228 -137.66796875 226 -125.000976562 c 0
 220 -100.333984375 214.666992188 -58.6669921875 210 0 c 1
149.00390625 615.989257812 m 0
 166.336914062 615.989257812 179.837890625 610.654296875 189.504882812 599.987304688 c 0
 199.171875 589.3203125 204.004882812 575.3203125 204.004882812 557.987304688 c 0
 204.004882812 539.987304688 198.337890625 526.154296875 187.004882812 516.487304688 c 0
 175.671875 506.8203125 162.004882812 501.987304688 146.004882812 501.987304688 c 0
 129.337890625 501.987304688 115.670898438 507.3203125 105.00390625 517.987304688 c 0
 94.3369140625 528.654296875 89.00390625 541.321289062 89.00390625 555.98828125 c 0
 89.00390625 574.655273438 95.00390625 589.322265625 107.00390625 599.989257812 c 0
 119.00390625 610.65625 133.00390625 615.989257812 149.00390625 615.989257812 c 0
EndSplineSet
EndChar

StartChar: U
Encoding: 85 85 48
Width: 504
GlyphClass: 2
Flags: W
LayerCount: 2
Fore
SplineSet
31 362 m 0
 29 365.333007812 28.330078125 371.66796875 28.9970703125 381.000976562 c 0
 29.6640625 390.333984375 31.3310546875 395.333984375 33.998046875 396.000976562 c 0
 51.998046875 394.66796875 62.498046875 393.834960938 65.498046875 393.501953125 c 0
 68.498046875 393.168945312 71.3310546875 393.001953125 73.998046875 393.001953125 c 2
 84.998046875 393.001953125 l 2
 102.998046875 393.001953125 131.331054688 394.001953125 169.998046875 396.001953125 c 0
 173.331054688 394.668945312 175.1640625 390.8359375 175.497070312 384.502929688 c 0
 175.830078125 378.169921875 174.330078125 371.336914062 170.997070312 364.00390625 c 0
 155.6640625 343.336914062 142.997070312 313.669921875 132.997070312 275.002929688 c 0
 122.997070312 236.3359375 117.997070312 196.002929688 117.997070312 154.002929688 c 0
 117.997070312 115.3359375 129.330078125 83.3359375 151.997070312 58.0029296875 c 0
 174.6640625 32.669921875 206.997070312 19.669921875 248.997070312 19.0029296875 c 1
 286.997070312 23.0029296875 316.497070312 37.5029296875 337.497070312 62.5029296875 c 0
 358.497070312 87.5029296875 368.997070312 118.002929688 368.997070312 154.002929688 c 0
 368.997070312 240.669921875 351.330078125 310.669921875 315.997070312 364.002929688 c 0
 313.330078125 369.3359375 311.997070312 375.502929688 311.997070312 382.502929688 c 0
 311.997070312 389.502929688 313.6640625 394.002929688 316.997070312 396.002929688 c 0
 356.330078125 394.002929688 384.663085938 393.002929688 401.99609375 393.002929688 c 2
 412.99609375 393.002929688 l 2
 415.663085938 393.002929688 418.330078125 393.169921875 420.997070312 393.502929688 c 0
 423.6640625 393.8359375 434.331054688 394.668945312 452.998046875 396.001953125 c 0
 456.998046875 395.334960938 458.998046875 390.501953125 458.998046875 381.501953125 c 0
 458.998046875 372.501953125 457.331054688 366.334960938 453.998046875 363.001953125 c 0
 432.665039062 364.334960938 415.33203125 365.001953125 401.999023438 365.001953125 c 0
 388.666015625 365.001953125 378.999023438 362.168945312 372.999023438 356.501953125 c 0
 366.999023438 350.834960938 367.33203125 341.334960938 373.999023438 328.001953125 c 0
 384.666015625 312.668945312 395.999023438 295.668945312 407.999023438 277.001953125 c 0
 419.999023438 258.334960938 429.999023438 239.66796875 437.999023438 221.000976562 c 0
 445.999023438 202.333984375 450.666015625 183.000976562 451.999023438 163.000976562 c 0
 457.33203125 111.000976562 442.33203125 68.333984375 406.999023438 35.0009765625 c 0
 371.666015625 1.66796875 317.666015625 -14.9990234375 244.999023438 -14.9990234375 c 0
 171.666015625 -14.9990234375 117.333007812 1.333984375 82 34.0009765625 c 0
 46.6669921875 66.66796875 31 109.66796875 35 163.000976562 c 0
 36.3330078125 183.000976562 41.3330078125 202.833984375 50 222.500976562 c 0
 58.6669921875 242.16796875 71 263.66796875 87 287.000976562 c 0
 103 310.333984375 112 323.666992188 114 327 c 0
 123.333007812 347 120 358.166992188 104 360.5 c 0
 88 362.833007812 63.6669921875 363.333007812 31 362 c 0
228.997070312 578.001953125 m 2
 309.99609375 542.000976562 l 2
 327.99609375 534.66796875 341.99609375 535.16796875 351.99609375 543.500976562 c 0
 361.99609375 551.833984375 373.663085938 568.000976562 386.99609375 592.000976562 c 0
 388.99609375 596.000976562 392.163085938 597.66796875 396.49609375 597.000976562 c 0
 400.829101562 596.333984375 403.329101562 593.333984375 403.99609375 588.000976562 c 0
 405.99609375 555.333984375 397.663085938 528.333984375 378.99609375 507.000976562 c 0
 367.663085938 494.333984375 353.663085938 487.000976562 336.99609375 485.000976562 c 0
 320.329101562 483.000976562 304.329101562 484.66796875 288.99609375 490.000976562 c 2
 209.99609375 523.000976562 l 2
 182.663085938 535.000976562 154.330078125 518.66796875 124.997070312 474.000976562 c 0
 122.997070312 470.000976562 119.830078125 469.000976562 115.497070312 471.000976562 c 0
 111.1640625 473.000976562 108.6640625 475.66796875 107.997070312 479.000976562 c 0
 105.330078125 501.000976562 117.997070312 527.333984375 145.997070312 558.000976562 c 0
 153.997070312 568.66796875 166.1640625 576.334960938 182.497070312 581.001953125 c 0
 198.830078125 585.668945312 214.330078125 584.668945312 228.997070312 578.001953125 c 2
EndSplineSet
EndChar

StartChar: V
Encoding: 86 86 49
Width: 195
GlyphClass: 2
Flags: W
LayerCount: 2
Fore
SplineSet
109 -124 m 1
 -27 -124 l 1
 -27 -76 l 1
 98 -76 l 1
 109 -124 l 1
115 10 m 1
 145 155 l 1
 181 130 l 1
 152 -15 l 1
 115 10 l 1
EndSplineSet
EndChar

StartChar: W
Encoding: 87 87 50
Width: 530
GlyphClass: 2
Flags: W
LayerCount: 2
Fore
SplineSet
88 508 m 2
 90.6669921875 580 110.16796875 631.990234375 146.500976562 663.990234375 c 0
 182.833984375 695.990234375 225.333984375 711.990234375 274.000976562 711.990234375 c 0
 344.000976562 711.990234375 388.000976562 700.657226562 406.000976562 677.990234375 c 0
 411.333984375 675.323242188 416.166992188 667.65625 420.5 654.989257812 c 0
 424.833007812 642.322265625 424.333007812 628.322265625 419 612.989257812 c 0
 415 601.65625 405.333007812 595.65625 390 594.989257812 c 0
 374.666992188 594.322265625 365.333984375 598.989257812 362.000976562 608.989257812 c 0
 360.66796875 616.989257812 359.334960938 625.322265625 358.001953125 633.989257812 c 0
 356.668945312 642.65625 353.501953125 650.823242188 348.501953125 658.490234375 c 0
 343.501953125 666.157226562 333.334960938 672.32421875 318.001953125 676.991210938 c 0
 302.668945312 681.658203125 282.3359375 682.991210938 257.002929688 680.991210938 c 0
 236.3359375 679.658203125 215.8359375 668.825195312 195.502929688 648.4921875 c 0
 175.169921875 628.159179688 164.002929688 594.659179688 162.002929688 547.9921875 c 2
 162.002929688 373.9921875 l 2
 162.002929688 363.325195312 163.3359375 356.9921875 166.002929688 354.9921875 c 0
 210.669921875 389.659179688 255.669921875 406.9921875 301.002929688 406.9921875 c 0
 346.3359375 406.9921875 379.168945312 395.325195312 399.501953125 371.9921875 c 0
 419.834960938 348.659179688 430.001953125 317.326171875 430.001953125 277.993164062 c 2
 430.001953125 110.993164062 l 2
 430.001953125 83.66015625 430.668945312 64.8271484375 432.001953125 54.494140625 c 0
 433.334960938 44.1611328125 436.66796875 36.994140625 442.000976562 32.994140625 c 0
 447.333984375 28.994140625 456.000976562 26.3271484375 468.000976562 24.994140625 c 2
 503.000976562 21.994140625 l 2
 507.000976562 19.994140625 508.66796875 15.8271484375 508.000976562 9.494140625 c 0
 507.333984375 3.1611328125 505.000976562 -1.005859375 501.000976562 -3.005859375 c 0
 457.000976562 -1.005859375 421.000976562 -0.005859375 393.000976562 -0.005859375 c 0
 361.000976562 -0.005859375 327.333984375 -1.005859375 292.000976562 -3.005859375 c 0
 288.000976562 -0.3388671875 285.66796875 3.828125 285.000976562 9.4951171875 c 0
 284.333984375 15.162109375 286.000976562 19.3291015625 290.000976562 21.99609375 c 2
 318.000976562 24.99609375 l 2
 336.000976562 27.6630859375 346.833984375 33.330078125 350.500976562 41.9970703125 c 0
 354.16796875 50.6640625 356.000976562 73.6640625 356.000976562 110.997070312 c 2
 356.000976562 253.997070312 l 2
 356.000976562 287.330078125 348.000976562 313.497070312 332.000976562 332.497070312 c 0
 316.000976562 351.497070312 292.333984375 360.997070312 261.000976562 360.997070312 c 0
 230.333984375 360.997070312 204.333984375 351.997070312 183.000976562 333.997070312 c 0
 174.333984375 327.330078125 168.666992188 320.830078125 166 314.497070312 c 0
 163.333007812 308.1640625 162 296.331054688 162 278.998046875 c 2
 162 110.998046875 l 2
 162 74.998046875 164 52.1650390625 168 42.498046875 c 0
 172 32.8310546875 182.666992188 26.998046875 200 24.998046875 c 2
 229 21.998046875 l 2
 233 19.998046875 234.666992188 15.8310546875 234 9.498046875 c 0
 233.333007812 3.1650390625 231 -1.001953125 227 -3.001953125 c 0
 189 -1.001953125 155 -0.001953125 125 -0.001953125 c 0
 94.3330078125 -0.001953125 59 -1.001953125 19 -3.001953125 c 0
 15 -0.3349609375 12.6669921875 3.83203125 12 9.4990234375 c 0
 11.3330078125 15.166015625 13 19.3330078125 17 22 c 2
 50 25 l 2
 68 27 78.8330078125 32.5 82.5 41.5 c 0
 86.1669921875 50.5 88 73.6669921875 88 111 c 2
 88 508 l 2
EndSplineSet
EndChar

StartChar: X
Encoding: 88 88 51
Width: 530
GlyphClass: 2
Flags: W
LayerCount: 2
Fore
SplineSet
439 14 m 0
 456.333007812 11.3330078125 467.833007812 13.166015625 473.5 19.4990234375 c 0
 479.166992188 25.83203125 482.333984375 33.83203125 483.000976562 43.4990234375 c 0
 483.66796875 53.166015625 484.66796875 64.3330078125 486.000976562 77 c 0
 488.000976562 83 493.16796875 87.1669921875 501.500976562 89.5 c 0
 509.833984375 91.8330078125 518.166992188 91.5 526.5 88.5 c 0
 534.833007812 85.5 540.333007812 80 543 72 c 0
 551.666992188 46.6669921875 548.333984375 27.6669921875 533.000976562 15 c 0
 511.66796875 -6.3330078125 484.334960938 -18.3330078125 451.001953125 -21 c 1
 376.334960938 -13.6669921875 339.001953125 40 339.001953125 140 c 1
 345.001953125 180 l 1
 162.001953125 180 l 1
 162.001953125 111 l 2
 162.001953125 75 164.001953125 52.1669921875 168.001953125 42.5 c 0
 172.001953125 32.8330078125 182.668945312 27 200.001953125 25 c 2
 229.001953125 22 l 2
 233.001953125 20 234.668945312 15.8330078125 234.001953125 9.5 c 0
 233.334960938 3.1669921875 231.001953125 -1 227.001953125 -3 c 0
 189.001953125 -1 155.001953125 0 125.001953125 0 c 0
 94.3349609375 0 59.001953125 -1 19.001953125 -3 c 0
 15.001953125 -0.3330078125 12.6689453125 3.833984375 12.001953125 9.5009765625 c 0
 11.3349609375 15.16796875 13.001953125 19.3349609375 17.001953125 22.001953125 c 2
 50.001953125 25.001953125 l 2
 68.001953125 27.001953125 78.8349609375 32.501953125 82.501953125 41.501953125 c 0
 86.1689453125 50.501953125 88.001953125 73.6689453125 88.001953125 111.001953125 c 2
 88.001953125 180.001953125 l 1
 39.001953125 180.001953125 l 1
 39.001953125 217.001953125 l 1
 88.001953125 217.001953125 l 1
 88.001953125 600.001953125 l 2
 88.001953125 620.668945312 83.6689453125 633.3359375 75.001953125 638.002929688 c 0
 66.3349609375 642.669921875 50.66796875 645.669921875 28.0009765625 647.002929688 c 2
 10.0009765625 649.002929688 l 2
 8.0009765625 652.3359375 7.0009765625 656.168945312 7.0009765625 660.501953125 c 0
 7.0009765625 664.834960938 8.333984375 667.66796875 11.0009765625 669.000976562 c 0
 58.333984375 685.66796875 104.333984375 706.000976562 149.000976562 730.000976562 c 1
 163.000976562 727.333984375 170.000976562 724.333984375 170.000976562 721.000976562 c 2
 162.000976562 646.000976562 l 1
 162.000976562 374.000976562 l 2
 162.000976562 363.333984375 163.333984375 357.000976562 166.000976562 355.000976562 c 0
 210.66796875 389.66796875 255.66796875 407.000976562 301.000976562 407.000976562 c 0
 331.66796875 407.000976562 357.66796875 400.66796875 379.000976562 388.000976562 c 0
 400.333984375 375.333984375 415.166992188 357.500976562 423.5 334.500976562 c 0
 431.833007812 311.500976562 433 286.000976562 427 258.000976562 c 0
 422.333007812 233.333984375 419.666015625 219.666992188 418.999023438 217 c 1
 482.999023438 217 l 1
 482.999023438 180 l 1
 411.999023438 180 l 1
 401.999023438 124 398.33203125 84 400.999023438 60 c 0
 403.666015625 36 416.333007812 20.6669921875 439 14 c 0
356 254 m 1
 356 287.333007812 348.000976562 313.499023438 332.000976562 332.499023438 c 0
 316.000976562 351.499023438 292.333984375 360.999023438 261.000976562 360.999023438 c 0
 230.333984375 360.999023438 204.333984375 351.999023438 183.000976562 333.999023438 c 0
 174.333984375 327.33203125 168.666992188 320.83203125 166 314.499023438 c 0
 163.333007812 308.166015625 162 296.333007812 162 279 c 2
 162 217 l 1
 350 217 l 1
 356 254 l 1
EndSplineSet
EndChar

StartChar: Y
Encoding: 89 89 52
Width: 470
GlyphClass: 2
Flags: W
LayerCount: 2
Fore
SplineSet
189 86 m 2
 189.005859375 120.997070312 l 2
 189.005859375 134.997070312 187.672851562 145.830078125 185.005859375 153.497070312 c 0
 182.338867188 161.1640625 174.338867188 175.6640625 161.005859375 196.997070312 c 2
 91.005859375 318.997070312 l 2
 80.3388671875 337.6640625 71.171875 350.497070312 63.5048828125 357.497070312 c 0
 55.837890625 364.497070312 46.337890625 368.330078125 35.0048828125 368.997070312 c 2
 2.0048828125 372.997070312 l 2
 -1.9951171875 376.997070312 -3.328125 381.497070312 -1.9951171875 386.497070312 c 0
 -0.662109375 391.497070312 1.6708984375 394.330078125 5.00390625 394.997070312 c 0
 58.3369140625 393.6640625 90.669921875 392.997070312 102.002929688 392.997070312 c 0
 110.669921875 392.997070312 141.002929688 393.6640625 193.002929688 394.997070312 c 0
 196.3359375 394.330078125 198.3359375 390.830078125 199.002929688 384.497070312 c 0
 199.669921875 378.1640625 198.002929688 374.331054688 194.002929688 372.998046875 c 2
 166.002929688 369.998046875 l 2
 156.002929688 367.998046875 150.3359375 364.665039062 149.002929688 359.998046875 c 0
 147.669921875 355.331054688 150.336914062 345.998046875 157.00390625 331.998046875 c 2
 193.00390625 267.998046875 l 2
 207.00390625 241.998046875 221.670898438 216.665039062 237.00390625 191.998046875 c 1
 242.336914062 199.998046875 247.00390625 207.331054688 251.00390625 213.998046875 c 0
 255.00390625 220.665039062 260.836914062 230.165039062 268.50390625 242.498046875 c 0
 276.170898438 254.831054688 281.00390625 263.331054688 283.00390625 267.998046875 c 2
 322.00390625 333.998046875 l 2
 330.00390625 347.331054688 333.836914062 356.498046875 333.50390625 361.498046875 c 0
 333.170898438 366.498046875 327.00390625 369.331054688 315.00390625 369.998046875 c 2
 293.00390625 372.998046875 l 2
 289.00390625 374.998046875 287.00390625 378.831054688 287.00390625 384.498046875 c 0
 287.00390625 390.165039062 289.670898438 393.665039062 295.00390625 394.998046875 c 0
 344.336914062 393.665039062 371.669921875 392.998046875 377.002929688 392.998046875 c 0
 380.3359375 392.998046875 406.002929688 393.665039062 454.002929688 394.998046875 c 0
 458.002929688 394.331054688 460.3359375 390.998046875 461.002929688 384.998046875 c 0
 461.669921875 378.998046875 460.002929688 374.998046875 456.002929688 372.998046875 c 2
 424.002929688 368.998046875 l 2
 409.3359375 366.998046875 398.668945312 362.831054688 392.001953125 356.498046875 c 0
 385.334960938 350.165039062 374.334960938 335.33203125 359.001953125 311.999023438 c 2
 299.001953125 221.999023438 l 2
 281.001953125 193.999023438 270.334960938 175.666015625 267.001953125 166.999023438 c 0
 263.668945312 158.33203125 262.001953125 147.33203125 262.001953125 133.999023438 c 2
 262.001953125 85.9990234375 l 2
 262.001953125 65.9990234375 263.001953125 52.33203125 265.001953125 44.9990234375 c 0
 267.001953125 37.666015625 271.334960938 32.3330078125 278.001953125 29 c 0
 284.668945312 25.6669921875 294.668945312 23.6669921875 308.001953125 23 c 2
 340.001953125 20 l 2
 343.334960938 18.6669921875 344.66796875 15 344.000976562 9 c 0
 343.333984375 3 341.333984375 -1 338.000976562 -3 c 0
 287.333984375 -1 249.666992188 0 225 0 c 0
 201.666992188 0 164.333984375 -1 113.000976562 -3 c 0
 109.66796875 -1 107.66796875 2.8330078125 107.000976562 8.5 c 0
 106.333984375 14.1669921875 107.666992188 18 111 20 c 2
 143 23 l 2
 164.333007812 25 177.333007812 29.5 182 36.5 c 0
 186.666992188 43.5 189 60 189 86 c 2
212.005859375 577.997070312 m 2
 293.004882812 541.99609375 l 2
 311.004882812 534.663085938 325.004882812 535.163085938 335.004882812 543.49609375 c 0
 345.004882812 551.829101562 356.671875 567.99609375 370.004882812 591.99609375 c 0
 372.004882812 595.99609375 375.171875 597.663085938 379.504882812 596.99609375 c 0
 383.837890625 596.329101562 386.337890625 593.329101562 387.004882812 587.99609375 c 0
 389.004882812 555.329101562 380.671875 528.329101562 362.004882812 506.99609375 c 0
 350.671875 494.329101562 336.671875 486.99609375 320.004882812 484.99609375 c 0
 303.337890625 482.99609375 287.337890625 484.663085938 272.004882812 489.99609375 c 2
 193.004882812 522.99609375 l 2
 165.671875 534.99609375 137.338867188 518.663085938 108.005859375 473.99609375 c 0
 106.005859375 469.99609375 102.838867188 468.99609375 98.505859375 470.99609375 c 0
 94.1728515625 472.99609375 91.6728515625 475.663085938 91.005859375 478.99609375 c 0
 88.3388671875 500.99609375 101.005859375 527.329101562 129.005859375 557.99609375 c 0
 137.005859375 568.663085938 149.172851562 576.330078125 165.505859375 580.997070312 c 0
 181.838867188 585.6640625 197.338867188 584.6640625 212.005859375 577.997070312 c 2
EndSplineSet
EndChar

StartChar: Z
Encoding: 90 90 53
Width: 552
GlyphClass: 2
Flags: W
LayerCount: 2
Fore
SplineSet
229 120 m 2
 80.00390625 552.001953125 l 2
 69.3369140625 582.001953125 59.3369140625 602.668945312 50.00390625 614.001953125 c 0
 40.6708984375 625.334960938 27.6708984375 632.001953125 11.00390625 634.001953125 c 2
 -4.99609375 636.001953125 l 1
 -12.99609375 645.334960938 -12.3291015625 654.001953125 -2.99609375 662.001953125 c 1
 19.00390625 659.334960938 48.3369140625 658.001953125 85.00390625 658.001953125 c 0
 122.336914062 658.001953125 156.669921875 659.334960938 188.002929688 662.001953125 c 0
 190.669921875 660.001953125 192.336914062 656.001953125 193.00390625 650.001953125 c 0
 193.670898438 644.001953125 192.670898438 639.334960938 190.00390625 636.001953125 c 2
 177.00390625 634.001953125 l 2
 151.00390625 630.001953125 137.670898438 623.668945312 137.00390625 615.001953125 c 0
 144.336914062 581.001953125 158.669921875 534.668945312 180.002929688 476.001953125 c 0
 188.669921875 450.001953125 200.669921875 414.668945312 216.002929688 370.001953125 c 0
 231.3359375 325.334960938 245.502929688 283.834960938 258.502929688 245.501953125 c 0
 271.502929688 207.168945312 284.3359375 169.001953125 297.002929688 131.001953125 c 1
 310.3359375 163.001953125 337.668945312 237.001953125 379.001953125 353.001953125 c 0
 407.668945312 428.334960938 434.001953125 502.66796875 458.001953125 576.000976562 c 0
 463.334960938 592.000976562 466.001953125 605.000976562 466.001953125 615.000976562 c 0
 466.001953125 624.333984375 453.334960938 630.666992188 428.001953125 634 c 2
 412.001953125 636 l 1
 404.001953125 645.333007812 404.668945312 654 414.001953125 662 c 1
 435.334960938 659.333007812 464.66796875 658 502.000976562 658 c 0
 534.66796875 658 563.334960938 659.333007812 588.001953125 662 c 0
 591.334960938 660 593.001953125 656 593.001953125 650 c 0
 593.001953125 644 592.001953125 639.333007812 590.001953125 636 c 2
 564.001953125 634 l 2
 545.334960938 632 530.66796875 620.666992188 520.000976562 600 c 0
 497.333984375 554.666992188 465.666992188 478 425 370 c 2
 379 248 l 2
 371.666992188 227.333007812 361.5 198.666015625 348.5 161.999023438 c 0
 335.5 125.33203125 323 88.83203125 311 52.4990234375 c 0
 299 16.166015625 292 -5.6669921875 290 -13 c 0
 288 -15 285 -16 281 -16 c 0
 276.333007812 -16 272 -15 268 -13 c 0
 259.333007812 27 246.333007812 71.3330078125 229 120 c 2
272.00390625 821.001953125 m 2
 353.00390625 786.002929688 l 2
 371.00390625 778.669921875 385.00390625 779.169921875 395.00390625 787.502929688 c 0
 405.00390625 795.8359375 416.670898438 812.002929688 430.00390625 836.002929688 c 0
 432.00390625 839.3359375 435.170898438 840.668945312 439.50390625 840.001953125 c 0
 443.836914062 839.334960938 446.336914062 836.66796875 447.00390625 832.000976562 c 0
 449.00390625 800.66796875 440.670898438 773.66796875 422.00390625 751.000976562 c 0
 400.00390625 725.66796875 370.00390625 720.000976562 332.00390625 734.000976562 c 2
 253.00390625 768.000976562 l 2
 225.00390625 778.66796875 196.670898438 761.66796875 168.00390625 717.000976562 c 0
 166.00390625 713.66796875 162.836914062 713.000976562 158.50390625 715.000976562 c 0
 154.170898438 717.000976562 151.670898438 719.333984375 151.00390625 722.000976562 c 0
 148.336914062 744.000976562 161.00390625 770.333984375 189.00390625 801.000976562 c 0
 197.00390625 811.66796875 209.170898438 819.334960938 225.50390625 824.001953125 c 0
 241.836914062 828.668945312 257.336914062 827.668945312 272.00390625 821.001953125 c 2
EndSplineSet
EndChar

StartChar: bracketleft
Encoding: 91 91 54
Width: 651
GlyphClass: 2
Flags: W
LayerCount: 2
Fore
SplineSet
282 175 m 0
 279.333007812 189 283.499023438 199.171875 294.499023438 205.504882812 c 0
 305.499023438 211.837890625 316.499023438 212.337890625 327.499023438 207.004882812 c 0
 338.499023438 201.671875 342.999023438 191.338867188 340.999023438 176.005859375 c 0
 334.33203125 124.672851562 335.665039062 88.1728515625 344.998046875 66.505859375 c 0
 354.331054688 44.8388671875 371.331054688 34.005859375 395.998046875 34.005859375 c 0
 418.665039062 34.005859375 436.998046875 45.6728515625 450.998046875 69.005859375 c 0
 459.665039062 81.6728515625 463.998046875 101.005859375 463.998046875 127.005859375 c 2
 463.998046875 281.005859375 l 2
 463.998046875 318.338867188 462.331054688 341.671875 458.998046875 351.004882812 c 0
 455.665039062 360.337890625 445.998046875 366.337890625 429.998046875 369.004882812 c 2
 397.998046875 371.004882812 l 2
 394.665039062 374.337890625 393.33203125 379.004882812 393.999023438 385.004882812 c 0
 394.666015625 391.004882812 396.666015625 394.671875 399.999023438 396.004882812 c 0
 439.999023438 394.004882812 474.999023438 393.004882812 504.999023438 393.004882812 c 0
 529.666015625 393.004882812 563.999023438 394.004882812 607.999023438 396.004882812 c 0
 610.666015625 395.337890625 612.333007812 391.670898438 613 385.00390625 c 0
 613.666992188 378.336914062 612.666992188 373.669921875 610 371.002929688 c 2
 572 369.002929688 l 2
 556 365.669921875 546.333007812 359.669921875 543 351.002929688 c 0
 539.666992188 342.3359375 538 319.002929688 538 281.002929688 c 2
 538 107.002929688 l 2
 538 82.3359375 540 66.5029296875 544 59.5029296875 c 0
 548 52.5029296875 561.666992188 45.669921875 585 39.0029296875 c 2
 594 37.0029296875 l 2
 596 35.0029296875 597 32.0029296875 597 28.0029296875 c 0
 597 24.0029296875 595.666992188 21.669921875 593 21.0029296875 c 0
 539 12.3359375 498.666992188 -7.3310546875 472 -37.998046875 c 1
 466.666992188 -36.6650390625 464 -34.33203125 464 -30.9990234375 c 2
 464 26.0009765625 l 2
 464 33.333984375 460.666992188 37.0009765625 454 37.0009765625 c 1
 436.666992188 2.333984375 409.666992188 -14.9990234375 373 -14.9990234375 c 0
 342.333007812 -14.9990234375 318.666015625 3.66796875 301.999023438 41.0009765625 c 0
 299.33203125 44.333984375 296.665039062 44.333984375 293.998046875 41.0009765625 c 0
 259.998046875 3.66796875 225.665039062 -14.9990234375 190.998046875 -14.9990234375 c 0
 156.331054688 -14.9990234375 129.831054688 -3.166015625 111.498046875 20.5009765625 c 0
 93.1650390625 44.16796875 83.998046875 73.66796875 83.998046875 109.000976562 c 2
 83.998046875 281.000976562 l 2
 83.998046875 319.000976562 82.3310546875 342.333984375 78.998046875 351.000976562 c 0
 75.6650390625 359.66796875 65.998046875 365.66796875 49.998046875 369.000976562 c 2
 11.998046875 371.000976562 l 2
 8.6650390625 374.333984375 7.33203125 379.000976562 7.9990234375 385.000976562 c 0
 8.666015625 391.000976562 10.666015625 394.66796875 13.9990234375 396.000976562 c 0
 59.9990234375 394.000976562 94.33203125 393.000976562 116.999023438 393.000976562 c 0
 146.33203125 393.000976562 181.33203125 394.000976562 221.999023438 396.000976562 c 0
 224.666015625 395.333984375 226.333007812 391.666992188 227 385 c 0
 227.666992188 378.333007812 226.666992188 373.666015625 224 370.999023438 c 2
 192 368.999023438 l 2
 176 366.33203125 166.333007812 360.33203125 163 350.999023438 c 0
 159.666992188 341.666015625 158 318.333007812 158 281 c 2
 158 137 l 2
 156.666992188 68.3330078125 177.666992188 34 221 34 c 0
 249 34 269 45.6669921875 281 69 c 0
 291.666992188 85.6669921875 292 121 282 175 c 0
324.999023438 -59.9951171875 m 1
 454.999023438 -275.995117188 l 1
 190.999023438 -275.995117188 l 1
 324.999023438 -59.9951171875 l 1
323.999023438 -133.995117188 m 1
 250.999023438 -242.995117188 l 1
 394.999023438 -242.995117188 l 1
 323.999023438 -133.995117188 l 1
EndSplineSet
EndChar

StartChar: backslash
Encoding: 92 92 55
Width: 555
GlyphClass: 2
Flags: W
LayerCount: 2
Fore
SplineSet
256 -62 m 0
 280 -62 301.501953125 -68.6630859375 320.501953125 -81.99609375 c 0
 339.501953125 -95.3291015625 349.334960938 -117.329101562 350.001953125 -147.99609375 c 0
 350.668945312 -180.663085938 340.501953125 -208.830078125 319.501953125 -232.497070312 c 0
 298.501953125 -256.1640625 271.668945312 -273.331054688 239.001953125 -283.998046875 c 1
 229.001953125 -276.665039062 226.334960938 -268.998046875 231.001953125 -260.998046875 c 1
 280.334960938 -240.331054688 304.66796875 -211.998046875 304.000976562 -175.998046875 c 0
 303.333984375 -157.998046875 296.166992188 -144.831054688 282.5 -136.498046875 c 0
 268.833007812 -128.165039062 253 -126.33203125 235 -130.999023438 c 1
 217 -129.666015625 207.666992188 -120.666015625 207 -103.999023438 c 0
 207 -92.666015625 210.666992188 -82.8330078125 218 -74.5 c 0
 225.333007812 -66.1669921875 238 -62 256 -62 c 0
290.001953125 162.00390625 m 1
 200.668945312 263.336914062 155.00390625 314.999023438 153.00390625 316.999023438 c 1
 153.00390625 284.999023438 l 1
 153.00390625 110.999023438 l 2
 153.00390625 84.33203125 153.670898438 65.83203125 155.00390625 55.4990234375 c 0
 156.336914062 45.166015625 159.50390625 37.9990234375 164.50390625 33.9990234375 c 0
 169.50390625 29.9990234375 178.336914062 26.9990234375 191.00390625 24.9990234375 c 2
 209.00390625 21.9990234375 l 2
 213.00390625 19.9990234375 214.670898438 15.83203125 214.00390625 9.4990234375 c 0
 213.336914062 3.166015625 211.00390625 -1.0009765625 207.00390625 -3.0009765625 c 0
 179.00390625 -1.0009765625 148.336914062 -0.0009765625 115.00390625 -0.0009765625 c 0
 83.6708984375 -0.0009765625 54.00390625 -1.0009765625 26.00390625 -3.0009765625 c 0
 22.00390625 -0.333984375 19.6708984375 3.8330078125 19.00390625 9.5 c 0
 18.3369140625 15.1669921875 20.00390625 19.333984375 24.00390625 22.0009765625 c 2
 45.00390625 25.0009765625 l 2
 63.00390625 27.0009765625 73.8369140625 32.5009765625 77.50390625 41.5009765625 c 0
 81.1708984375 50.5009765625 83.00390625 73.66796875 83.00390625 111.000976562 c 2
 83.00390625 284.000976562 l 2
 83.00390625 318.000976562 81.00390625 338.833984375 77.00390625 346.500976562 c 0
 73.00390625 354.16796875 62.6708984375 359.66796875 46.00390625 363.000976562 c 2
 25.00390625 367.000976562 l 2
 21.6708984375 369.000976562 20.00390625 372.833984375 20.00390625 378.500976562 c 0
 20.00390625 384.16796875 22.00390625 387.334960938 26.00390625 388.001953125 c 0
 86.6708984375 390.668945312 130.00390625 397.668945312 156.00390625 409.001953125 c 0
 162.00390625 407.668945312 164.00390625 405.3359375 162.00390625 402.002929688 c 0
 167.336914062 391.3359375 176.669921875 378.3359375 190.002929688 363.002929688 c 0
 203.3359375 347.669921875 229.3359375 318.336914062 268.002929688 275.00390625 c 0
 306.669921875 231.670898438 335.002929688 198.00390625 353.002929688 174.00390625 c 1
 361.002929688 172.00390625 365.3359375 173.00390625 366.002929688 177.00390625 c 0
 366.669921875 181.00390625 367.002929688 192.336914062 367.002929688 211.00390625 c 2
 367.002929688 278.00390625 l 2
 367.002929688 315.336914062 365.169921875 338.50390625 361.502929688 347.50390625 c 0
 357.8359375 356.50390625 347.002929688 362.00390625 329.002929688 364.00390625 c 2
 307.002929688 367.00390625 l 2
 303.669921875 371.00390625 302.169921875 375.836914062 302.502929688 381.50390625 c 0
 302.8359375 387.170898438 305.002929688 390.670898438 309.002929688 392.00390625 c 0
 334.3359375 390.00390625 365.668945312 389.00390625 403.001953125 389.00390625 c 0
 435.668945312 389.00390625 465.3359375 390.00390625 492.002929688 392.00390625 c 0
 496.002929688 391.336914062 498.3359375 387.669921875 499.002929688 381.002929688 c 0
 499.669921875 374.3359375 498.002929688 369.668945312 494.002929688 367.001953125 c 2
 475.002929688 364.001953125 l 2
 457.002929688 362.001953125 446.169921875 356.501953125 442.502929688 347.501953125 c 0
 438.8359375 338.501953125 437.002929688 315.334960938 437.002929688 278.001953125 c 2
 437.002929688 190.001953125 l 1
 437.002929688 148.001953125 l 1
 459.002929688 131.334960938 478.8359375 107.001953125 496.502929688 75.001953125 c 0
 514.169921875 43.001953125 525.336914062 15.001953125 530.00390625 -8.998046875 c 0
 531.336914062 -14.998046875 530.00390625 -19.498046875 526.00390625 -22.498046875 c 0
 522.00390625 -25.498046875 517.670898438 -26.6650390625 513.00390625 -25.998046875 c 0
 508.336914062 -25.3310546875 504.336914062 -22.3310546875 501.00390625 -16.998046875 c 0
 495.670898438 -1.6650390625 489.170898438 14.3349609375 481.50390625 31.001953125 c 0
 473.836914062 47.6689453125 461.669921875 64.3359375 445.002929688 81.0029296875 c 1
 441.002929688 59.0029296875 436.002929688 43.0029296875 430.002929688 33.0029296875 c 0
 408.002929688 -0.330078125 382.002929688 -16.9970703125 352.002929688 -16.9970703125 c 0
 334.002929688 -16.9970703125 322.3359375 -16.330078125 317.002929688 -14.9970703125 c 0
 295.002929688 -9.6640625 277.502929688 0.8359375 264.502929688 16.5029296875 c 0
 251.502929688 32.169921875 245.002929688 50.669921875 245.002929688 72.0029296875 c 0
 245.002929688 88.669921875 249.169921875 105.836914062 257.502929688 123.50390625 c 0
 265.8359375 141.170898438 276.668945312 154.00390625 290.001953125 162.00390625 c 1
335.00390625 21.9990234375 m 0
 348.336914062 21.9990234375 359.673828125 26.3310546875 369.006835938 34.998046875 c 0
 378.33984375 43.6650390625 382.672851562 55.33203125 382.005859375 69.9990234375 c 2
 382.005859375 75.9990234375 l 2
 379.338867188 110.666015625 364.338867188 127.999023438 337.005859375 127.999023438 c 1
 337.005859375 127.999023438 l 1
 318.338867188 127.999023438 304.671875 118.999023438 296.004882812 100.999023438 c 0
 292.004882812 94.33203125 290.004882812 85.33203125 290.004882812 73.9990234375 c 0
 290.004882812 59.33203125 294.171875 46.9990234375 302.504882812 36.9990234375 c 0
 310.837890625 26.9990234375 321.670898438 21.9990234375 335.00390625 21.9990234375 c 0
EndSplineSet
EndChar

StartChar: bracketright
Encoding: 93 93 56
Width: 504
GlyphClass: 2
Flags: W
LayerCount: 2
Fore
SplineSet
31 362 m 0
 29 365.333007812 28.330078125 371.66796875 28.9970703125 381.000976562 c 0
 29.6640625 390.333984375 31.3310546875 395.333984375 33.998046875 396.000976562 c 0
 51.998046875 394.66796875 62.498046875 393.834960938 65.498046875 393.501953125 c 0
 68.498046875 393.168945312 71.3310546875 393.001953125 73.998046875 393.001953125 c 2
 84.998046875 393.001953125 l 2
 102.998046875 393.001953125 131.331054688 394.001953125 169.998046875 396.001953125 c 0
 173.331054688 394.668945312 175.1640625 390.8359375 175.497070312 384.502929688 c 0
 175.830078125 378.169921875 174.330078125 371.336914062 170.997070312 364.00390625 c 0
 155.6640625 343.336914062 142.997070312 313.669921875 132.997070312 275.002929688 c 0
 122.997070312 236.3359375 117.997070312 196.002929688 117.997070312 154.002929688 c 0
 117.997070312 115.3359375 129.330078125 83.3359375 151.997070312 58.0029296875 c 0
 174.6640625 32.669921875 206.997070312 19.669921875 248.997070312 19.0029296875 c 1
 286.997070312 23.0029296875 316.497070312 37.5029296875 337.497070312 62.5029296875 c 0
 358.497070312 87.5029296875 368.997070312 118.002929688 368.997070312 154.002929688 c 0
 368.997070312 240.669921875 351.330078125 310.669921875 315.997070312 364.002929688 c 0
 313.330078125 369.3359375 311.997070312 375.502929688 311.997070312 382.502929688 c 0
 311.997070312 389.502929688 313.6640625 394.002929688 316.997070312 396.002929688 c 0
 356.330078125 394.002929688 384.663085938 393.002929688 401.99609375 393.002929688 c 2
 412.99609375 393.002929688 l 2
 415.663085938 393.002929688 418.330078125 393.169921875 420.997070312 393.502929688 c 0
 423.6640625 393.8359375 434.331054688 394.668945312 452.998046875 396.001953125 c 0
 456.998046875 395.334960938 458.998046875 390.501953125 458.998046875 381.501953125 c 0
 458.998046875 372.501953125 457.331054688 366.334960938 453.998046875 363.001953125 c 0
 432.665039062 364.334960938 415.33203125 365.001953125 401.999023438 365.001953125 c 0
 388.666015625 365.001953125 378.999023438 362.168945312 372.999023438 356.501953125 c 0
 366.999023438 350.834960938 367.33203125 341.334960938 373.999023438 328.001953125 c 0
 384.666015625 312.668945312 395.999023438 295.668945312 407.999023438 277.001953125 c 0
 419.999023438 258.334960938 429.999023438 239.66796875 437.999023438 221.000976562 c 0
 445.999023438 202.333984375 450.666015625 183.000976562 451.999023438 163.000976562 c 0
 457.33203125 111.000976562 442.33203125 68.333984375 406.999023438 35.0009765625 c 0
 371.666015625 1.66796875 317.666015625 -14.9990234375 244.999023438 -14.9990234375 c 0
 171.666015625 -14.9990234375 117.333007812 1.333984375 82 34.0009765625 c 0
 46.6669921875 66.66796875 31 109.66796875 35 163.000976562 c 0
 36.3330078125 183.000976562 41.3330078125 202.833984375 50 222.500976562 c 0
 58.6669921875 242.16796875 71 263.66796875 87 287.000976562 c 0
 103 310.333984375 112 323.666992188 114 327 c 0
 123.333007812 347 120 358.166992188 104 360.5 c 0
 88 362.833007812 63.6669921875 363.333007812 31 362 c 0
250.997070312 -59.998046875 m 1
 380.997070312 -275.998046875 l 1
 116.997070312 -275.998046875 l 1
 250.997070312 -59.998046875 l 1
249.997070312 -133.998046875 m 1
 176.997070312 -242.998046875 l 1
 320.997070312 -242.998046875 l 1
 249.997070312 -133.998046875 l 1
EndSplineSet
EndChar

StartChar: asciicircum
Encoding: 94 94 57
Width: 453
GlyphClass: 2
Flags: W
LayerCount: 2
Fore
SplineSet
196 578 m 2
 276.999023438 541.999023438 l 2
 294.999023438 534.666015625 308.999023438 535.166015625 318.999023438 543.499023438 c 0
 328.999023438 551.83203125 340.666015625 567.999023438 353.999023438 591.999023438 c 0
 355.999023438 595.999023438 359.166015625 597.666015625 363.499023438 596.999023438 c 0
 367.83203125 596.33203125 370.33203125 593.33203125 370.999023438 587.999023438 c 0
 372.999023438 555.33203125 364.666015625 528.33203125 345.999023438 506.999023438 c 0
 334.666015625 494.33203125 320.666015625 486.999023438 303.999023438 484.999023438 c 0
 287.33203125 482.999023438 271.33203125 484.666015625 255.999023438 489.999023438 c 2
 176.999023438 522.999023438 l 2
 149.666015625 534.999023438 121.333007812 518.666015625 92 473.999023438 c 0
 90 469.999023438 86.8330078125 468.999023438 82.5 470.999023438 c 0
 78.1669921875 472.999023438 75.6669921875 475.666015625 75 478.999023438 c 0
 72.3330078125 500.999023438 85 527.33203125 113 557.999023438 c 0
 121 568.666015625 133.166992188 576.333007812 149.5 581 c 0
 165.833007812 585.666992188 181.333007812 584.666992188 196 578 c 2
277.999023438 312.999023438 m 2
 362.004882812 102.999023438 l 2
 370.671875 80.33203125 376.671875 65.4990234375 380.004882812 58.4990234375 c 0
 383.337890625 51.4990234375 388.504882812 44.4990234375 395.504882812 37.4990234375 c 0
 402.504882812 30.4990234375 411.337890625 26.666015625 422.004882812 25.9990234375 c 2
 450.004882812 22.9990234375 l 2
 452.671875 19.666015625 453.671875 14.9990234375 453.004882812 8.9990234375 c 0
 452.337890625 2.9990234375 450.337890625 -1.0009765625 447.004882812 -3.0009765625 c 0
 414.337890625 -1.0009765625 380.337890625 -0.0009765625 345.004882812 -0.0009765625 c 0
 327.671875 -0.0009765625 298.004882812 -1.0009765625 256.004882812 -3.0009765625 c 0
 253.337890625 -1.0009765625 251.670898438 3.33203125 251.00390625 9.9990234375 c 0
 250.336914062 16.666015625 251.669921875 20.9990234375 255.002929688 22.9990234375 c 2
 275.002929688 24.9990234375 l 2
 290.3359375 26.9990234375 299.168945312 30.4990234375 301.501953125 35.4990234375 c 0
 303.834960938 40.4990234375 302.334960938 50.9990234375 297.001953125 66.9990234375 c 0
 279.001953125 122.33203125 254.001953125 188.33203125 222.001953125 264.999023438 c 0
 214.001953125 283.666015625 208.668945312 294.333007812 206.001953125 297 c 0
 201.334960938 293.666992188 195.001953125 280.666992188 187.001953125 258 c 0
 183.001953125 246.666992188 173.334960938 220.666992188 158.001953125 180 c 0
 142.668945312 139.333007812 133.3359375 114.666015625 130.002929688 105.999023438 c 0
 118.002929688 73.9990234375 112.002929688 52.666015625 112.002929688 41.9990234375 c 0
 112.002929688 33.33203125 118.002929688 27.9990234375 130.002929688 25.9990234375 c 2
 161.002929688 22.9990234375 l 2
 163.669921875 20.33203125 165.002929688 15.83203125 165.002929688 9.4990234375 c 0
 165.002929688 3.166015625 163.002929688 -1.0009765625 159.002929688 -3.0009765625 c 0
 120.3359375 -1.0009765625 92.6689453125 -0.0009765625 76.001953125 -0.0009765625 c 0
 60.001953125 -0.0009765625 34.001953125 -1.0009765625 -1.998046875 -3.0009765625 c 0
 -4.6650390625 -1.0009765625 -6.33203125 3.166015625 -6.9990234375 9.4990234375 c 0
 -7.666015625 15.83203125 -6.666015625 20.33203125 -3.9990234375 22.9990234375 c 2
 19.0009765625 24.9990234375 l 2
 35.0009765625 26.9990234375 46.66796875 33.166015625 54.0009765625 43.4990234375 c 0
 61.333984375 53.83203125 74.0009765625 77.33203125 92.0009765625 113.999023438 c 0
 99.333984375 129.33203125 113.166992188 161.33203125 133.5 209.999023438 c 0
 153.833007812 258.666015625 170.666015625 300.666015625 183.999023438 335.999023438 c 0
 189.33203125 349.33203125 194.83203125 362.999023438 200.499023438 376.999023438 c 0
 206.166015625 390.999023438 211.666015625 405.666015625 216.999023438 420.999023438 c 0
 218.999023438 423.666015625 222.33203125 424.999023438 226.999023438 424.999023438 c 0
 232.999023438 424.999023438 237.33203125 423.666015625 239.999023438 420.999023438 c 0
 245.999023438 398.999023438 258.666015625 362.999023438 277.999023438 312.999023438 c 2
EndSplineSet
EndChar

StartChar: underscore
Encoding: 95 95 58
Width: 440
GlyphClass: 2
Flags: W
LayerCount: 2
Fore
SplineSet
273 184 m 0
 281.666992188 178.666992188 293.166015625 166.166992188 307.499023438 146.5 c 0
 321.83203125 126.833007812 328.999023438 108 328.999023438 90 c 0
 328.999023438 59.3330078125 317.83203125 34.166015625 295.499023438 14.4990234375 c 0
 273.166015625 -5.16796875 247.999023438 -15.0009765625 219.999023438 -15.0009765625 c 0
 187.999023438 -15.0009765625 162.499023438 -5.5009765625 143.499023438 13.4990234375 c 0
 124.499023438 32.4990234375 114.999023438 53.9990234375 114.999023438 77.9990234375 c 0
 114.999023438 115.999023438 137.33203125 152.999023438 181.999023438 188.999023438 c 0
 185.33203125 192.999023438 187.499023438 195.666015625 188.499023438 196.999023438 c 0
 189.499023438 198.33203125 188.33203125 201.665039062 184.999023438 206.998046875 c 2
 89.9990234375 325.998046875 l 2
 73.9990234375 349.331054688 53.9990234375 363.6640625 29.9990234375 368.997070312 c 2
 5.9990234375 370.997070312 l 2
 3.33203125 373.6640625 2.33203125 378.331054688 2.9990234375 384.998046875 c 0
 3.666015625 391.665039062 5.3330078125 395.33203125 8 395.999023438 c 0
 55.3330078125 393.999023438 87 392.999023438 103 392.999023438 c 0
 118.333007812 392.999023438 149.333007812 393.999023438 196 395.999023438 c 0
 199.333007812 394.666015625 201.333007812 391.166015625 202 385.499023438 c 0
 202.666992188 379.83203125 201 374.999023438 197 370.999023438 c 2
 174 368.999023438 l 2
 160.666992188 365.666015625 153.666992188 361.833007812 153 357.5 c 0
 152.333007812 353.166992188 156.333007812 342 165 324 c 2
 213 254 l 2
 215.666992188 251.333007812 218.333984375 248 221.000976562 244 c 2
 229.000976562 232 l 1
 229.66796875 232.666992188 249.000976562 261 287.000976562 317 c 0
 304.333984375 343.666992188 300.666992188 361 276 369 c 1
 256 371 l 2
 252.666992188 374.333007812 251.666992188 379.166015625 253 385.499023438 c 0
 254.333007812 391.83203125 256.666015625 395.33203125 259.999023438 395.999023438 c 0
 291.33203125 393.999023438 318.33203125 392.999023438 340.999023438 392.999023438 c 0
 368.33203125 392.999023438 395.33203125 393.999023438 421.999023438 395.999023438 c 0
 425.999023438 393.999023438 428.33203125 390.33203125 428.999023438 384.999023438 c 0
 429.666015625 379.666015625 427.999023438 374.999023438 423.999023438 370.999023438 c 2
 400.999023438 368.999023438 l 2
 390.999023438 366.33203125 382.33203125 360.83203125 374.999023438 352.499023438 c 0
 367.666015625 344.166015625 362.999023438 339.333007812 360.999023438 338 c 0
 344.999023438 324.666992188 311.999023438 284.333984375 261.999023438 217.000976562 c 0
 258.666015625 213.000976562 256.333007812 209.500976562 255 206.500976562 c 0
 253.666992188 203.500976562 254.666992188 200.66796875 258 198.000976562 c 0
 261.333007812 195.333984375 266.333007812 190.666992188 273 184 c 0
224.999023438 13 m 0
 256.999023438 19 272.999023438 42.3330078125 272.999023438 83 c 0
 272.999023438 112.333007812 257.999023438 140.333007812 227.999023438 167 c 0
 224.666015625 170.333007812 221.666015625 171.166015625 218.999023438 169.499023438 c 0
 216.33203125 167.83203125 210.999023438 162.999023438 202.999023438 154.999023438 c 0
 178.33203125 134.33203125 165.999023438 109.999023438 165.999023438 81.9990234375 c 0
 165.999023438 63.9990234375 172.33203125 47.33203125 184.999023438 31.9990234375 c 0
 197.666015625 16.666015625 210.999023438 10.3330078125 224.999023438 13 c 0
220.999023438 -216 m 0
 182.999023438 -216 153.333984375 -206 132.000976562 -186 c 0
 110.66796875 -166 97.0009765625 -131.666992188 91.0009765625 -83 c 1
 97.66796875 -77 104.000976562 -77 110.000976562 -83 c 1
 117.333984375 -110.333007812 129.166992188 -130.5 145.5 -143.5 c 0
 161.833007812 -156.5 186.666015625 -163 219.999023438 -163 c 0
 251.999023438 -163 275.83203125 -156.5 291.499023438 -143.5 c 0
 307.166015625 -130.5 320.666015625 -110.333007812 331.999023438 -83 c 0
 338.666015625 -77 344.999023438 -77 350.999023438 -83 c 1
 342.999023438 -126.333007812 327.666015625 -159.333007812 304.999023438 -182 c 0
 282.33203125 -204.666992188 254.33203125 -216 220.999023438 -216 c 0
197.000976562 578 m 2
 278 541.999023438 l 2
 296 534.666015625 310 535.166015625 320 543.499023438 c 0
 330 551.83203125 341.666992188 567.999023438 355 591.999023438 c 0
 357 595.999023438 360.166992188 597.666015625 364.5 596.999023438 c 0
 368.833007812 596.33203125 371.333007812 593.33203125 372 587.999023438 c 0
 374 555.33203125 365.666992188 528.33203125 347 506.999023438 c 0
 335.666992188 494.33203125 321.666992188 486.999023438 305 484.999023438 c 0
 288.333007812 482.999023438 272.333007812 484.666015625 257 489.999023438 c 2
 178 522.999023438 l 2
 150.666992188 534.999023438 122.333984375 518.666015625 93.0009765625 473.999023438 c 0
 91.0009765625 469.999023438 87.833984375 468.999023438 83.5009765625 470.999023438 c 0
 79.16796875 472.999023438 76.66796875 475.666015625 76.0009765625 478.999023438 c 0
 73.333984375 500.999023438 86.0009765625 527.33203125 114.000976562 557.999023438 c 0
 122.000976562 568.666015625 134.16796875 576.333007812 150.500976562 581 c 0
 166.833984375 585.666992188 182.333984375 584.666992188 197.000976562 578 c 2
EndSplineSet
EndChar

StartChar: grave
Encoding: 96 96 59
Width: 304
GlyphClass: 2
Flags: W
LayerCount: 2
Fore
SplineSet
98 578 m 2
 178.999023438 541.999023438 l 2
 196.999023438 534.666015625 210.999023438 535.166015625 220.999023438 543.499023438 c 0
 230.999023438 551.83203125 242.666015625 567.999023438 255.999023438 591.999023438 c 0
 257.999023438 595.999023438 261.166015625 597.666015625 265.499023438 596.999023438 c 0
 269.83203125 596.33203125 272.33203125 593.33203125 272.999023438 587.999023438 c 0
 274.999023438 555.33203125 266.666015625 528.33203125 247.999023438 506.999023438 c 0
 236.666015625 494.33203125 222.666015625 486.999023438 205.999023438 484.999023438 c 0
 189.33203125 482.999023438 173.33203125 484.666015625 157.999023438 489.999023438 c 2
 78.9990234375 522.999023438 l 2
 51.666015625 534.999023438 23.3330078125 518.666015625 -6 473.999023438 c 0
 -8 469.999023438 -11.1669921875 468.999023438 -15.5 470.999023438 c 0
 -19.8330078125 472.999023438 -22.3330078125 475.666015625 -23 478.999023438 c 0
 -25.6669921875 500.999023438 -13 527.33203125 15 557.999023438 c 0
 23 568.666015625 35.1669921875 576.333007812 51.5 581 c 0
 67.8330078125 585.666992188 83.3330078125 584.666992188 98 578 c 2
163.999023438 355.999023438 m 1
 163.999023438 128.998046875 l 2
 163.999023438 92.3310546875 167.666015625 66.1640625 174.999023438 50.4970703125 c 0
 182.33203125 34.830078125 200.999023438 26.9970703125 230.999023438 26.9970703125 c 0
 245.666015625 26.9970703125 256.999023438 30.6640625 264.999023438 37.9970703125 c 0
 266.999023438 39.9970703125 269.33203125 43.6640625 271.999023438 48.9970703125 c 0
 274.666015625 54.330078125 276.999023438 58.330078125 278.999023438 60.9970703125 c 0
 280.999023438 63.6640625 284.33203125 64.9970703125 288.999023438 64.9970703125 c 0
 293.666015625 64.9970703125 296.999023438 63.4970703125 298.999023438 60.4970703125 c 0
 300.999023438 57.4970703125 300.999023438 53.330078125 298.999023438 47.9970703125 c 0
 278.999023438 6.6640625 243.999023438 -14.0029296875 193.999023438 -14.0029296875 c 0
 153.999023438 -14.0029296875 126.666015625 -4.3359375 111.999023438 14.9970703125 c 0
 97.33203125 34.330078125 89.9990234375 60.330078125 89.9990234375 92.9970703125 c 2
 89.9990234375 286.997070312 l 2
 89.9990234375 312.997070312 87.9990234375 329.330078125 83.9990234375 335.997070312 c 0
 79.9990234375 342.6640625 66.666015625 348.6640625 43.9990234375 353.997070312 c 2
 34.9990234375 355.997070312 l 2
 32.9990234375 357.997070312 31.9990234375 360.830078125 31.9990234375 364.497070312 c 0
 31.9990234375 368.1640625 33.33203125 370.6640625 35.9990234375 371.997070312 c 0
 89.9990234375 380.6640625 130.33203125 400.331054688 156.999023438 430.998046875 c 1
 164.999023438 429.665039062 168.999023438 427.33203125 168.999023438 423.999023438 c 2
 163.999023438 355.999023438 l 1
133.999023438 -62.001953125 m 0
 157.999023438 -62.001953125 179.500976562 -68.6650390625 198.500976562 -81.998046875 c 0
 217.500976562 -95.3310546875 227.333984375 -117.331054688 228.000976562 -147.998046875 c 0
 228.66796875 -180.665039062 218.500976562 -208.83203125 197.500976562 -232.499023438 c 0
 176.500976562 -256.166015625 149.66796875 -273.333007812 117.000976562 -284 c 1
 107.000976562 -276.666992188 104.333984375 -269 109.000976562 -261 c 1
 158.333984375 -240.333007812 182.666992188 -212 182 -176 c 0
 181.333007812 -158 174.166015625 -144.833007812 160.499023438 -136.5 c 0
 146.83203125 -128.166992188 130.999023438 -126.333984375 112.999023438 -131.000976562 c 1
 94.9990234375 -129.66796875 85.666015625 -120.66796875 84.9990234375 -104.000976562 c 0
 84.9990234375 -92.66796875 88.666015625 -82.8349609375 95.9990234375 -74.501953125 c 0
 103.33203125 -66.1689453125 115.999023438 -62.001953125 133.999023438 -62.001953125 c 0
EndSplineSet
EndChar

StartChar: a
Encoding: 97 97 60
Width: 522
GlyphClass: 2
Flags: W
LayerCount: 2
Fore
SplineSet
493 8 m 1
 499 -56 511.001953125 -110.004882812 529.001953125 -154.004882812 c 1
 534.334960938 -182.004882812 532.66796875 -196.671875 524.000976562 -198.004882812 c 0
 515.333984375 -199.337890625 496.333984375 -197.170898438 467.000976562 -191.50390625 c 0
 437.66796875 -185.836914062 418.000976562 -188.669921875 408.000976562 -200.002929688 c 1
 395.333984375 -204.669921875 384.666992188 -204.669921875 376 -200.002929688 c 0
 367.333007812 -195.3359375 362.666015625 -187.668945312 361.999023438 -177.001953125 c 0
 361.33203125 -166.334960938 364.33203125 -156.66796875 370.999023438 -148.000976562 c 0
 378.999023438 -138.000976562 387.666015625 -133.333984375 396.999023438 -134.000976562 c 0
 406.33203125 -134.66796875 418.165039062 -137.16796875 432.498046875 -141.500976562 c 0
 446.831054688 -145.833984375 456.331054688 -147.333984375 460.998046875 -146.000976562 c 0
 465.665039062 -144.66796875 466.998046875 -137.66796875 464.998046875 -125.000976562 c 0
 458.998046875 -101.000976562 453.665039062 -58.333984375 448.998046875 2.9990234375 c 1
 424.998046875 -2.333984375 406.998046875 -7.0009765625 394.998046875 -11.0009765625 c 0
 392.331054688 -11.66796875 380.998046875 -16.0009765625 360.998046875 -24.0009765625 c 0
 353.665039062 -24.0009765625 349.998046875 -21.333984375 349.998046875 -16.0009765625 c 0
 349.998046875 1.9990234375 346.665039062 10.9990234375 339.998046875 10.9990234375 c 0
 309.998046875 -6.333984375 275.998046875 -15.0009765625 237.998046875 -15.0009765625 c 0
 171.331054688 -15.0009765625 120.831054688 6.166015625 86.498046875 48.4990234375 c 0
 52.1650390625 90.83203125 34.998046875 135.33203125 34.998046875 181.999023438 c 0
 34.998046875 228.666015625 45.8310546875 268.999023438 67.498046875 302.999023438 c 0
 89.1650390625 336.999023438 118.33203125 362.83203125 154.999023438 380.499023438 c 0
 191.666015625 398.166015625 231.666015625 406.999023438 274.999023438 406.999023438 c 0
 306.999023438 406.999023438 334.666015625 403.666015625 357.999023438 396.999023438 c 0
 375.33203125 392.33203125 386.999023438 389.999023438 392.999023438 389.999023438 c 0
 398.33203125 389.999023438 407.33203125 395.666015625 419.999023438 406.999023438 c 0
 424.666015625 406.999023438 428.333007812 403.999023438 431 397.999023438 c 1
 425.666992188 376.666015625 423 336.333007812 423 277 c 2
 423 146 l 2
 423 100 424.666992188 69 428 53 c 0
 431.333007812 37 439.333007812 29 452 29 c 0
 458 29 472 32.6669921875 494 40 c 0
 498 39.3330078125 500 34.5 500 25.5 c 0
 500 16.5 497.666992188 10.6669921875 493 8 c 1
351.001953125 81.9951171875 m 2
 351.000976562 229.995117188 l 2
 351.000976562 287.995117188 348.000976562 322.662109375 342.000976562 333.995117188 c 0
 335.333984375 346.662109375 323.833984375 356.829101562 307.500976562 364.49609375 c 0
 291.16796875 372.163085938 272.000976562 375.99609375 250.000976562 375.99609375 c 0
 211.333984375 375.99609375 179.833984375 360.49609375 155.500976562 329.49609375 c 0
 131.16796875 298.49609375 119.000976562 259.663085938 119.000976562 212.99609375 c 0
 119.000976562 158.329101562 133.833984375 113.49609375 163.500976562 78.49609375 c 0
 193.16796875 43.49609375 231.000976562 25.99609375 277.000976562 25.99609375 c 0
 311.66796875 25.99609375 333.334960938 31.3291015625 342.001953125 41.99609375 c 0
 348.001953125 49.3291015625 351.001953125 62.662109375 351.001953125 81.9951171875 c 2
236.000976562 577.995117188 m 2
 317 541.994140625 l 2
 335 534.661132812 349 535.161132812 359 543.494140625 c 0
 369 551.827148438 380.666992188 567.994140625 394 591.994140625 c 0
 396 595.994140625 399.166992188 597.661132812 403.5 596.994140625 c 0
 407.833007812 596.327148438 410.333007812 593.327148438 411 587.994140625 c 0
 413 555.327148438 404.666992188 528.327148438 386 506.994140625 c 0
 374.666992188 494.327148438 360.666992188 486.994140625 344 484.994140625 c 0
 327.333007812 482.994140625 311.333007812 484.661132812 296 489.994140625 c 2
 217 522.994140625 l 2
 189.666992188 534.994140625 161.333984375 518.661132812 132.000976562 473.994140625 c 0
 130.000976562 469.994140625 126.833984375 468.994140625 122.500976562 470.994140625 c 0
 118.16796875 472.994140625 115.66796875 475.661132812 115.000976562 478.994140625 c 0
 112.333984375 500.994140625 125.000976562 527.327148438 153.000976562 557.994140625 c 0
 161.000976562 568.661132812 173.16796875 576.328125 189.500976562 580.995117188 c 0
 205.833984375 585.662109375 221.333984375 584.662109375 236.000976562 577.995117188 c 2
EndSplineSet
EndChar

StartChar: b
Encoding: 98 98 61
Width: 534
GlyphClass: 2
Flags: W
LayerCount: 2
Fore
SplineSet
186 -10 m 1
 173.001953125 -27.0009765625 l 2
 167.668945312 -36.333984375 170.668945312 -44.0009765625 182.001953125 -50.0009765625 c 0
 212.668945312 -71.333984375 228.001953125 -95.0009765625 228.001953125 -121.000976562 c 0
 228.001953125 -146.333984375 217.501953125 -167.333984375 196.501953125 -184.000976562 c 0
 175.501953125 -200.66796875 151.334960938 -209.000976562 124.001953125 -209.000976562 c 0
 85.3349609375 -209.000976562 66.001953125 -197.66796875 66.001953125 -175.000976562 c 0
 66.001953125 -168.333984375 68.3349609375 -162.333984375 73.001953125 -157.000976562 c 0
 77.6689453125 -151.66796875 83.6689453125 -149.000976562 91.001953125 -149.000976562 c 0
 99.001953125 -149.000976562 108.834960938 -153.833984375 120.501953125 -163.500976562 c 0
 132.168945312 -173.16796875 140.001953125 -178.000976562 144.001953125 -178.000976562 c 0
 162.001953125 -178.000976562 171.001953125 -167.66796875 171.001953125 -147.000976562 c 0
 171.001953125 -133.66796875 164.668945312 -120.66796875 152.001953125 -108.000976562 c 0
 139.334960938 -95.333984375 124.66796875 -85.6669921875 108.000976562 -79 c 1
 108.000976562 -74 l 1
 157.000976562 0 l 1
 139.000976562 6.6669921875 123.333984375 10.6669921875 110.000976562 12 c 0
 104.66796875 12.6669921875 96.3349609375 5 85.001953125 -11 c 0
 84.3349609375 -11.6669921875 83.3349609375 -12 82.001953125 -12 c 0
 77.3349609375 -12 74.001953125 -10 72.001953125 -6 c 0
 76.001953125 11.3330078125 78.001953125 42.3330078125 78.001953125 87 c 2
 78.001953125 600 l 2
 78.001953125 620.666992188 74.001953125 633.333984375 66.001953125 638.000976562 c 0
 58.001953125 642.66796875 42.3349609375 645.66796875 19.001953125 647.000976562 c 2
 1.001953125 649.000976562 l 2
 -0.998046875 652.333984375 -1.998046875 656.166992188 -1.998046875 660.5 c 0
 -1.998046875 664.833007812 -0.6650390625 667.666015625 2.001953125 668.999023438 c 0
 45.3349609375 683.666015625 91.001953125 703.999023438 139.001953125 729.999023438 c 0
 141.001953125 731.33203125 145.001953125 730.665039062 151.001953125 727.998046875 c 0
 157.001953125 725.331054688 160.001953125 722.998046875 160.001953125 720.998046875 c 2
 152.001953125 603.998046875 l 1
 152.001953125 394.998046875 l 2
 152.001953125 380.998046875 155.334960938 373.998046875 162.001953125 373.998046875 c 0
 202.668945312 395.998046875 241.001953125 406.998046875 277.001953125 406.998046875 c 0
 315.001953125 406.998046875 348.334960938 398.331054688 377.001953125 380.998046875 c 0
 405.668945312 363.665039062 428.001953125 340.33203125 444.001953125 310.999023438 c 0
 460.001953125 281.666015625 468.001953125 248.333007812 468.001953125 211 c 0
 468.001953125 169 458.168945312 130.5 438.501953125 95.5 c 0
 418.834960938 60.5 391.66796875 33.5 357.000976562 14.5 c 0
 322.333984375 -4.5 282.666992188 -14 238 -14 c 0
 223.333007812 -14 206 -12.6669921875 186 -10 c 1
150.001953125 290.999023438 m 2
 150.001953125 134.998046875 l 2
 150.001953125 98.998046875 159.001953125 70.3310546875 177.001953125 48.998046875 c 0
 195.001953125 26.998046875 220.334960938 15.998046875 253.001953125 15.998046875 c 0
 297.001953125 15.998046875 329.834960938 31.8310546875 351.501953125 63.498046875 c 0
 373.168945312 95.1650390625 384.001953125 134.665039062 384.001953125 181.998046875 c 0
 384.001953125 235.998046875 370.668945312 279.831054688 344.001953125 313.498046875 c 0
 317.334960938 347.165039062 280.001953125 363.998046875 232.001953125 363.998046875 c 0
 204.001953125 363.998046875 181.334960938 358.998046875 164.001953125 348.998046875 c 0
 154.668945312 341.665039062 150.001953125 322.33203125 150.001953125 290.999023438 c 2
287.001953125 -174.001953125 m 0
 311.668945312 -174.001953125 332.33203125 -182.002929688 348.999023438 -198.002929688 c 0
 365.666015625 -214.002929688 373.999023438 -235.002929688 373.999023438 -261.002929688 c 0
 373.999023438 -285.002929688 365.33203125 -305.3359375 347.999023438 -322.002929688 c 0
 330.666015625 -338.669921875 310.333007812 -347.002929688 287 -347.002929688 c 0
 263.666992188 -347.002929688 243.333984375 -338.3359375 226.000976562 -321.002929688 c 0
 208.66796875 -303.669921875 200.000976562 -283.669921875 200.000976562 -261.002929688 c 0
 200.000976562 -236.3359375 208.333984375 -215.668945312 225.000976562 -199.001953125 c 0
 241.66796875 -182.334960938 262.334960938 -174.001953125 287.001953125 -174.001953125 c 0
286.998046875 -202.002929688 m 0
 270.331054688 -202.002929688 256.331054688 -207.669921875 244.998046875 -219.002929688 c 0
 233.665039062 -230.3359375 227.998046875 -244.3359375 227.998046875 -261.002929688 c 0
 227.998046875 -276.3359375 233.998046875 -290.002929688 245.998046875 -302.002929688 c 0
 257.998046875 -314.002929688 271.665039062 -320.002929688 286.998046875 -320.002929688 c 0
 302.331054688 -320.002929688 315.998046875 -314.3359375 327.998046875 -303.002929688 c 0
 339.998046875 -291.669921875 345.998046875 -277.669921875 345.998046875 -261.002929688 c 0
 345.998046875 -243.002929688 340.331054688 -228.669921875 328.998046875 -218.002929688 c 0
 317.665039062 -207.3359375 303.665039062 -202.002929688 286.998046875 -202.002929688 c 0
EndSplineSet
EndChar

